<?xml version="1.0" encoding="utf-8"?>
<!-- Generator: Adobe Illustrator 19.0.0, SVG Export Plug-In . SVG Version: 6.00 Build 0)  -->
<svg version="1.1" id="Layer_1" xmlns="http://www.w3.org/2000/svg" xmlns:xlink="http://www.w3.org/1999/xlink" x="0px" y="0px"
	 viewBox="0 0 210 260" style="enable-background:new 0 0 210 260;" xml:space="preserve">
<style type="text/css">
	.st0{fill:#D08A63;}
	.st1{fill:none;stroke:#BDE6FA;stroke-width:2;stroke-miterlimit:10;}
	.st2{fill:#E7E5E5;}
	.st3{opacity:0.3;fill:#948A81;enable-background:new    ;}
	.st4{fill:#E8B488;}
	.st5{fill:none;stroke:#BDE6FA;stroke-width:2;stroke-linecap:round;stroke-linejoin:round;stroke-miterlimit:10;}
	.st6{fill:#E5E2E2;}
	.st7{fill:#E8BC96;}
	.st8{fill:#4C423F;}
	.st9{fill:none;stroke:#4C423F;stroke-width:2.7044;stroke-linecap:round;stroke-linejoin:round;stroke-miterlimit:10;}
	.st10{fill:none;stroke:#DFA783;stroke-width:2.0283;stroke-linecap:round;stroke-linejoin:round;stroke-miterlimit:10;}
	.st11{fill:none;stroke:#DFA783;stroke-width:2.7044;stroke-linecap:round;stroke-linejoin:round;stroke-miterlimit:10;}
	.st12{fill:#F4A2A0;}
	.st13{fill:#E7E3DE;}
	.st14{fill:#CA825D;}
	.st15{opacity:0.2;}
	.st16{fill:url(#XMLID_2_);}
</style>
<path id="XMLID_50_" class="st0" d="M132.2,215.3c-0.9,6.4-0.9,12.3,0.8,18.5c1.8,6.3,6.3,14.1,4.8,20.9c-1.1,4.7-9,7.6-12.8,3.1
	c-5.2-6.3-5.6-17.1-4.5-24.2c1.1-7.8,2.8-15.5,10.8-18.6L132.2,215.3z"/>
<path id="XMLID_49_" class="st1" d="M67.9,8.5c-0.7,35.7-3.9,112-5.1,147.7"/>
<path id="XMLID_48_" class="st0" d="M19.9,229.5c-3.2,9.1-2.1,18.8,7,20.7c5.5,1.2,12.1-6.4,9.4-12.4c-2.2-5,1.8-12,9-17.3
	c2.7-2.1,6-4.4,7.7-7.3c2.1-3.6-5.7-10.4-9.2-9.7s-8.4,4.2-11.8,7.5C26.1,216.2,23.1,220.5,19.9,229.5z"/>
<path id="XMLID_47_" class="st2" d="M45.3,220.5L45.3,220.5c-5.2-2.8-9.7-5.2-16.4-2.8c-1.6,0.6-3.2,1.3-4.7,2.1
	c2-3.2,4.3-5.9,7.5-8.7c3.4-3.1,8.3-6.7,11.8-7.5c3.6-0.7,11.4,6.2,9.2,9.7C51.3,216,48.1,218.5,45.3,220.5z"/>
<path id="XMLID_46_" class="st0" d="M72.1,152.1c1.3-1.9,0.4-4.1-2.3-3.2c1-4.2-3.6-8.3-6.6-3.8c-3.3-3.3-6.7,0.8-7.7,4.1
	c-1.5,5.2,2,9.1,6,8.9C66,157.9,69.8,155.3,72.1,152.1z"/>
<path id="XMLID_45_" class="st0" d="M132.7,219.4c-19.7,9.4-45.6,7.7-66.7,6.4c-14.4-1-30.9-11.1-33.8-25.4
	c-1.6-8-1.9-18.4,0.4-26.2c4-13.5,12.1-20.4,22.1-21.3c16.4-1.5,23.9,8.3,37,22.6c3.1,3.3,10.5,9.1,18,9.1
	C116.9,184.6,132.7,219.4,132.7,219.4z"/>
<path id="XMLID_44_" class="st3" d="M63.5,155.3c-5.4-0.9-11.4-1.6-18.2,0.3c2.8-1.7,5.9-2.6,9.1-2.9c16.4-1.5,23.9,8.3,37,22.6
	c2.3,2.5,6.9,6.4,12.3,8.1C85.5,181.8,81.4,158.3,63.5,155.3z"/>
<path id="XMLID_43_" class="st4" d="M46.3,200.3c0.6-6.8,4.9-14.1,12.3-15.8c8-1.8,15.6,2.7,22.4,6.5c6.5,3.5,12.7,7.6,19.6,10.6
	c4,1.8,8.8,8.2,7.4,13.5c-1,3.7-7.5,7.3-12.5,8.1C95.5,223.3,43.6,230.5,46.3,200.3z"/>
<path id="XMLID_42_" class="st5" d="M72.9,154.2c2.9-1.5,11.4-5.5,4.4-8.1c-4.1-1.6-7,5.6-8.1,9.3L72.9,154.2z"/>
<path id="XMLID_41_" class="st5" d="M65.5,154.7c-3.1-1-12.1-3.8-5.5-7.5c3.8-2.2,7.7,4.5,9.4,8L65.5,154.7z"/>
<path id="XMLID_40_" class="st2" d="M31.4,179.2c2.9,27.3,16.3,41.6,47.4,43.4c6.9,0.4,29.9,3.3,34.6-4.5c5.6-9.2-4.6-23-5.5-33.4
	c0.6,0.1,1.2,0.1,1.7,0.1c7.3,0.1,22.9,35,22.9,35c-19.8,9.2-45.7,7.4-66.8,5.7c-14.4-1.2-30.8-11.4-33.6-25.7
	C30.8,193.6,30.4,185.9,31.4,179.2z"/>
<g>
	<path id="XMLID_39_" class="st0" d="M187.3,211.8c7,4.8,15.8,6.7,20.6-1c3.9-6.1,2.9-17.3-6.7-18c-4.5-0.4-9,2-12.8,4.1
		L187.3,211.8z"/>
	<path id="XMLID_38_" class="st4" d="M188.6,209.8c5,3.4,11.1,4.7,14.7-0.7c2.8-4.3,2.1-12.3-4.8-12.7c-3.2-0.3-6.4,1.4-9.1,2.9
		L188.6,209.8z"/>
	<path id="XMLID_37_" class="st0" d="M149,148.7c-1-8.4,1.3-17.1,10.2-17.9c7.1-0.7,16.7,5.3,12.8,14.2c-1.8,4.2-5.8,7.3-9.4,9.6
		L149,148.7z"/>
	<path id="XMLID_36_" class="st4" d="M151.5,148.6c-0.7-6.1,1-12.1,7.3-12.7c5.1-0.5,11.8,3.7,9.1,10.1c-1.3,3-4.1,5.1-6.7,6.9
		L151.5,148.6z"/>
	<path id="XMLID_35_" class="st6" d="M155.2,145.9c4.8,0.1,11,5.7,11.4,6c-1.3,1.1-2.6,2-3.9,2.8l-13.6-6c-0.1-0.9-0.2-1.7-0.2-2.5
		C151.4,145.7,153.1,145.8,155.2,145.9z"/>
	<path id="XMLID_34_" class="st6" d="M190.6,213.8c-1.1-0.6-2.2-1.2-3.3-2l1-14.9c1.3-0.7,2.6-1.5,4-2.1
		C195.7,200.7,193.2,208.1,190.6,213.8z"/>
	<path id="XMLID_33_" class="st0" d="M114.8,167.6c-3.3,4-5.7,9.3-5.1,14.6c0.8,7.5,4.8,14.3,8.3,20.8c3.2,6,6.8,11.7,10.7,17.3
		c3.1,4.3,6.4,8.8,11,11.7c5.5,3.4,12.5,3.5,18.6,1.3c5.5-2.1,10.6-5.2,15.6-8.3c6.7-4.4,15.8-9.7,17.8-18.2
		c2-8.4-5.7-24.7-10.7-32.9c-3.1-5-14.6-21.6-21.6-24.9c-5.2-2.5-12.7-1.3-17.7,1.2c-6.8,3.3-13.6,6.5-19.7,10.9
		C119.3,163,116.8,165.1,114.8,167.6z"/>
	<path id="XMLID_32_" class="st3" d="M175.7,220.9c7.5-4.8,15.2-11,13.8-20.6c-1.5-11-6.8-20-12-29.6c-3-5.7-7.2-11.7-11.5-16.4
		c6.1,6.4,12.5,15.9,14.9,19.4c5,8,12.7,24.4,10.7,32.9c-2,8.3-11,13.8-17.8,18.2c-4.9,3.2-10,6.4-15.6,8.3c-4,1.5-8.4,2-12.6,1
		C157.5,234,166.4,226.8,175.7,220.9z"/>
	<path id="XMLID_31_" class="st7" d="M154.1,207.7c-6.4,4-19.2,9.5-25.3,3.7c-17.9-16.5,5.8-31.7,16.9-32.8
		c5.2-0.5,12.5,1.6,15.6,12.1C163.1,198.1,160.6,203.7,154.1,207.7z"/>
	<path id="XMLID_30_" class="st8" d="M161.2,189.1c-0.9-1.8-2.9-6.2-4.9-7.2c-1.7-0.9-2,4-2,5.5c0,2.3,0.4,2.6,4.3,4.5
		C161.4,193.3,162.6,191.8,161.2,189.1z"/>
	<path id="XMLID_29_" class="st9" d="M154.8,189.4c-3.4,1.9-6.2,3.2-9.8,5.4c-2.9,1.7-5.8,3.2-8.7,5c-2.3,1.4-5.2,2.5-5,5.3
		c0.2,2.2,3.3,2.3,4.7,0.9"/>
	<path id="XMLID_28_" class="st9" d="M133.7,201.1c-1,0.8-3.3,1.1-4.3,0.3c-1.7-1.5-0.8-3.8,1.4-5.1"/>
	<g>
		<path id="XMLID_27_" class="st10" d="M145.2,187.4L145.2,187.4"/>
		<path id="XMLID_26_" class="st10" d="M144.9,182.8C144.8,182.8,144.8,182.8,144.9,182.8"/>
		<path id="XMLID_25_" class="st10" d="M147.5,185.2C147.5,185.2,147.5,185.1,147.5,185.2"/>
		<path id="XMLID_24_" class="st11" d="M141.8,184.8C141.8,184.7,141.8,184.7,141.8,184.8"/>
		<path id="XMLID_23_" class="st11" d="M142.7,188.6C142.7,188.5,142.6,188.5,142.7,188.6"/>
		<path id="XMLID_22_" class="st10" d="M140,187.5C140,187.4,140,187.4,140,187.5"/>
	</g>
	<g>
		<path id="XMLID_21_" class="st10" d="M151.4,197.8L151.4,197.8"/>
		<path id="XMLID_20_" class="st10" d="M155.3,200.3L155.3,200.3"/>
		<path id="XMLID_19_" class="st10" d="M154.4,196.7C154.4,196.7,154.4,196.8,154.4,196.7"/>
		<path id="XMLID_18_" class="st11" d="M152.2,202.1L152.2,202.1"/>
		<path id="XMLID_17_" class="st11" d="M149.1,199.6C149.2,199.6,149.2,199.7,149.1,199.6"/>
		<path id="XMLID_16_" class="st10" d="M148.9,202.5L148.9,202.5"/>
	</g>
	<path id="XMLID_15_" class="st3" d="M157.4,185.2c-0.7,0.6,0.2,1.6,0.5,2.2c0.5,0.9,0.9,1.9,1.4,2.7c0.2,0.4,0.8,1.7,1.4,1.2
		c0.5-0.4,0.1-1.4-0.1-1.9c-0.4-1.2-1.3-3.1-2.2-4C158.1,185.1,157.9,185,157.4,185.2z"/>
	<path id="XMLID_14_" class="st12" d="M143.2,168c-1.3,0.7-1.7,2.6-1.3,4c0.5,1.7,1.7,3.2,3,4.3c0.6,0.5,1.3,1,2.1,1.2
		c1.5,0.4,2.8-0.8,2.8-2.4c0-2.1-0.8-4-2.2-5.6c-1-1.2-2.4-2.2-3.9-1.8C143.5,167.8,143.3,167.9,143.2,168z"/>
	<g>
		<path id="XMLID_13_" class="st8" d="M152.6,166.6c-1.2,0.7-1.7,2-1.2,2.8c0.5,0.8,1.9,1,3,0.2c1.2-0.7,1.7-2,1.2-2.8
			C155.1,166,153.7,165.9,152.6,166.6z"/>
		<path id="XMLID_12_" class="st13" d="M154.2,166.2c-0.3,0.2-0.4,0.6-0.2,0.9c0.2,0.3,0.6,0.4,0.8,0.2c0.3-0.2,0.4-0.6,0.2-0.9
			C154.9,166.2,154.5,166.1,154.2,166.2z"/>
		<path id="XMLID_11_" class="st13" d="M152.6,169.5c-0.1,0.1-0.2,0.3-0.1,0.4c0.1,0.2,0.3,0.2,0.4,0.1c0.1-0.1,0.2-0.3,0.1-0.4
			C153,169.4,152.8,169.4,152.6,169.5z"/>
	</g>
	<path id="XMLID_10_" class="st12" d="M163.8,201.9c-1.3,0.7-1.7,2.6-1.3,4c0.5,1.7,1.7,3.2,3,4.3c0.6,0.5,1.3,1,2.1,1.2
		c1.5,0.4,2.8-0.8,2.8-2.4c0-2.1-0.8-4-2.2-5.6c-1-1.2-2.4-2.2-3.9-1.8C164.1,201.7,163.9,201.8,163.8,201.9z"/>
	<g>
		<path id="XMLID_9_" class="st8" d="M173.1,200.5c-1.2,0.7-1.7,2-1.2,2.8c0.5,0.8,1.9,1,3,0.2c1.2-0.7,1.7-2,1.2-2.8
			C175.6,199.9,174.2,199.8,173.1,200.5z"/>
		<path id="XMLID_8_" class="st13" d="M174.7,200.2c-0.3,0.2-0.4,0.6-0.2,0.9c0.2,0.3,0.6,0.4,0.9,0.2c0.3-0.2,0.4-0.6,0.2-0.9
			C175.4,200.1,175,200,174.7,200.2z"/>
		<path id="XMLID_7_" class="st13" d="M173.1,203.3c-0.1,0.1-0.2,0.3-0.1,0.4c0.1,0.2,0.3,0.2,0.4,0.1c0.1-0.1,0.2-0.3,0.1-0.4
			C173.5,203.3,173.3,203.2,173.1,203.3z"/>
	</g>
</g>
<path id="XMLID_6_" class="st14" d="M108.8,195.1c0.7,3.1-0.7,5.8-1.9,8.4c-1.4,3.1-2.6,7-2.7,10.3c-0.3,7,1.7,16.5-2.2,22.7
	c-2.7,4.4-11.7,4.8-14.1-1.2c-3.2-8,0.1-19.2,3.6-26.2c2.6-5.3,7.3-16.4,14.5-16.1C107.1,193.3,108.6,194.2,108.8,195.1z"/>
<g>
	<path id="XMLID_5_" class="st0" d="M4.6,194.8c-5.6,7.9-7.1,17.5,1.2,21.8c5,2.6,13.3-2.7,12.4-9.3c-0.8-5.4,4.9-11,13.3-14.1
		c3.2-1.2,6.9-2.6,9.3-4.9c3-2.8-0.8-11.9-6.3-11.9c-3.6,0-9.2,1.8-13.4,3.8C14.2,183.8,10.1,187.1,4.6,194.8z"/>
	<path id="XMLID_4_" class="st6" d="M20.6,200.4c-0.9,1.2-1.7,2.5-2,3.6c-0.5-0.8-1-1.7-1.7-2.4c-1.6-1.7-4.3-2.9-6.4-3.4
		c-0.9-0.2-1.8-0.6-2.7-0.5c-0.3,0-0.8,0.2-1.1,0.1c-0.6-0.2,0.1-0.9,0.4-1c0.8-0.2,1.6-0.2,2.4-0.2c0.3,0,0.7,0,1,0
		c2.3,0.1,4.6,0.5,6.7,1.5C18.4,198.9,19.6,199.6,20.6,200.4z"/>
</g>
<g class="st15">
	
		<linearGradient id="XMLID_2_" gradientUnits="userSpaceOnUse" x1="63.5584" y1="258.7041" x2="71.9314" y2="258.7041" gradientTransform="matrix(1 0 0 -1 0 263)">
		<stop  offset="0" style="stop-color:#5A5C5C"/>
		<stop  offset="1" style="stop-color:#030303;stop-opacity:0"/>
	</linearGradient>
	<path id="XMLID_3_" class="st16" d="M67.2,0.7c0.4-1,0.7-1,0.7,0.1c0,0,0,1.5,1.3,3.4c1.3,2.1,2.3,2.7,2.3,2.7
		c0.9,0.6,0.7,1.2-0.4,1.3l-6.4,0.4c-1.1,0.1-1.4-0.5-0.6-1.3c0,0,0.1-0.1,1.5-2.9C66.7,2.1,67.2,0.7,67.2,0.7z"/>
</g>
</svg>
