<?xml version="1.0" encoding="utf-8"?>
<!-- Generator: Adobe Illustrator 19.0.0, SVG Export Plug-In . SVG Version: 6.00 Build 0)  -->
<svg version="1.1" id="Layer_1" xmlns="http://www.w3.org/2000/svg" xmlns:xlink="http://www.w3.org/1999/xlink" x="0px" y="0px"
	 viewBox="0 0 620 355" style="enable-background:new 0 0 620 355;" xml:space="preserve">
<style type="text/css">
	.st0{fill:#FFFFFF;}
</style>
<g>
	<g>
		<g>
			<g>
				<path id="XMLID_1_" class="st0" d="M534,84.6c-16.6-2.4-33.2-0.9-48,3.8c-6.5-41.5-40.3-75.9-86-82.5
					c-26.1-3.8-51.6,2.4-71.7,15.6c-10.7-10.8-26.1-18.4-42.7-20.7c-30.2-4.2-58.7,8.5-74.7,31.1c-1.8-0.5-4.7-0.9-7.1-1.4
					c-59.3-8.6-115.6,26.3-132.2,79.6C36.5,112,6.3,137,0.9,171.4c-6.5,39.6,21.9,76.4,62.8,82.5c3,0.5,6.5,0.9,9.5,0.9
					c-0.6,1.4-0.6,2.4-0.6,3.8c-6.5,39.6,21.9,76.4,62.8,82.5c30.8,4.7,60.5-9.4,75.9-33.5c14.8,24,40.9,42,71.7,46.2
					c29.6,4.2,58.7-3.8,80.6-20.7c5.3,1.4,11.3,3.3,17.2,3.8c48.6,7.1,93.7-19.8,110.9-61.8c3.6,0.9,7.1,1.4,10.7,1.9
					c55.7,8.5,107.9-28.3,116.2-81.6C627.7,142.6,589.8,93.1,534,84.6z"/>
			</g>
		</g>
	</g>
</g>
</svg>
