<?xml version="1.0" encoding="utf-8"?>
<!-- Generator: Adobe Illustrator 20.0.0, SVG Export Plug-In . SVG Version: 6.00 Build 0)  -->
<svg version="1.1" id="Layer_1" xmlns="http://www.w3.org/2000/svg" xmlns:xlink="http://www.w3.org/1999/xlink" x="0px" y="0px"
	 viewBox="0 0 27 27" style="enable-background:new 0 0 27 27;" xml:space="preserve">
<style type="text/css">
	.st0{fill:url(#XMLID_2_);}
	.st1{fill:#FFFFFF;}
</style>
<g id="XMLID_1346_">
	
		<radialGradient id="XMLID_2_" cx="-141.5253" cy="-128.1519" r="545.8601" gradientTransform="matrix(9.146342e-02 0 0 -9.146340e-02 12.2652 15.3713)" gradientUnits="userSpaceOnUse">
		<stop  offset="0" style="stop-color:#F2EC58"/>
		<stop  offset="0.2412" style="stop-color:#E48240"/>
		<stop  offset="0.3463" style="stop-color:#D66863"/>
		<stop  offset="0.4422" style="stop-color:#CD5075"/>
		<stop  offset="0.4888" style="stop-color:#CA447A"/>
		<stop  offset="1" style="stop-color:#4157A6"/>
	</radialGradient>
	<path id="XMLID_1418_" class="st0" d="M13.5,27L13.5,27C6,27,0,21,0,13.5l0,0C0,6,6,0,13.5,0l0,0C21,0,27,6,27,13.5l0,0
		C27,21,21,27,13.5,27z"/>
	<g id="XMLID_1347_">
		<path id="XMLID_1352_" class="st1" d="M13.5,7.4c2,0,2.2,0,3,0c0.7,0,1.1,0.2,1.4,0.3c0.3,0.1,0.6,0.3,0.9,0.6
			c0.3,0.3,0.4,0.5,0.6,0.9c0.1,0.3,0.2,0.6,0.3,1.4c0,0.8,0,1,0,3s0,2.2,0,3c0,0.7-0.2,1.1-0.3,1.4c-0.1,0.3-0.3,0.6-0.6,0.9
			c-0.3,0.3-0.5,0.4-0.9,0.6c-0.3,0.1-0.6,0.2-1.4,0.3c-0.8,0-1,0-3,0s-2.2,0-3,0c-0.7,0-1.1-0.2-1.4-0.3c-0.3-0.1-0.6-0.3-0.9-0.6
			c-0.3-0.3-0.4-0.5-0.6-0.9c-0.1-0.3-0.2-0.6-0.3-1.4c0-0.8,0-1,0-3c0-2,0-2.2,0-3c0-0.7,0.2-1.1,0.3-1.4C7.9,8.8,8,8.6,8.3,8.3
			C8.5,8,8.8,7.9,9.1,7.7c0.3-0.1,0.6-0.2,1.4-0.3C11.3,7.4,11.5,7.4,13.5,7.4 M13.5,6.1c-2,0-2.3,0-3.1,0c-0.8,0-1.3,0.2-1.8,0.3
			C8.2,6.7,7.8,6.9,7.3,7.3S6.7,8.2,6.5,8.7c-0.2,0.5-0.3,1-0.3,1.8s0,1,0,3.1s0,2.3,0,3.1c0,0.8,0.2,1.3,0.3,1.8
			c0.2,0.5,0.4,0.9,0.9,1.3c0.4,0.4,0.8,0.7,1.3,0.9c0.5,0.2,1,0.3,1.8,0.3c0.8,0,1,0,3.1,0s2.3,0,3.1,0c0.8,0,1.3-0.2,1.8-0.3
			c0.5-0.2,0.9-0.4,1.3-0.9c0.4-0.4,0.7-0.8,0.9-1.3c0.2-0.5,0.3-1,0.3-1.8c0-0.8,0-1,0-3.1s0-2.3,0-3.1c0-0.8-0.2-1.3-0.3-1.8
			c-0.2-0.5-0.4-0.9-0.9-1.3c-0.4-0.4-0.8-0.7-1.3-0.9c-0.5-0.2-1-0.3-1.8-0.3C15.8,6.1,15.5,6.1,13.5,6.1"/>
		<path id="XMLID_1349_" class="st1" d="M13.5,9.7c-2.1,0-3.8,1.7-3.8,3.8s1.7,3.8,3.8,3.8s3.8-1.7,3.8-3.8
			C17.3,11.4,15.6,9.7,13.5,9.7 M13.5,16c-1.4,0-2.5-1.1-2.5-2.5c0-1.4,1.1-2.5,2.5-2.5s2.5,1.1,2.5,2.5C16,14.9,14.9,16,13.5,16"/>
		<path id="XMLID_1348_" class="st1" d="M18.3,9.5c0,0.5-0.4,0.9-0.9,0.9c-0.5,0-0.9-0.4-0.9-0.9c0-0.5,0.4-0.9,0.9-0.9
			C17.9,8.7,18.3,9.1,18.3,9.5"/>
	</g>
</g>
</svg>
