<svg xmlns="http://www.w3.org/2000/svg">
	<symbol id="mags-logo-small" viewBox="0 0 95 20">
		<path d="M44.7 16.7c-.2.2-.5.3-.9.3h-1.2v-3.5h1.2c.4 0 .7.1.9.3.4.4.4.9.4 1.4 0 .5 0 1.1-.4 1.5zm-.3-2.5c-.1-.2-.3-.2-.6-.2h-.6v2.6h.6c.3 0 .4-.1.6-.2.2-.2.2-.6.2-1.1-.1-.6-.1-.9-.2-1.1zm1.5 2.8v-3.5h.5V17h-.5zm3.5-.4c-.3.3-.6.4-1 .4s-.7-.1-.9-.4c-.3-.3-.3-.7-.3-1.4s0-1.1.3-1.4c.2-.2.5-.4.9-.4.7 0 1.2.5 1.3 1.1h-.5c-.1-.4-.3-.6-.7-.6-.2 0-.4.1-.5.2-.2.2-.2.4-.2 1.1 0 .7 0 .9.2 1.1.1.1.3.2.5.2s.4-.1.6-.2c.1-.1.2-.3.2-.6v-.2h-.8V15h1.3v.5c-.1.6-.1.9-.4 1.1zm1.1.4v-3.5h.5V17h-.5zm2.7-3.1v3h-.5v-3h-1v-.5h2.5v.5h-1zm3.3 3.1l-.2-.7h-1.4l-.3.7H54l1.3-3.5h.4L57 17h-.5zm-1-2.7l-.5 1.5h1.1l-.6-1.5zm2 2.7v-3.5h.5v3h1.7v.5h-2.2zm2.9 0v-3.5h.5v3h1.7v.5h-2.2zm3.6-1.5V17h-.5v-1.4l-1.1-2.1h.6l.7 1.5.7-1.5h.6l-1 2zm4.8 1.2c-.2.2-.5.3-.9.3h-1.2v-3.5h1.2c.4 0 .7.1.9.3.4.4.4.9.4 1.4 0 .5 0 1.1-.4 1.5zm-.3-2.5c-.1-.2-.3-.2-.6-.2h-.6v2.6h.6c.3 0 .4-.1.6-.2.2-.2.2-.6.2-1.1-.1-.6-.1-.9-.2-1.1zm3.4 2.8l-.7-1.5h-.7V17H70v-3.5h1.4c.7 0 1.1.4 1.1 1 0 .5-.3.8-.7.9l.8 1.6h-.7zm-.6-3.1h-.8V15h.8c.4 0 .6-.2.6-.5s-.3-.6-.6-.6zm1.9 3.1v-3.5h.5V17h-.5zm2.6 0h-.4l-1.2-3.5h.6l.8 2.6.8-2.6h.6L75.8 17zm1.6 0v-3.5h2.2v.5H78v1h1.5v.5H78v1.1h1.7v.4h-2.3zm5.2 0L81 14.5V17h-.5v-3.5h.5l1.6 2.5v-2.5h.5V17h-.5zM61.8 6.4h-4.4l.5 1.3h3.4l.5-1.3zM20.1 3h-8.2v1.3h3.4V10h1.4V4.2h3.4V3zM30 3h-1.4v7H30V3zm-1.4 2.7h-6.3V3h-1.4v7h1.4V7h5.4l.9-1.3zm26.8 4.2l3.2-5.7h2l3.2 5.7h1.5l-3.9-7h-3.6l-3.9 7h1.5zM81 5.7h-3.9c-.4 0-.7-.3-.7-.7 0-.4.3-.7.7-.7h4c.3 0 .5.1.6.4l1.1-.7c-.3-.6-1-1-1.7-1H77c-1.1 0-2 .9-2 2s.9 2 2 2h3.9c.5 0 .8.4.8.8 0 .5-.4.8-.8.8h-4c-.3 0-.6-.2-.8-.5l-1.1.6c.3.7 1.1 1.2 1.9 1.2H81c1.2 0 2.1-.9 2.1-2.1 0-1.1-.9-2.1-2.1-2.1zm-10.3.6v1.3h1l1.1-.1v.1c-.2.6-.9 1.1-1.6 1.1h-3c-.9 0-1.7-.8-1.7-1.7V5.7c0-.8.7-1.5 1.5-1.5h3.4c.6 0 1 .3 1.3.8l1.1-.6c-.6-.9-1.4-1.4-2.5-1.4h-3.5C66.3 3 65 4.2 65 5.8V7c0 1.6 1.3 3 3 3h3.1c1.6 0 3-1.3 3-3v-.7h-3.4zM15.3 4.2zM50.4 3l-2.5 3.3L45.4 3h-2.9v7H44V4.2h.8l2.5 3.4h1.1L51 4.2h.8v5.7h1.4V3h-2.8zM38.3 7V5.7h-5.5l.8 1.3h4.7zm-5.5 1.7V4.2h6.8V3h-8.2v7h8.3V8.7h-6.9z"/>
	</symbol>
	<symbol id="search" viewBox="0 0 100 100">
			<path d="M42.1 75.9c-18.6 0-33.8-15.1-33.8-33.8 0-18.6 15.1-33.8 33.8-33.8 18.6 0 33.8 15.2 33.8 33.8 0 18.7-15.1 33.8-33.8 33.8m56.7 17l-24-24c6-7.3 9.6-16.6 9.6-26.7C84.3 18.9 65.4 0 42.1 0 18.9 0 0 18.9 0 42.1s18.9 42.1 42.1 42.1c10.1 0 19.4-3.6 26.7-9.5l24 24c1.6 1.6 4.3 1.6 5.9 0 1.7-1.5 1.7-4.2.1-5.8"/>
	</symbol>
	<symbol id="nav_dundio_logo" viewBox="0 0 200 50">
		<style>.st1{fill:#9a6aab}</style>
		<g id="Group_61" transform="translate(-9.838 -69.4)">
			<g id="Group_15">
				<path id="ВСИЧКО_ЗА_МАМА_И_БЕБЕ" d="M11.7 119.1c-.7 0-1.1-.1-1.4-.3-.3-.2-.4-.7-.4-1.3v-8c0-.7.1-1.2.4-1.4.3-.3.7-.4 1.4-.4h2.1c1 0 1.9.2 2.6.7.9.5 1.3 1.3 1.3 2.2 0 1.2-.4 2.1-1.4 2.5.7.2 1.2.5 1.5.9.3.4.4 1 .4 1.7 0 1.2-.4 2.1-1.2 2.7-.7.5-1.7.8-2.9.8h-2.4zm.8-4.9v2.7h1.3c.6 0 1-.1 1.2-.2.4-.2.5-.6.5-1.1 0-.6-.2-1-.5-1.2-.3-.1-.7-.2-1.3-.2h-1.2zm0-4.3v2.2h1.1c.5 0 .9-.1 1.1-.2.3-.2.4-.5.4-.9 0-.7-.5-1.1-1.5-1.1h-1.1zm12.4 9.5c-1.7 0-3.1-.6-4.2-1.7-1-1.1-1.5-2.5-1.5-4.3 0-1.7.5-3.1 1.5-4.3 1.1-1.2 2.4-1.8 4.1-1.8.6 0 1.2.1 1.7.3.7.2 1.2.5 1.5.9.2.2.2.4.3.7 0 .3-.1.6-.3.8-.2.2-.5.4-.8.4-.4 0-.7-.1-1-.2-.4-.2-.9-.2-1.3-.2-1 0-1.7.4-2.2 1.1-.4.7-.7 1.5-.7 2.5s.2 1.8.7 2.4c.5.7 1.2 1 2.2 1 .5 0 1-.1 1.4-.3.5-.2.9-.3 1-.3.3 0 .6.1.7.4.2.2.3.5.3.8 0 .3-.1.5-.3.7-.3.7-1.4 1.1-3.1 1.1zm12.5-7.3l-4.8 6.3c-.4.6-1 .9-1.5.9-.8 0-1.2-.5-1.2-1.6v-8.4c0-1.2.4-1.9 1.3-1.9s1.3.6 1.3 1.9v5.4l4.8-6.4c.4-.6.9-.9 1.4-.9.8 0 1.2.6 1.2 1.8v8.2c0 1.2-.4 1.9-1.3 1.9s-1.3-.6-1.3-1.9l.1-5.3zm8.4.8h1.3v-3.6c0-1.2.4-1.8 1.3-1.8s1.3.6 1.3 1.8v8.1c0 1.2-.4 1.9-1.3 1.9s-1.3-.6-1.3-1.9v-2.2h-1.8c-1.2 0-2.2-.3-2.8-1-.7-.7-1-1.6-1-2.9v-2.1c0-1.2.4-1.8 1.3-1.8s1.3.6 1.3 1.8v2.1c0 .6.1 1 .3 1.2s.8.4 1.4.4zm6 4.5v-8.1c0-1.2.4-1.9 1.3-1.9s1.3.6 1.3 1.9v2.5l3.3-3.4c.6-.6 1.1-.9 1.4-.9.3 0 .7.1.9.4.3.2.4.5.4.9 0 .2-.1.5-.4.8l-.7.7-2.6 2.6 3.5 4c.4.5.7.9.7 1.3 0 .3-.1.6-.4.8-.2.2-.5.4-.8.4-.4 0-.9-.3-1.4-.9l-3.5-4-.5.4v2.7c0 1.2-.4 1.9-1.3 1.9-.8-.2-1.2-.9-1.2-2.1zm9.1-4c0-1.7.5-3.1 1.5-4.2s2.3-1.7 4.1-1.7c1.7 0 3.1.6 4.1 1.7 1 1.1 1.5 2.5 1.5 4.2 0 1.7-.5 3.1-1.5 4.2s-2.4 1.7-4.1 1.7c-1.7 0-3.1-.6-4.1-1.7-1-1.1-1.5-2.5-1.5-4.2zm2.8 0c0 .9.2 1.7.7 2.3.5.7 1.2 1.1 2.1 1.1.9 0 1.6-.4 2.1-1.1.4-.6.7-1.4.7-2.4s-.2-1.8-.6-2.4c-.5-.7-1.2-1.1-2.1-1.1s-1.6.4-2.1 1.1c-.6.7-.8 1.5-.8 2.5zm20.9-.4c1.2.5 1.8 1.4 1.8 2.7 0 2.4-1.5 3.6-4.5 3.6-1 0-1.8-.1-2.4-.3-1-.3-1.5-.9-1.5-1.6 0-.7.4-1 1.1-1 .3 0 .6.1.9.2.4.2.7.3.9.3.4.1.7.1 1.1.1 1.2 0 1.8-.4 1.8-1.4 0-.4-.1-.7-.4-1-.2-.2-.5-.4-.9-.4h-1c-1.1 0-1.6-.4-1.6-1.1 0-.3.1-.6.5-.8.3-.2.6-.3.9-.3h1c.3 0 .7-.1 1-.2.3-.2.5-.5.5-.9 0-.8-.5-1.2-1.6-1.2-.4 0-.9.1-1.3.2-.5.1-.9.2-1.2.2-.7 0-1.1-.3-1.1-1 0-.2.1-.4.3-.7.6-.7 1.7-1 3.3-1 2.7 0 4.1 1.1 4.1 3.2-.1 1.1-.6 1.9-1.7 2.4zm7.5-5.5c.9 0 1.6.5 1.9 1.5l2.9 8.3c.1.3.2.5.2.8 0 .3-.1.7-.4.9-.3.2-.6.3-.9.3-.7 0-1.1-.4-1.4-1.2l-.4-1.4h-4l-.5 1.4c-.3.8-.7 1.2-1.3 1.2-.3 0-.7-.1-.9-.3-.2-.2-.4-.6-.4-.9 0-.3 0-.5.1-.8l3-8.1c.5-1.2 1.2-1.7 2.1-1.7zm-.1 2.8l-1.3 4h2.6l-1.3-4zm17.5 5.2l1.6-6.5c.1-.4.3-.8.7-1.1.3-.3.8-.4 1.2-.4.5 0 1 .2 1.4.5s.6.8.7 1.3l1.3 7.8c.1.3.1.6.1.9 0 .8-.4 1.3-1.2 1.3-.5 0-.8-.2-1-.5-.1-.2-.3-.6-.4-1.2l-1-6.3-1.5 5.8c-.2.6-.3 1-.5 1.3-.3.4-.7.6-1.2.6s-1-.2-1.2-.6c-.2-.3-.4-.7-.5-1.3l-1.5-5.8-1 6.3c-.1.5-.2.9-.4 1.2-.2.4-.6.5-1 .5-.8 0-1.2-.4-1.2-1.3 0-.3.1-.6.1-.9l1.3-7.8c.1-.5.3-1 .7-1.3.4-.3.9-.5 1.3-.5s.9.1 1.2.4c.3.3.6.7.7 1.1l1.3 6.5zm12.3-8c.9 0 1.6.5 1.9 1.5l2.9 8.3c.1.3.2.5.2.8 0 .3-.1.7-.4.9-.3.2-.6.3-.9.3-.7 0-1.1-.4-1.4-1.2l-.4-1.4h-4.1l-.5 1.4c-.3.8-.7 1.2-1.3 1.2-.3 0-.7-.1-.9-.3-.2-.2-.4-.6-.4-.9 0-.3 0-.5.1-.8l3-8.1c.6-1.2 1.2-1.7 2.2-1.7zm-.1 2.8l-1.3 4h2.6l-1.3-4zm12.1 5.2l1.6-6.5c.1-.4.3-.8.7-1.1.3-.3.8-.4 1.2-.4.5 0 1 .2 1.4.5.4.3.6.8.7 1.3l1.3 7.8c.1.3.1.6.1.9 0 .8-.4 1.3-1.2 1.3-.5 0-.8-.2-1-.5-.1-.2-.3-.6-.4-1.2l-1-6.3-1.5 5.8c-.2.6-.3 1-.5 1.3-.3.4-.7.6-1.2.6s-1-.2-1.2-.6c-.2-.3-.4-.7-.5-1.3l-1.5-5.8-1 6.3c-.1.5-.2.9-.4 1.2-.2.4-.6.5-1 .5-.8 0-1.2-.4-1.2-1.3 0-.3.1-.6.1-.9l1.3-7.8c.1-.5.3-1 .7-1.3.4-.3.9-.5 1.3-.5s.9.1 1.2.4c.3.3.6.7.7 1.1l1.3 6.5zm12.2-8c.9 0 1.6.5 1.9 1.5l2.9 8.3c.1.3.2.5.2.8 0 .3-.1.7-.4.9-.3.2-.6.3-.9.3-.7 0-1.1-.4-1.4-1.2l-.4-1.4h-4.1l-.5 1.4c-.3.8-.7 1.2-1.3 1.2-.3 0-.7-.1-.9-.3-.2-.2-.4-.6-.4-.9 0-.3 0-.5.1-.8l3-8.1c.7-1.2 1.3-1.7 2.2-1.7zm-.1 2.8l-1.3 4h2.6l-1.3-4zm19 1.8l-4.8 6.3c-.4.6-1 .9-1.5.9-.8 0-1.2-.5-1.2-1.6v-8.4c0-1.2.4-1.9 1.3-1.9s1.3.6 1.3 1.9v5.4l4.8-6.4c.4-.6.9-.9 1.4-.9.8 0 1.2.6 1.2 1.8v8.2c0 1.2-.4 1.9-1.3 1.9s-1.3-.6-1.3-1.9v-5.3h.1zm12.6 1.6v3h1.1c1.2 0 1.8-.5 1.8-1.5s-.6-1.5-1.8-1.5h-1.1zm0-2.4h1.8c1.2 0 2.2.3 2.9 1s1.1 1.6 1.1 2.9c0 1.2-.4 2.2-1.2 2.9-.8.7-1.8 1-3 1h-2.4c-.7 0-1.2-.1-1.4-.4-.3-.3-.4-.7-.4-1.4v-7.8c0-.7.1-1.2.4-1.4.3-.3.7-.4 1.4-.4h4.1c1.2 0 1.9.4 1.9 1.2 0 .8-.6 1.2-1.9 1.2h-3.3v1.2zm12-3.7c1.2 0 1.9.4 1.9 1.2 0 .8-.6 1.2-1.9 1.2h-2.1v2h1.8c1.2 0 1.9.4 1.9 1.2 0 .8-.6 1.2-1.9 1.2h-1.8v2.2h2.2c1.2 0 1.9.4 1.9 1.2 0 .8-.6 1.2-1.9 1.2h-3.1c-.7 0-1.1-.1-1.4-.3s-.4-.7-.4-1.3v-8c0-.7.1-1.2.4-1.4.3-.3.7-.4 1.4-.4h3zm6 6.1v3h1.1c1.2 0 1.8-.5 1.8-1.5s-.6-1.5-1.8-1.5h-1.1zm0-2.4h1.8c1.2 0 2.2.3 2.9 1 .7.7 1.1 1.6 1.1 2.9 0 1.2-.4 2.2-1.2 2.9-.8.7-1.8 1-3 1h-2.4c-.7 0-1.2-.1-1.4-.4-.3-.3-.4-.7-.4-1.4v-7.8c0-.7.1-1.2.4-1.4.3-.3.7-.4 1.4-.4h4.1c1.2 0 1.9.4 1.9 1.2 0 .8-.6 1.2-1.9 1.2h-3.3v1.2zm12-3.7c1.2 0 1.9.4 1.9 1.2 0 .8-.6 1.2-1.9 1.2h-2.1v2h1.8c1.2 0 1.9.4 1.9 1.2 0 .8-.6 1.2-1.9 1.2h-1.8v2.2h2.2c1.2 0 1.9.4 1.9 1.2 0 .8-.6 1.2-1.9 1.2h-3.1c-.7 0-1.1-.1-1.4-.3s-.4-.7-.4-1.3v-8c0-.7.1-1.2.4-1.4.3-.3.7-.4 1.4-.4h3z" fill="#98d6f5"/>
				<g id="DUNDIO" transform="translate(6.093)">
					<g id="Group_12" transform="translate(-.227 -.498)">
						<path id="ДУНДЬ" class="st1" d="M27 92c-.1.5-.4 1-.9 1.3-.4.3-.9.5-1.5.6-.5.1-1 .1-1.5 0 .5-.1 1-.2 1.4-.4.5-.1.9-.4 1.3-.6.4-.3.6-.7.8-1.1.2-.5.3-.9.4-1.4.1.6.1 1.1 0 1.6zm-6-.6c-.3-.6-.2-1.4.3-2.7.5-1.3 1.1-1.9 1.7-1.9.8 0 1.4.7 1.8 2 .2.5.3 1 .3 1.6s0 .9-.2 1.2c-.2.4-.9.6-2 .5-1 0-1.7-.2-1.9-.7zm-3.2-15.3c-.7 1-1.3 2.1-1.8 3.2-.4.9-.9 2-1.5 3.4.3-1.2.7-2.4 1.1-3.5.5-1.2 1.1-2.3 1.8-3.3.8-1.2 1.6-2.1 2.5-2.8.5-.4 1.1-.7 1.6-1 .6-.2 1.2-.4 1.8-.4-1.1.1-2.2.7-3.2 1.6-.9.9-1.7 1.8-2.3 2.8zM7.3 94.6l-.9.6c-.3.2-.5.5-.6.9-.1-.4.1-.8.4-1.2.2-.3.5-.5 1-.7.7-.4 1.5-.6 2.3-.5l-.5.2-.5.2c-.5.2-.8.4-1.2.5zm28.8-2.8c-.6-.2-1.1-.4-1.4-.8-.3-.3-.4-.7-.5-1.3-.1-.3-.1-1-.2-2.2 0-.6-.1-1-.1-1.4 0-.6-.1-1.2-.2-1.7-.7-4.7-2-8.3-3.9-10.8-1.8-2.4-3.9-3.6-6.3-3.6-2.1 0-4.1 1.1-6.1 3.4s-3.6 5.3-4.6 8.9c-.4 1.4-.8 2.9-1 4.4 0 .3-.1.5-.1.8v.4l-.1.4c-.1.6-.1 1-.2 1.3-.2.8-.4 1.3-.7 1.7-.3.4-.8.7-1.6.8-2.1.4-3.5 1.2-4.3 2.2-.7.9-.9 2.1-.5 3.4.5 1.9 2.6 3.4 6.4 4.5 3.3 1 7.5 1.5 12.5 1.7 4.6.1 8.1 0 10.5-.4 3.6-.6 6-1.8 7-3.6 1-1.7 1-3.3.2-4.8-1-1.6-2.5-2.7-4.8-3.3zm29.4-19.4c-.4.3-.7.7-1 1.1-.5.6-1 1.4-1.6 2.4l-.4.6-.4.6c-.3.5-.6.9-.8 1.2-.3.4-.6.8-1 1.1-.5.4-.9.6-1.3.7.4-.2.8-.5 1.2-.9.3-.4.6-.7.9-1.2.2-.3.4-.7.7-1.3l.8-1.3c.7-1.1 1.2-1.9 1.7-2.4.3-.4.7-.7 1.1-1 .5-.4 1-.5 1.4-.5-.5.3-.9.5-1.3.9zM50.3 93.6c-.4.3-.7.5-1 .7-.6.4-1.2 1-1.7 1.6-.2.3-.4.6-.6 1-.1.4-.3.7-.3 1.1 0-.4 0-.8.1-1.2.1-.4.3-.8.5-1.1.4-.6.9-1.1 1.7-1.7.6-.5 1.3-.9 2-1.3l.5-.3.5-.3c.4-.2.7-.4 1-.6-.4.5-1 1-1.8 1.6l-.9.5zm-4.1-19.1c-.2.3-.4.7-.5 1.1-.1.4-.2.9-.2 1.3-.2-.4-.3-.9-.2-1.4.1-.5.2-.9.5-1.3s.7-.7 1.1-.9c.4-.2.9-.3 1.4-.2-.8.2-1.5.6-2.1 1.4zm20.5-4.6c-1 0-1.9.4-2.8 1.3-.7.7-1.5 1.6-2.3 3l-.5.8-.2.4-.2.4c-.4.6-.7 1.1-.9 1.4-.6.9-1.1 1.4-1.4 1.4-.4 0-1.1-.6-2.3-1.9l-.2-.2-.2-.2-.4-.4c-.3-.4-.6-.7-.9-1-.7-.7-1.5-1.4-2.3-2.1-1.2-1-2.4-1.4-3.7-1.4-1.1 0-2.2.4-3.1 1.2-.9.7-1.4 1.8-1.6 2.9-.2 1.2 0 2.5.8 3.7.5.9 1.3 1.8 2.3 2.8l1.3 1.3.7.6.7.6c1.1.9 1.8 1.7 2.3 2.1.7.7 1 1.4 1 1.9 0 .6-.3 1.2-1.1 1.9l-1.2.9H50l-.4.2-.7.5c-1.2.8-2.1 1.6-2.7 2.4-.9 1.1-1.3 2.2-1.4 3.5-.1.9.1 1.9.5 2.8.4.8 1 1.5 1.8 2.1 1.8 1.2 4 1.4 6.6.6 3.5-1.1 7-4.1 10.5-9 3.1-4.5 5.2-8.7 6-12.7.9-4.1 1-7.2.1-9.1-.5-1.9-1.8-2.7-3.6-2.7zm27.5 2.4c-.2.1-.5.3-.6.5-.3.4-.5.9-.6 1.5-.2.9-.2 2-.2 3.4v1.8c-.1.6-.2 1.2-.4 1.7s-.6 1-1 1.4c-.4.4-1 .7-1.5.9 1-.5 1.8-1.4 2.2-2.4.2-.5.3-1.1.3-1.6v-1.6c0-1.4.1-2.6.3-3.5.2-.7.5-1.2.8-1.6.2-.2.5-.4.8-.5.3-.1.6-.1.9-.1-.5-.1-.8 0-1 .1zm-16 .6c-.6.6-1 1.4-1.3 2.2-.2.7-.5 1.5-.7 2.5l-.3 1.3-.3 1.3c0-1.8.4-3.5.9-5.2.3-.9.8-1.7 1.4-2.3.3-.3.7-.6 1.2-.7.4-.1.9-.2 1.3-.2-.8 0-1.6.4-2.2 1.1zm16.7-2.6c-1.6.1-2.7.8-3.4 2.2-.7 1.3-.9 3.3-.8 6.1 0 1.2-.2 2.1-.8 2.7-.5.5-1.1.7-1.9.7-.8-.1-1.4-.4-1.8-1-.4-.6-.5-1.4-.4-2.4.3-2.8 0-4.9-.8-6.3-.8-1.2-2-2-3.8-2.3-1.4-.2-2.8.1-3.8 1-1.1.8-1.9 2-2.4 3.5-1 2.9-1.5 6.4-1.6 10.4 0 3.9.4 7.6 1.2 11.1.6 2.6 1.6 4.5 3 5.6 1.1.9 2.4 1.3 3.7 1.1 3-.4 4.4-2.7 4.1-6.6-.2-2.9.4-4.4 1.8-4.4.7 0 1.3.3 1.7.8.5.7.7 1.8.7 3.4-.1 2.6.3 4.6 1.3 6 .9 1.3 2.2 1.9 3.8 1.9 2.8 0 4.8-1.7 5.9-5.2.8-2.5 1.3-6.7 1.5-12.5.1-4.5-.4-8.2-1.7-11.2-1.5-3.2-3.2-4.7-5.5-4.6zM127.3 92c-.1.5-.4 1-.9 1.3-.4.3-.9.5-1.5.6-.5.1-1 .1-1.5 0 .5-.1 1-.2 1.4-.4.5-.1.9-.4 1.3-.6.4-.3.6-.7.8-1.1.2-.5.3-.9.4-1.4.2.6.2 1.1 0 1.6zm-6-.6c-.3-.6-.2-1.4.3-2.7.5-1.3 1.1-1.9 1.7-1.9.8 0 1.4.7 1.8 2 .2.5.3 1 .3 1.6 0 .5 0 .9-.2 1.2-.2.4-.9.6-2 .5-.9 0-1.6-.2-1.9-.7zm-3.2-15.3c-.7 1-1.3 2.1-1.8 3.2-.4.9-.9 2-1.5 3.4.3-1.2.7-2.4 1.1-3.5.5-1.2 1.1-2.3 1.8-3.3.8-1.2 1.6-2.1 2.5-2.8.5-.4 1.1-.7 1.6-1 .6-.2 1.2-.4 1.8-.4-1.1.1-2.2.7-3.2 1.6-.8.9-1.6 1.8-2.3 2.8zm-10.4 18.5l-.9.6c-.3.2-.5.5-.6.9-.1-.4.1-.8.4-1.2.2-.3.5-.5 1-.7.7-.4 1.5-.6 2.3-.5l-.5.2-.5.2c-.6.2-.9.4-1.2.5zm28.8-2.8c-.6-.2-1.1-.4-1.4-.8-.3-.3-.4-.7-.5-1.3-.1-.3-.1-1-.2-2.2 0-.6-.1-1-.1-1.4 0-.6-.1-1.2-.2-1.7-.7-4.7-2-8.3-3.9-10.8-1.8-2.4-3.9-3.6-6.3-3.6-2.1 0-4.1 1.1-6.1 3.4s-3.6 5.3-4.6 8.9c-.4 1.4-.8 2.9-1 4.4 0 .3-.1.5-.1.8v.4l-.1.4c-.1.6-.1 1-.2 1.3-.2.8-.4 1.3-.7 1.7-.3.4-.8.7-1.6.8-2.1.4-3.5 1.2-4.3 2.2-.7.9-.9 2.1-.5 3.4.5 1.9 2.6 3.4 6.4 4.5 3.3 1 7.5 1.5 12.5 1.7 4.6.1 8.1 0 10.5-.4 3.6-.6 6-1.8 7-3.6 1-1.7 1-3.3.2-4.8-1-1.6-2.6-2.7-4.8-3.3zm23.3 1.7c-.3.4-.7.8-1.1 1-.4.2-1 .3-1.4.2 1-.2 1.7-.6 2.2-1.4.2-.4.4-.8.5-1.2.1-.5.1-.9.1-1.4.2.5.3.9.2 1.4 0 .5-.2 1-.5 1.4zm-4.2-1.8c-.2-.4-.3-.9-.2-1.3.1-.5.3-.8.6-.9.4-.2.7-.1 1.1.1.4.2.8.6 1 1 .2.4.3.9.2 1.4-.1.4-.3.7-.6.9-.3.2-.7.2-1.1 0-.4-.4-.8-.8-1-1.2zm-2.2-19.6c-.4.2-.7.4-1 .6-.6.5-1.1 1.1-1.6 1.7-.5.6-1 1.3-1.4 1.9-.2.3-.4.6-.7 1l-.6 1c.3-.8.6-1.5 1-2.2.4-.7.8-1.4 1.3-2 .5-.6 1.1-1.2 1.8-1.7.8-.6 1.6-.8 2.3-.7-.3.1-.7.2-1.1.4zm6.2 11.4c-.8-.2-1.3-.7-1.5-1.3-.2-.5-.2-1.2 0-2.2 0-.2.1-.4.1-.7l.1-.7c.1-.6.2-1.1.3-1.4.2-1.2.2-2.3.1-3.2-.2-1.3-.7-2.4-1.5-3.1-.8-.8-1.8-1.1-3-1-1.3.1-2.5.8-3.8 1.9-1.4 1.3-2.7 3.2-3.9 5.7-1.2 2.6-2 5.3-2.3 8.4-.4 3.1-.2 6 .5 8.5.8 2.8 2.1 5.1 3.9 6.6 2.1 1.8 4.7 2.6 7.9 2.6 3 0 5.5-.9 7.5-2.7 1.8-1.6 2.9-3.7 3.3-6.1.4-2.4-.1-4.7-1.3-6.8-1.5-2-3.6-3.6-6.4-4.5z"/>
					</g>
					<g id="Group_60" transform="translate(1738.78 69.428)">
						<path id="Subtraction_6" class="st1" d="M-1540.1 34.8c-1.5 0-2.7-1.2-2.7-2.7 0-1.5 1.2-2.7 2.7-2.7 1.5 0 2.7 1.2 2.7 2.7 0 1.1-.7 2.1-1.7 2.5-.3.2-.6.2-1 .2zm-21.4 0c-1.5 0-2.7-1.2-2.7-2.7 0-1.5 1.2-2.7 2.7-2.7 1.5 0 2.7 1.2 2.7 2.7 0 1.1-.7 2.1-1.7 2.5-.2.2-.6.2-1 .2zm10.8-2.2c-1 0-2-.1-2.9-.4-2-.4-3.8-1.3-5.4-2.6-1.6-1.3-2.9-3-3.8-4.8-.7-1.4-1.3-2.9-1.6-4.5-.3-1.6-.5-3.2-.4-4.8h12.2c.1.7.4 1.4.9 1.9.9 1 2.5 1 3.5.1l.1-.1c.5-.5.8-1.2.9-1.9V15c0-1.7-1.2-3.2-2.7-3.2-1.2.1-2.3.9-2.6 2.1l-11.7-2.5c.4-1.8 1.1-3.4 2.1-5 .9-1.4 2.1-2.7 3.4-3.8 1.2-.9 2.6-1.6 4-2.1 1.5-.5 3-.7 4.5-.7h.1c1.5 0 3 .2 4.5.5 2.1.4 4.1 1.3 5.9 2.6 1.6 1.2 2.8 2.9 3.6 4.8.7 1.7 1.1 3.6 1.1 5.5 0 2.1-.3 4.2-1 6.2-.6 2-1.5 3.9-2.7 5.7-1.1 1.7-2.5 3.1-4 4.4-1.2 1-2.5 1.7-3.9 2.3-1.3.6-2.7.8-4.1.8zm5.4-16.4c-.1.9-.5 1.7-1 2.4-.6.7-1.4 1.2-2.3 1.5h.2c.5 0 .9-.1 1.3-.3.5-.2.9-.5 1.2-.9.6-.8.8-1.8.6-2.7zm-4.2-14.9c-1 0-1.9.1-2.9.3-.9.1-1.7.4-2.6.6-.9.3-1.8.8-2.7 1.6-.8.7-1.5 1.5-2.2 2.3l-1.5 2.1c-.4.6-.5.9-.5.9.6-.8 1.2-1.6 1.9-2.4.7-.7 1.4-1.5 2.3-2.3.7-.6 1.5-1.1 2.1-1.4.7-.3 1.4-.6 2.1-.8 1.2-.3 2.4-.4 3.6-.4.7 0 1.5.1 2.2.2.6.1 1.2.2 1.8.4 2 .6 4.5 2.3 5.9 3.1.5.4.9.6 1 .6 0-.1-.6-.6-1.7-1.6-.7-.6-1.4-1.1-2.2-1.5-.7-.4-1.5-.7-2.2-1-.7-.2-1.5-.4-2.2-.6-.7 0-1.4-.1-2.2-.1z"/>
						<path id="Rectangle_8" class="st1" d="M-1568 13.1l6.1 3.8c.5.3.7 1 .4 1.5-.3.5-1 .7-1.5.4l-6.1-3.8c-.5-.3-.7-1-.4-1.5.3-.6 1-.7 1.5-.4z"/>
					</g>
				</g>
			</g>
		</g>
	</symbol>
	<symbol id="nav_dundio_logo_en" viewBox="0 0 200 50">
		<style>.st1{fill:#9a6aab}</style>
		<g id="Group_56" transform="translate(-760.019 -1296.581)">
			<g id="Group_15" transform="translate(758 1278)">
				<path id="Path_255" d="M6.1 60.3c.9 0 1.4.3 1.4.9 0 .6-.5.8-1.4.8H4.4v1.4h1.4c.9 0 1.4.3 1.4.9s-.5.9-1.4.9H4.4v1.5h1.7c.9 0 1.4.3 1.4.9 0 .6-.5.9-1.4.9H3.8c-.4 0-.7 0-1.1-.2-.2-.3-.3-.6-.3-.9v-5.7c0-.4.1-.7.3-1 .3-.2.7-.3 1.1-.3l2.3-.1zm1.6.8c0-.3.1-.5.3-.7.2-.2.4-.3.7-.3.4 0 .7.3 1 .8l1.8 4.6 1.7-4.5c.2-.6.6-.9 1-.9.4-.1.9.2.9.6v.2c0 .2 0 .4-.1.6l-2.6 6.1c-.1.4-.5.7-1 .8-.4 0-.8-.3-1-.7l-2.7-6.2c.1 0 0-.2 0-.4zm11.7-.8c.9 0 1.4.3 1.4.9 0 .6-.5.9-1.4.9h-1.6v1.4h1.4c.9 0 1.4.3 1.4.9s-.5.9-1.4.9h-1.4v1.5h1.7c.9 0 1.4.3 1.4.9 0 .6-.5.9-1.4.9h-2.3c-.4 0-.7 0-1.1-.2-.2-.3-.3-.6-.3-.9v-5.7c0-.4.1-.7.3-1 .3-.2.7-.3 1.1-.3l2.2-.2zM24 64h.9c.8 0 1.3-.3 1.3-1 0-.6-.4-1-1.3-1h-1l.1 2zm0 1.2v2c0 .9-.3 1.3-1 1.3s-1-.4-1-1.3v-5.6c0-.4.1-.7.3-1 .3-.2.7-.3 1.1-.3h1.5c.8 0 1.6.2 2.3.6.7.4 1.1 1.2 1 2 0 .5-.2 1.1-.6 1.5-.4.4-1 .6-1.5.7l1.6 1.6c.3.3.5.6.6 1.1 0 .2-.1.5-.3.6-.2.2-.4.3-.7.2-.3 0-.7-.2-1.1-.7L24 65.2zm10.4-5c.2 0 .5.1.6.3.2.1.3.4.3.6-.1.3-.2.7-.5.9l-2 2.7v2.6c0 .9-.3 1.3-1 1.3s-1-.4-1-1.3v-2.6l-2-2.7c-.2-.3-.4-.6-.4-.9 0-.2.1-.4.3-.6.2-.2.4-.2.7-.2.3 0 .7.2 1 .7l1.5 2 1.5-2c.2-.6.6-.8 1-.8zm2.4 1.8c-.4 0-.9 0-1.3-.1-.5-.1-.8-.4-.8-.8 0-.6.5-.9 1.4-.9h3.5c.9 0 1.4.3 1.4.9 0 .4-.3.7-.8.8-.4 0-.9.1-1.3.1v5.2c0 .9-.3 1.3-1 1.3s-1-.4-1-1.3l-.1-5.2zm6.7 3.2v2.1c0 .9-.3 1.3-1 1.3s-1-.4-1-1.3v-5.7c0-.9.3-1.3 1-1.3s1 .4 1 1.3v1.9h3.7v-1.9c0-.9.3-1.3 1-1.3s1 .4 1 1.3v5.7c0 .9-.3 1.3-1 1.3s-1-.4-1-1.3v-2.1h-3.7zm9.3 2c0 .9-.3 1.3-1 1.3s-1-.4-1-1.3v-5.7c0-.9.3-1.3 1-1.3s1 .4 1 1.3v5.7zm2.6 1.3c-.7 0-1-.4-1-1.3v-5.8c0-.8.3-1.3.9-1.3.4 0 .8.3 1.1.6l3.7 4.5v-3.8c0-.9.3-1.3 1-1.3s1 .4 1 1.3v5.9c0 .8-.3 1.1-.9 1.1-.5 0-.9-.3-1.1-.7l-3.6-4.4v3.8c-.1 1-.5 1.4-1.1 1.4zm13-4.9h1.4c.4 0 .7.1 1 .3.2.3.4.6.3.9 0 1-.3 2-1.1 2.7-.8.7-1.8 1.1-2.9 1-1.2 0-2.3-.4-3-1.2-.7-.8-1.1-1.9-1.1-2.9-.1-1.1.4-2.2 1.1-3 .8-.8 2-1.2 3.2-1.1.5 0 1.1.1 1.6.2s1 .4 1.3.8c.1.2.2.4.2.6 0 .2-.1.4-.2.6-.1.2-.4.3-.6.3-.3-.1-.7-.2-1-.4-.4-.2-.9-.4-1.4-.4-.6 0-1.3.3-1.6.7-.4.5-.5 1.1-.5 1.7 0 .6.1 1.2.5 1.7s1 .8 1.6.8c.5 0 .9-.1 1.3-.4.3-.3.5-.7.5-1.1-.4 0-.9 0-1.3-.1-.5-.1-.8-.4-.8-.8.2-.6.6-.9 1.5-.9zM80 60.3c.9 0 1.4.3 1.4.9 0 .6-.5.9-1.4.9h-1.6v1.4h1.4c.9 0 1.4.3 1.4.9s-.5.9-1.4.9h-1.4v2c0 .9-.3 1.3-1 1.3s-1-.4-1-1.3v-5.6c0-.4.1-.7.3-1 .3-.2.7-.3 1.1-.3l2.2-.1zm1.9 4.1c-.1-1.1.3-2.2 1.1-3 .8-.8 1.9-1.3 3.1-1.2 1.2 0 2.3.4 3.1 1.2.8.8 1.2 1.9 1.1 3 .1 1.1-.3 2.2-1.1 3-.8.8-1.9 1.2-3.1 1.2-1.2 0-2.3-.4-3.1-1.2-.7-.9-1.1-1.9-1.1-3zm2.1 0c0 .6.1 1.2.5 1.7.3.5 1 .8 1.6.8.6 0 1.2-.3 1.6-.8.3-.5.5-1.1.5-1.7 0-.6-.1-1.2-.5-1.7-.3-.5-1-.8-1.6-.8-.6 0-1.3.3-1.6.8-.3.5-.5 1.1-.5 1.7zm9.5-.4h.9c.8 0 1.3-.3 1.3-1 0-.6-.4-1-1.3-1h-1l.1 2zm0 1.2v2c0 .9-.3 1.3-1 1.3s-1-.4-1-1.3v-5.6c0-.4.1-.7.3-1 .3-.2.7-.3 1.1-.3h1.5c.8 0 1.6.2 2.3.6.7.4 1.1 1.2 1 2 0 .5-.2 1.1-.6 1.5-.4.4-1 .6-1.5.7l1.6 1.6c.3.3.5.6.6 1.1 0 .2-.1.5-.3.6-.2.2-.4.3-.7.2-.3 0-.7-.2-1.1-.7l-2.2-2.7zm14 .7l1.2-4.6c.1-.3.3-.6.5-.8.3-.2.6-.3.9-.3.4 0 .8.1 1 .4.3.2.5.6.5.9l1 5.6c0 .2.1.4.1.6 0 .6-.3.9-.9.9-.3 0-.6-.1-.8-.4-.1-.3-.2-.5-.3-.8l-.8-4.5-1.1 4.1c-.1.3-.2.6-.4.9-.2.3-.6.4-1 .4s-.7-.1-1-.4c-.2-.3-.3-.6-.4-.9l-1.1-4.1-.7 4.5c0 .3-.1.6-.3.8-.2.2-.5.4-.8.4-.6 0-.9-.3-.9-.9 0-.2 0-.4.1-.6l1-5.5c.1-.3.2-.7.5-.9.3-.2.6-.4 1-.4.3 0 .7.1.9.3.3.2.4.5.5.8l1.3 4.5zm9.3-5.7c.7 0 1.2.4 1.5 1.1l2.2 5.8c.1.2.1.4.1.6 0 .2-.1.5-.3.6-.2.2-.4.2-.7.2-.5 0-.9-.3-1.1-.9l-.3-1h-3.1l-.4 1c-.2.5-.5.8-1 .8-.3 0-.5-.1-.7-.2-.2-.2-.3-.4-.3-.6 0-.2 0-.4.1-.5l2.3-5.7c.5-.8 1-1.2 1.7-1.2zm-.1 2l-1 2.9h2l-1-2.9zm9.3 3.7l1.2-4.6c.1-.3.3-.6.5-.8.3-.2.6-.3.9-.3.4 0 .8.1 1 .4.3.2.5.6.5.9l1 5.5c0 .2.1.4.1.6 0 .6-.3.9-.9.9-.3 0-.6-.1-.8-.4-.1-.3-.2-.5-.3-.8l-.8-4.5-1.1 4.1c-.1.3-.2.6-.4.9-.2.3-.6.4-1 .4s-.7-.1-1-.4c-.2-.3-.3-.6-.4-.9l-1.1-4.1-.7 4.5c0 .3-.1.6-.3.8-.2.2-.5.4-.8.4-.6 0-.9-.3-.9-.9 0-.2 0-.4.1-.6l1-5.5c.1-.3.2-.7.5-.9.3-.2.6-.4 1-.4.3 0 .7.1.9.3.3.2.4.5.5.8l1.3 4.6zm9.3-5.7c.7 0 1.2.4 1.5 1.1l2.2 5.8c.1.2.1.4.1.6 0 .2-.1.5-.3.6-.2.2-.4.2-.7.2-.5 0-.9-.3-1.1-.9l-.3-1h-3.1l-.4 1c-.2.5-.5.8-1 .8-.3 0-.5-.1-.7-.2-.2-.2-.3-.4-.3-.6 0-.2 0-.4.1-.5l2.3-5.7c.5-.8 1-1.2 1.7-1.2zm-.1 2l-1 2.9h2l-1-2.9zm11.9-2c.7 0 1.2.4 1.5 1.1l2.2 5.8c.1.2.1.4.1.6 0 .2-.1.5-.3.6-.2.2-.4.2-.7.2-.5 0-.9-.3-1.1-.9l-.3-1h-3.1l-.4 1c-.2.5-.5.8-1 .8-.3 0-.5-.1-.7-.2-.2-.2-.3-.4-.3-.6 0-.2 0-.4.1-.5l2.3-5.7c.5-.8 1-1.2 1.7-1.2zm-.1 2l-1 2.9h2l-1-2.9zm5.6 6.3c-.7 0-1-.4-1-1.3v-5.8c0-.8.3-1.3.9-1.3.4 0 .8.3 1.1.6l3.7 4.5v-3.8c0-.9.3-1.3 1-1.3s1 .4 1 1.3v5.9c0 .8-.3 1.1-.9 1.1-.5 0-.9-.3-1.1-.7l-3.6-4.4v3.8c-.1 1-.4 1.4-1.1 1.4zm11.2-8.2c.9 0 1.8.2 2.6.6.6.4 1.1.9 1.4 1.5.3.6.5 1.3.5 1.9.1 1.1-.3 2.2-1.1 3-.8.8-2 1.2-3.2 1.2h-1.8c-.4 0-.7 0-1.1-.2-.2-.3-.3-.6-.3-.9v-5.7c0-.4.1-.7.3-1 .3-.2.7-.3 1.1-.3l1.6-.1zm-.9 6.4h.9c1.6 0 2.4-.8 2.4-2.5 0-1.5-.8-2.2-2.4-2.2h-.9v4.7zm12 1.7c-.4 0-.7 0-1.1-.2-.2-.3-.3-.6-.3-.9v-5.7c0-.4.1-.7.3-1 .3-.2.7-.3 1.1-.3h1.6c.7 0 1.4.1 2 .5.6.3 1 .9 1 1.6 0 .9-.3 1.5-1 1.8.4.1.8.3 1.1.6.2.3.4.8.3 1.2 0 .7-.3 1.4-.9 1.9-.6.4-1.4.6-2.2.6l-1.9-.1zm.6-3.5v1.9h1c.3 0 .6 0 1-.2.3-.2.4-.5.4-.8.1-.3-.1-.7-.4-.8-.3-.1-.7-.2-1-.2l-1 .1zm0-3v1.6h.9c.3 0 .6 0 .8-.1.2-.1.4-.4.3-.7 0-.5-.4-.8-1.2-.8h-.8zm8.7-1.7c.7 0 1.2.4 1.5 1.1l2.2 5.8c.1.2.1.4.1.6 0 .2-.1.5-.3.6-.2.2-.4.2-.7.2-.5 0-.9-.3-1.1-.9l-.3-1h-3.1l-.4 1c-.2.5-.5.8-1 .8-.3 0-.5-.1-.7-.2-.2-.2-.3-.4-.3-.6 0-.2 0-.4.1-.5l2.3-5.7c.5-.8 1-1.2 1.7-1.2zm0 2l-1 2.9h2l-1-2.9zm6 6.2c-.4 0-.7 0-1.1-.2-.2-.3-.3-.6-.3-.9v-5.7c0-.4.1-.7.3-1 .3-.2.7-.3 1.1-.3h1.6c.7 0 1.4.1 2 .5.6.3 1 .9 1 1.6 0 .9-.3 1.5-1 1.8.4.1.8.3 1.1.6.2.3.4.8.3 1.2 0 .7-.3 1.4-.9 1.9-.6.4-1.4.6-2.2.6l-1.9-.1zm.6-3.5v1.9h1c.3 0 .6 0 1-.2.3-.2.4-.5.4-.8.1-.3-.1-.7-.4-.8-.3-.1-.7-.2-1-.2l-1 .1zm0-3v1.6h.9c.3 0 .6 0 .8-.1.2-.1.4-.4.3-.7 0-.5-.4-.8-1.2-.8h-.8zm10.2-1.7c.2 0 .5.1.6.3.2.1.3.4.3.6-.1.3-.2.7-.5.9l-2 2.7v2.6c0 .9-.3 1.3-1 1.3s-1-.4-1-1.3v-2.6l-2-2.7c-.2-.3-.4-.6-.4-.9 0-.2.1-.4.3-.6.2-.2.4-.2.7-.2.3 0 .7.2 1 .7l1.5 2 1.5-2c.3-.6.6-.8 1-.8z" fill="#98d6f5"/>
				<g id="Group_12" transform="translate(.767)">
					<path id="Path_256" class="st1" d="M19.7 42.6c-.2.5-.5 1-.9 1.4-.4.4-.9.7-1.5.9-.5.2-1.1.2-1.7.1 1.1-.2 2-.6 2.8-1.3.7-.7 1.2-1.6 1.3-2.6.2.5.2 1 0 1.5zm-4.7.2c-.5-.3-.8-1.1-.7-2.4 0-1.3.2-2.1.6-2.3.5-.2 1.1.1 1.7.8.6.6 1 1.4 1 2.2.1.6-.3 1.2-.9 1.6-.5.3-1.2.4-1.7.1zm-6.3-21c-.4.3-.8.7-1.1 1.2-.6.9-1.1 1.9-1.5 2.9-.3.7-.6 1.7-1 3-.2.6-.4 1.1-.4 1.6l-.2.8-.3.7c.1-1.1.3-2.1.5-3.2.3-1.1.6-2.1 1-3.2.4-1 .9-2 1.6-2.9.4-.4.8-.8 1.3-1.1.3-.1.6-.2.9-.2h.9-.4l-.4.1c-.4 0-.7.2-.9.3zm-.2-2.2c-1.9.5-3.5 2.5-4.8 6-1.2 3.2-1.9 7-2.2 11.4-.4 4.4-.2 8.3.5 11.7.8 3.7 2 6.1 3.7 7 1.8 1 4 1.4 6.7 1.2 2.7-.2 5.3-.8 7.7-1.9 2.5-1 4.8-2.5 6.7-4.3 2-1.9 3.3-3.8 3.8-5.9 1-3.5.7-7.3-.7-10.7-1.3-3.2-3.4-6.1-6.1-8.4-2.4-2.2-5.2-4-8.2-5.2-2.8-1.1-5.2-1.4-7.1-.9zm48.4 3.2c-.3.3-.5.6-.6.9-.2.7-.4 1.5-.5 2.3-.1.5-.2 1.3-.3 2.3l-.1 1.2-.1 1.2c-.2-1.6-.2-3.2 0-4.8.1-.8.3-1.6.7-2.3.2-.4.5-.7.8-1 .4-.2.9-.2 1.3-.2h-.6c-.3.2-.5.3-.6.4zm-3.6 20.5c-.4.3-.9.5-1.4.6-.5.1-1 .1-1.4 0 .5-.1.9-.2 1.3-.4s.8-.4 1.1-.6c.3-.3.7-.5.9-.9.1-.2.3-.3.4-.5l.4-.6c0 1-.5 1.8-1.3 2.4zM42.1 22c-.4.3-.8.7-1.2 1.2-.7.9-1.2 1.9-1.7 2.9-.4.8-.8 1.8-1.2 3.1-.1.5-.3 1-.5 1.6l-.5 1.6c.1-1.1.3-2.2.6-3.3.3-1.1.7-2.2 1.1-3.2.5-1 1.1-2 1.9-2.9.4-.4.9-.8 1.4-1.2.5-.3 1.1-.5 1.8-.4-.7 0-1.3.2-1.7.6zm16-1.6c-2.1 0-3.5.9-4.2 2.9-.8 2.2-1.1 6.1-.7 11.8.3 4.5-.6 6.7-2.5 6.7-1.1 0-1.9-.9-2.2-2.6-.3-1.6-.3-3.6.1-6 .9-5.2.8-8.9-.3-11.2-.8-1.7-2.3-2.6-4.4-2.8-1.8-.1-3.4.7-4.9 2.6-1.4 1.7-2.5 4-3.4 6.9-.8 3-1.3 6.1-1.3 9.1-.1 3.1.4 6.1 1.3 9.1 1 3.2 3.2 5.9 6.2 7.6 2.8 1.6 6.1 2.4 9.4 2.3 3.3 0 6.4-1 9.1-2.7 2.7-1.7 4.7-4.4 5.4-7.4C67.1 41 67 35 65.2 29.3c-.8-2.7-1.8-4.8-3-6.3-1.3-1.7-2.6-2.5-4.1-2.6zm37.3 2.4c-.3.3-.5.6-.6 1-.1.4-.3.8-.3 1.2l-.1.6-.2.6c-.1-.4-.1-.9-.1-1.3s.1-.9.2-1.3.4-.8.8-1.1c.4-.3.9-.3 1.4-.2-.4 0-.8.2-1.1.5zm-.5 12.9c-.3.5-.7.9-1.2 1.2-.5.3-1.1.4-1.7.3.5-.1 1-.3 1.4-.6.4-.3.7-.6 1-1 .2-.4.3-.9.4-1.4l.1-1.5c.2.5.3 1 .3 1.5 0 .4-.1 1-.3 1.5zM76.7 22.2c-.6.4-1.1 1-1.4 1.6-.3.6-.6 1.3-.9 1.9-.2.6-.5 1.3-.7 2-.3 1-.7 2.4-1 4.1-.1.6-.2 1.3-.4 2.1L72 36c0-1.4.1-2.8.3-4.3.2-1.4.5-2.8.9-4.2.4-1.4 1-2.7 1.8-4 .4-.6 1-1.2 1.6-1.6.7-.4 1.4-.6 2.2-.6-.7.1-1.5.4-2.1.9zm20.8-1.9c-2-.2-3.4.3-4.3 1.5-1.1 1.6-1.4 4.3-.8 8.1.3 2.1.5 3.5.4 4 0 .7-.3 1-.8 1-.3 0-.5-.2-.8-.7-.3-.6-.6-1.3-.8-2l-.2-.2-.1-.3-.3-.7c-.2-.6-.4-1-.6-1.5-.5-1.2-1-2.2-1.4-3-1.5-2.7-3.3-4.7-5.2-5.9-2.4-1.5-4.7-1.6-7-.3-1.8 1-3.3 3.6-4.4 7.6-1.1 4.1-1.6 8.2-1.5 12.4 0 4.7.5 8.5 1.6 11.6 1.2 3.4 2.9 5.1 5.1 5.2 3.4 0 5-2.1 4.9-6.4 0-.7-.1-1.5-.2-2.4 0-.3-.1-.7-.1-1.1l-.1-.5-.1-.5c-.2-1.4-.1-2.1.1-2.2.2-.1.4 0 .6.2.2.4.4.7.6 1.1s.3.7.5 1c.2.5.5.9.8 1.4.7 1.2 1.6 2.6 2.6 4 1.1 1.6 2.5 2.9 4.2 3.9 1.6.9 3.4 1.3 5.3 1.2 6.1-.8 9.3-6.2 9.6-16.2.2-5.5-.4-10.1-1.8-13.9-1.5-4-3.4-6.1-5.8-6.4zm28.7 22.3c-.2.5-.5 1-.9 1.4-.4.4-.9.7-1.5.9-.5.2-1.1.2-1.7.1 1.1-.2 2-.6 2.8-1.3.7-.7 1.2-1.6 1.3-2.6.2.5.1 1 0 1.5zm-4.8.2c-.5-.3-.8-1.1-.7-2.4 0-1.3.2-2.1.6-2.3.5-.2 1.1.1 1.7.8.6.6 1 1.4 1 2.2.1.6-.3 1.2-.9 1.6-.5.3-1.1.4-1.7.1zm-6.3-21c-.4.3-.8.7-1.1 1.2-.6.9-1.1 1.9-1.5 2.9-.3.7-.6 1.7-1 3-.2.6-.4 1.1-.4 1.6l-.2.8-.2.8c.1-1.1.3-2.1.5-3.2.3-1.1.6-2.1 1-3.2.4-1 .9-2 1.6-2.9.4-.4.8-.8 1.3-1.1.3-.1.6-.2.9-.2h.9-.4l-.4.1c-.5 0-.7.1-1 .2zm-.2-2.2c-1.9.5-3.5 2.5-4.8 6-1.2 3.2-1.9 7-2.2 11.4-.3 4.4-.1 8.3.6 11.7.8 3.7 2 6.1 3.7 7 1.8 1 4 1.4 6.7 1.2 2.7-.2 5.3-.8 7.7-1.9 2.5-1 4.8-2.5 6.7-4.3 2-1.9 3.3-3.8 3.8-5.9 1-3.5.7-7.3-.7-10.7-1.3-3.2-3.4-6.1-6-8.4-2.4-2.2-5.2-4-8.2-5.2-2.9-1.1-5.4-1.4-7.3-.9zm29.3 2.8c-.3.3-.6.6-.7 1-.2.4-.3.8-.3 1.3 0 .9 0 1.8.2 2.7l.3 1.3.3 1.3c-.4-.8-.7-1.7-1-2.6-.3-.9-.4-1.8-.4-2.8 0-.5.1-1 .3-1.4.2-.5.5-.9.9-1.2.8-.6 1.9-.8 2.9-.7-.8.1-1.8.5-2.5 1.1zm10.2 1.5c-.7-1.4-1.8-2.5-3.2-3.4-1.1-.7-2.5-1.1-3.8-1.2-1.2-.1-2.5.1-3.6.6-1 .4-1.9 1.2-2.4 2.1-.9 1.7-.9 4.2.1 7.5.1.5.4 1.2.7 2.1l.3 1 .3 1c.5 1.3.8 2.7 1 4.1.3 2.7.5 5.4.4 8.1 0 .9-.1 1.9-.1 3.2l-.1.7v.7c0 .5 0 .9-.1 1.2-.1 1.7.1 2.9.3 3.6.3.9 1.2 1.5 2.2 1.7 2.1.5 4-.6 5.7-3.1 1.5-2.3 2.7-5.4 3.5-9.4.8-3.7 1.1-7.6.8-11.4 0-4-.7-7-2-9.1z"/>
					<g id="Group_60" transform="translate(412.465 18.581)">
						<path id="Subtraction_6" class="st1" d="M-217.5 40c-1.9 0-3.4-1.4-3.4-3.1s1.5-3.1 3.4-3.1 3.4 1.4 3.4 3.1c0 1.7-1.5 3.1-3.4 3.1zm-26.3 0c-1.9 0-3.4-1.4-3.4-3.1 0-1.7 1.5-3.1 3.4-3.1s3.4 1.4 3.4 3.1c-.1 1.7-1.6 3.1-3.4 3.1zm13.2-2.5c-1.2 0-2.4-.1-3.6-.4-2.4-.5-4.7-1.5-6.7-3s-3.6-3.4-4.7-5.5c-.9-1.6-1.6-3.4-2-5.1-.4-1.8-.6-3.6-.5-5.5h15c.1.8.5 1.6 1.1 2.2 1.1 1.1 3.1 1.2 4.3.1.1 0 .1-.1.1-.1.6-.6 1-1.4 1.1-2.2v-.5c0-2-1.5-3.6-3.4-3.6-1.5.1-2.8 1-3.2 2.4l-14.5-2.9c.5-2 1.4-3.9 2.5-5.7 1.1-1.7 2.6-3.1 4.3-4.3 1.5-1.1 3.2-1.9 5-2.4 1.8-.5 3.7-.8 5.6-.8h.1c1.9 0 3.7.2 5.6.6 2.6.5 5.1 1.5 7.3 3 2 1.4 3.5 3.3 4.4 5.5.9 2 1.3 4.1 1.4 6.3 0 2.4-.4 4.8-1.2 7.1-.8 2.3-1.9 4.5-3.3 6.5-1.4 1.9-3 3.6-5 5-1.5 1.1-3.1 2-4.8 2.6-1.5.4-3.2.7-4.9.7zm6.7-18.9c-.2 1-.6 1.9-1.3 2.7-.7.8-1.7 1.4-2.8 1.7h.2c.6 0 1.1-.1 1.6-.4.6-.2 1.1-.6 1.5-1 .8-.8 1.1-1.9.8-3zm-6.9-15.8c3.2 0 5.9.4 7.9 1.3 1.6.7 3 1.6 4.4 2.6 1.4 1 2.5 2 3.2 2.6.2.2.5.4.8.6 0 0-.5-.7-1.8-2.2l-.6-.7c-3.5-4-8.5-4.9-12.2-4.9-1.6 0-3.1.1-4.6.5l-3.1.6c2-.2 4-.3 6-.4z"/>
						<path id="Rectangle_8" class="st1" d="M-251.9 15l7.5 4.3c.6.4.8 1.1.4 1.7-.4.6-1.2.8-1.9.4l-7.5-4.3c-.6-.4-.8-1.1-.4-1.7.4-.5 1.2-.7 1.9-.4z"/>
					</g>
				</g>
			</g>
		</g>
	</symbol>
	<symbol id="photo" viewBox="-31 159.4 548.2 475.1">
		<path d="M495.8 253.9c-14.3-14.3-31.5-21.4-51.7-21.4h-64l-14.6-38.8c-3.6-9.3-10.2-17.4-19.8-24.1-9.6-6.8-19.5-10.1-29.6-10.1H170c-10.1 0-19.9 3.4-29.6 10.1-9.6 6.8-16.2 14.8-19.8 24.1L106 232.5H42c-20.2 0-37.4 7.1-51.7 21.4-14.2 14.3-21.3 31.5-21.3 51.7v255.8c0 20.2 7.1 37.4 21.4 51.7 14.3 14.3 31.5 21.4 51.7 21.4h402c20.2 0 37.4-7.1 51.7-21.4 14.3-14.3 21.4-31.5 21.4-51.7V305.6c0-20.2-7.2-37.4-21.4-51.7zM333.4 523.8c-25 25-55.1 37.5-90.4 37.5-35.2 0-65.3-12.5-90.4-37.5-25-25-37.5-55.2-37.5-90.4s12.5-65.3 37.5-90.4c25-25 55.1-37.5 90.4-37.5 35.2 0 65.3 12.5 90.4 37.5 25 25 37.5 55.1 37.5 90.4.1 35.3-12.4 65.4-37.5 90.4zm-90.3-172.6c-22.7 0-42 8-58.1 24.1s-24.1 35.4-24.1 58.1c0 22.6 8 42 24.1 58.1s35.4 24.1 58.1 24.1c22.6 0 42-8 58.1-24.1s24.1-35.4 24.1-58.1c0-22.7-8-42-24.1-58.1-16.1-16-35.5-24.1-58.1-24.1z"/>
	</symbol>
	<symbol id="video" viewBox="584.6 348.6 138.7 96.8">
		<path d="M705.1 348.6H602.8c-10.1 0-18.2 8.1-18.2 18.2V427c0 10.2 8.1 18.3 18.2 18.3h102.3c10.1 0 18.2-8.1 18.2-18.2v-60.3c0-10-8.1-18.2-18.2-18.2zM643 421.5v-49l32.3 24.5-32.3 24.5zm0 0"/>
	</symbol>
	<symbol id="download-icon" viewBox="0 0 50 50">
		<path d="M15.6 18.5c-1-1-.8-1.7.6-1.7h5.9V4c0-2.2 1.8-4 4-4s4 1.8 4 4v12.8H36c1.5 0 1.7.7.6 1.7L26.1 29.1 15.6 18.5zM49 25.8h-6c-.6 0-1 .4-1 1v17.9H10.8V26.8c0-.6-.4-1-1-1h-6c-.6 0-1 .4-1 1v20.5c0 3 2.5 5.5 5.5 5.5h36.2c3 0 5.5-2.5 5.5-5.5V26.8c0-.6-.4-1-1-1z"/>
	</symbol>
	<symbol id="address-icon" viewBox="0 0 20 20">
		<path d="M17.1 11.1c0 .1 0 .1 0 0v6c0 .2-.1.4-.2.6-.2.2-.3.2-.6.2h-4.8v-4.8H8.4V18H3.6c-.2 0-.4-.1-.6-.2-.2-.2-.2-.3-.2-.6v-6L10 5.3l7.1 5.8zm2.8-1.3l-2.7-2.3v-5c0-.1 0-.2-.1-.3-.1-.1-.2-.1-.3-.1h-2.4c-.1 0-.2 0-.3.1-.1.1-.1.2-.1.3v2.4l-3-2.5c-.3-.3-.6-.4-1-.4s-.7.1-.9.4l-9 7.4c0 .1-.1.2-.1.3 0 .1 0 .2.1.3l.8.9c.1.1.2.1.3.1.1 0 .2 0 .3-.1L10 4.2l8.6 7.2c.1.1.2.1.3.1.1 0 .2-.1.3-.1l.8-.9c.1-.1.1-.2.1-.3-.1-.2-.2-.3-.2-.4z"/>
	</symbol>
	<symbol id="clock-icon" viewBox="0 0 20 20">
		<path d="M18.3 9.6H20C19.8 4.4 15.6.2 10.4 0v1.7h-.8V0C4.4.2.2 4.4 0 9.6h1.7v.8H0c.2 5.2 4.4 9.4 9.6 9.6v-1.7h.8V20c5.2-.2 9.4-4.4 9.6-9.6h-1.7v-.8zm-4.2.8H9.6V3.6h.8v6h3.7v.8z"/>
	</symbol>
	<symbol id="phone-icon" viewBox="0 0 20 20">
		<path d="M20 15.5c-.1-.2-.4-.4-1.1-.8l-.8-.4c-.3-.2-.6-.3-.9-.5-.3-.2-.5-.3-.8-.4l-.4-.2c-.2-.1-.4-.2-.5-.3-.1-.1-.3-.1-.4-.1-.2 0-.4.1-.7.4-.3.3-.5.6-.8.9-.2.3-.5.6-.8.9-.3.3-.5.4-.7.4-.1 0-.2 0-.3-.1-.1 0-.2-.1-.3-.1-.1 0-.2-.1-.3-.2-.2-.1-.3-.2-.3-.2-1.3-.7-2.4-1.5-3.3-2.5-.9-.9-1.8-2-2.5-3.3 0 0-.1-.1-.2-.3.1-.2 0-.3 0-.4 0-.1-.1-.2-.1-.3 0-.1-.1-.2-.1-.3 0-.2.1-.4.4-.7.3-.2.6-.5.9-.7.3-.2.6-.5.9-.8.2-.3.4-.5.4-.7 0-.1 0-.3-.1-.4-.1-.1-.2-.3-.3-.5l-.3-.3c-.1-.3-.3-.5-.4-.8-.2-.3-.3-.6-.5-.9-.2-.3-.3-.6-.4-.8-.4-.6-.6-1-.8-1.1h-.3c-.3 0-.6 0-1 .1s-.7.2-1 .3c-.5.2-1 .8-1.5 1.7-.5 1-.7 1.8-.7 2.7v.7c0 .2.1.5.2.8.1.3.2.5.2.7.1.1.1.4.3.8.2.4.3.7.3.7.3.9.7 1.8 1.2 2.5.7 1.2 1.8 2.5 3.1 3.8 1.3 1.3 2.5 2.3 3.8 3.1.7.5 1.6.8 2.5 1.2.1 0 .3.1.7.3.4.1.6.2.8.3.1.1.4.1.7.2.3.1.6.1.8.2h.7c.9 0 1.8-.2 2.6-.7 1-.5 1.5-1 1.7-1.5.1-.2.2-.6.3-1 .1-.4.1-.7.1-1v-.4z"/>
	</symbol>
	<symbol id="close-icon" viewBox="0 0 20 20">
		<path d="M18.9 0L20 1.1 11.1 10l8.9 8.9-1.1 1.1-8.9-8.9L1.1 20 0 18.9 8.9 10 0 1.1 1.1 0 10 8.9 18.9 0z"/>
	</symbol>
	<symbol id="2dialog-icon" viewBox="0 0 50 50">
		<path d="M48.8 50c-.5 0-.9-.3-1.1-.7l-2.9-7.2c-1.5-3.6-3.2-5.5-5.6-5.9l-.5 2.8.8 7.5c0 .4-.1.8-.4 1L37.2 49c-.2.2-.5.3-.7.3h-.7c-.3 0-.5-.1-.7-.3l-1.9-1.5c-.3-.2-.5-.6-.4-1l.8-7.5-.6-2.8c-2.4.4-4.1 2.3-5.6 5.9l-2.9 7.2c-.2.6-.9.9-1.5.6-.6-.2-.9-.9-.6-1.5l2.9-7.2c1.3-3.1 3.5-7.2 8.5-7.4h4.6c5 .2 7.2 4.3 8.5 7.4l2.9 7.2c.2.6-.1 1.3-.6 1.5-.1.1-.2.1-.4.1zm-13.6-3.9l1 .8 1-.8-.7-6h-.6l-.7 6zm.6-8.3h.8L37 36h-1.5l.3 1.8zM1.2 50c-.1 0-.3 0-.4-.1-.6-.2-.9-.9-.6-1.5L3 41.3c1.3-3.2 3.6-7.3 8.8-7.3h3.8c2.8 0 5.1 1.2 6.8 3.7 0 0 .2.2.3.4.6.8.7 1 .8 1 .4.5.2 1.2-.3 1.6-.5.3-1.2.2-1.6-.3-.1-.1-.5-.6-.7-.9-.2-.2-.3-.4-.3-.5-.8-1.1-1.7-1.9-2.7-2.3L14.6 41c-.2.3-.6.5-.9.5-.4 0-.7-.2-.9-.5l-3.2-4.3c-1.8.7-3.2 2.5-4.4 5.5l-2.9 7.1c-.2.4-.7.7-1.1.7zm11-13.7l1.5 2.1 1.5-2.1h-3zM18.4 50H6c-.6 0-1.2-.5-1.2-1.2s.5-1.2 1.2-1.2h12.4c.6 0 1.2.5 1.2 1.2S19 50 18.4 50zm23-8.4c-.6 0-1.2-.5-1.2-1.2v-.1c0-.6.5-1.2 1.2-1.2.6 0 1.2.5 1.2 1.2v.1c0 .7-.5 1.2-1.2 1.2zm-27.7-9.3c-3.2 0-5.9-2.6-5.9-5.8 0-2.7 1.8-4.9 4.2-5.6.4-.1.8-.2 1.2-.2H13.5c2.9 0 5.3 2.1 5.8 4.9.1.3.1.6.1 1 .2 3.1-2.5 5.7-5.7 5.7zm-2.1-8.7c-.9.6-1.5 1.7-1.5 2.9 0 2 1.6 3.5 3.6 3.5 1.7 0 3.1-1.1 3.5-2.7-2.6 0-4.7-1.5-5.6-3.7zm2.2-.7c.5 1.2 1.7 2 3.1 2.1-.5-1.2-1.7-2-3.1-2.1zM36.2 32c-3.3 0-6-2.7-6-5.9 0-3.3 2.7-5.9 6-5.9.4 0 .8 0 1.2.1h.1c2.7.6 4.7 2.9 4.7 5.8-.1 3.3-2.8 5.9-6 5.9zm-2.1-8.9c-1 .7-1.6 1.7-1.6 3 0 2 1.6 3.6 3.6 3.6s3.6-1.6 3.6-3.6c0-1.5-.9-2.8-2.2-3.3-.5.6-1.1 1.1-1.8 1.5-.6.3-1.3.1-1.6-.4v-.8zM8.7 20c-.2 0-.4-.1-.6-.2-.4-.2-.6-.6-.6-1V8.5c0-2 1.7-3.7 3.7-3.7h4.1c.6 0 1.2.5 1.2 1.2 0 .6-.5 1.2-1.2 1.2h-4.1c-.8 0-1.4.6-1.4 1.4V17l1.6-.9c.2-.1.4-.1.6-.1h10.1c.6 0 1.2.5 1.2 1.2s-.5 1.2-1.2 1.2h-9.8l-3.1 1.7c-.2-.2-.4-.1-.5-.1zm27.5-2.4c-.3 0-.6-.1-.9-.4l-3.6-3.9h-9.4c-2 0-3.7-1.6-3.7-3.7v-6c0-2 1.7-3.7 3.7-3.7h11.3c2 0 3.7 1.6 3.7 3.7v12.8c0 .5-.3.9-.7 1.1-.2.1-.3.1-.4.1zM22.3 2.3c-.8 0-1.4.6-1.4 1.4v6c0 .7.6 1.4 1.4 1.4h9.9c.3 0 .6.1.9.4l1.9 2.1V3.7c0-.7-.6-1.4-1.4-1.4H22.3zm-7.2 9.2H13c-.6 0-1.2-.5-1.2-1.2 0-.6.5-1.2 1.2-1.2h2.1c.6 0 1.2.5 1.2 1.2-.1.6-.6 1.2-1.2 1.2zm16.5-4.8h-4.8c-.6 0-1.2-.5-1.2-1.2 0-.6.5-1.2 1.2-1.2h4.8c.6 0 1.2.5 1.2 1.2s-.6 1.2-1.2 1.2z"/>
	</symbol>
	<symbol id="eurologo-icon" viewBox="0 0 50 50">
		<path d="M15.4 44.3l.7 2.2-1.9-1.4-1.9 1.4.7-2.2-1.8-1.3h2.3l.7-2.2.7 2.2h2.2l-1.7 1.3zM28 45.8h-2.2l-.8-2.1-.7 2.1H22l1.9 1.3-.7 2.2L25 48l1.9 1.4-.7-2.2 1.8-1.4zm18.5-10.7h-2.2l-.7-2.1-.7 2.1h-2.2l1.8 1.3-.7 2.2 1.9-1.3 1.9 1.4-.7-2.2 1.6-1.4zM38.7 43h-2.2l-.6-2.2L35 43h-2.2l1.8 1.3-.7 2.2 1.9-1.4 1.9 1.4-.8-2.2 1.8-1.3zM9.3 35.1H7L6.4 33l-.8 2.1H3.4l1.8 1.3-.7 2.2 1.9-1.3 1.9 1.4-.8-2.2 1.8-1.4zM6.4 24.3H4.2l-.6-2.1-.8 2.1-2.2.1 1.8 1.3-.7 2.2 1.9-1.3L5.5 28l-.8-2.2 1.7-1.5zM17.2 5.8H15l-.7-2.1-.7 2.1h-2.3l1.9 1.3-.7 2.2 1.9-1.4 1.9 1.4-.7-2.2 1.6-1.3zm-7.9 7.8H7l-.6-2.1-.8 2.1H3.4l1.8 1.3-.7 2.2 1.9-1.4 1.9 1.4-.8-2.2 1.8-1.3zM28 2.7h-2.2L25 .6l-.7 2.1-2.3.1 1.9 1.3-.7 2.2L25 4.9l1.9 1.4-.7-2.2L28 2.7zm10.7 3.1h-2.2l-.6-2.1-.9 2.1h-2.2l1.8 1.3-.7 2.2 1.9-1.4 1.9 1.4-.8-2.2 1.8-1.3zm10.8 18.5h-2.2l-.6-2.1-.8 2.1-2.2.1 1.8 1.3-.7 2.2 1.9-1.3 1.8 1.4-.7-2.2 1.7-1.5zm-3-10.7h-2.2l-.7-2.1-.7 2.1h-2.2l1.8 1.3-.7 2.2 1.9-1.4 1.9 1.4-.7-2.2 1.6-1.3z"/>
	</symbol>
	<symbol id="lists-icon" viewBox="0 0 50 50">
		<path d="M35.6 50H3.9c-.7 0-1.2-.6-1.2-1.2v-38c0-.7.6-1.2 1.2-1.2h31.7c.7 0 1.2.6 1.2 1.2v2.4h3.1c.7 0 1.2.6 1.2 1.2s-.6 1.2-1.2 1.2h-3.1v3.2h1.5c.7 0 1.2.6 1.2 1.2 0 .7-.6 1.2-1.2 1.2h-1.5v3.2h3.1c.7 0 1.2.6 1.2 1.2 0 .7-.6 1.2-1.2 1.2h-3.1V30h1.5c.7 0 1.2.6 1.2 1.2 0 .7-.6 1.2-1.2 1.2h-1.5v16.2c0 .8-.5 1.4-1.2 1.4zM5.1 47.5h29.2V12H5.1v35.5zm20.6-2.3c-3.2 0-5.8-2.6-5.8-5.8 0-3.2 2.6-5.8 5.8-5.8 3.2 0 5.8 2.6 5.8 5.8-.1 3.3-2.7 5.8-5.8 5.8zm0-9c-1.8 0-3.3 1.5-3.3 3.3s1.5 3.3 3.3 3.3c1.8 0 3.3-1.5 3.3-3.3s-1.5-3.3-3.3-3.3zm20.4 4.3h-5.6c-.7 0-1.2-.6-1.2-1.2 0-.7.6-1.2 1.2-1.2h4.4V2.5H15.7v3.9c0 .7-.6 1.2-1.2 1.2-.7 0-1.2-.6-1.2-1.2V1.2c0-.7.6-1.2 1.2-1.2h31.7c.7 0 1.2.6 1.2 1.2v38c-.1.7-.6 1.3-1.3 1.3zm-29.9-4.2h-6c-.7 0-1.2-.6-1.2-1.2 0-.7.6-1.2 1.2-1.2h6c.7 0 1.2.6 1.2 1.2.1.6-.5 1.2-1.2 1.2zm13.1-5.5H10.2c-.7 0-1.2-.6-1.2-1.2s.6-1.2 1.2-1.2h19.1c.7 0 1.2.6 1.2 1.2s-.5 1.2-1.2 1.2zm0-5.4H10.2c-.7 0-1.2-.6-1.2-1.2 0-.7.6-1.2 1.2-1.2h19.1c.7 0 1.2.6 1.2 1.2s-.5 1.2-1.2 1.2zm-13.1-5.5h-6c-.7 0-1.2-.6-1.2-1.2 0-.7.6-1.2 1.2-1.2h6c.7 0 1.2.6 1.2 1.2.1.6-.5 1.2-1.2 1.2z"/>
	</symbol>
	<symbol id="book-icon" viewBox="0 0 50 50">
		<path d="M25 50h-.2c-13-2.3-22-10.2-22-19.1V1.2C2.8.5 3.3 0 4 0h42c.7 0 1.2.5 1.2 1.2v29.6c0 9-9.1 16.8-22 19.1-.1.1-.1.1-.2.1zM5.2 2.4v28.4c0 3.8 1.9 7.4 5.6 10.5 3.6 3 8.6 5.2 14.3 6.3 5.6-1 10.7-3.2 14.3-6.3C43 38.2 45 34.6 45 30.8V2.4H5.2zM25 36.5c-.1 0-.2 0-.4-.1l-13.2-4.1c-.5-.2-.8-.6-.8-1.2V11.9c0-.4.2-.7.5-1 .3-.2.7-.3 1.1-.2l12.8 4 12.8-4c.4-.1.8 0 1.1.2.3.2.5.6.5 1v19.2c0 .5-.3 1-.8 1.2l-13.2 4.1c-.2.1-.3.1-.4.1zm1.2-19.6v16.7L37 30.3V13.6l-10.8 3.3zM13 30.3l10.8 3.4V16.9L13 13.6v16.7zm16.5-3.9c-.5 0-1-.3-1.2-.8-.2-.6.2-1.3.8-1.5l4.2-1.3c.6-.2 1.3.2 1.5.8.2.6-.2 1.3-.8 1.5l-4.2 1.3h-.3zm-9 0c-.1 0-.2 0-.4-.1L16 25c-.6-.2-1-.9-.8-1.5.2-.6.9-1 1.5-.8l4.2 1.3c.6.2 1 .9.8 1.5-.2.6-.7.9-1.2.9zm9-4.9c-.5 0-1-.3-1.2-.8-.2-.6.2-1.3.8-1.5l4.2-1.3c.6-.2 1.3.2 1.5.8.2.6-.2 1.3-.8 1.5l-4.2 1.3h-.3zm-9 0c-.1 0-.2 0-.4-.1L16 20.2c-.6-.2-1-.9-.8-1.5.2-.6.9-1 1.5-.8l4.2 1.3c.6.2 1 .9.8 1.5-.2.5-.7.8-1.2.8z"/>
	</symbol>
	<symbol id="question-icon" viewBox="0 0 50 50">
		<path d="M46.6 50c-.6 0-1.1-.3-1.3-.9l-5-12.3c-2.7-6.7-5.9-9.9-10.4-10.5l-1.1 5.5 1.4 12.9c.1.5-.1 1-.5 1.3l-3.2 2.5c-.3.2-.6.3-.9.3h-1.1c-.3 0-.7-.1-.9-.3L20.4 46c-.4-.3-.6-.8-.5-1.3l1.4-12.9-1.1-5.5c-4.5.6-7.7 3.8-10.4 10.5l-5 12.3c-.3.7-1.1 1.1-1.9.8-.8-.3-1.2-1.2-.9-1.9l5-12.3c1.5-3.8 3.2-6.5 5.1-8.5 2.4-2.5 5.4-3.8 8.9-3.9h7.9c3.5.1 6.5 1.5 8.9 3.9 2 2 3.6 4.7 5.1 8.5L48 48c.3.7-.1 1.6-.8 1.9-.2.1-.4.1-.6.1zm-21.7-4.1h.1l2.2-1.7-1.2-11h-2l-1.2 11 2.1 1.7zm-1-15.7h2.2l.8-4.1H23l.9 4.1zM34 35.6c-.8 0-1.5-.6-1.5-1.5v-.2c0-.8.6-1.5 1.5-1.5.8 0 1.5.6 1.5 1.5v.2c-.1.9-.7 1.5-1.5 1.5zm-9-16.4c-5.3 0-9.6-4.3-9.6-9.6S19.7 0 25 0c.6 0 1.3.1 1.9.2h.1c4.4.9 7.6 4.8 7.6 9.4 0 5.3-4.3 9.6-9.6 9.6zM23.5 3.1c-3 .7-5.2 3.4-5.2 6.5 0 3.7 3 6.7 6.7 6.7s6.7-3 6.7-6.7c0-2.9-1.8-5.4-4.4-6.3-.8 1.1-1.9 2.1-3.1 2.8-.7.4-1.6.1-2-.6-.4-.7-.1-1.6.6-2 .2-.1.5-.2.7-.4zM40 13.5c-.2-.2 0-1.2 0-1.2 0-.4.1-.8.3-1.2.2-.3.4-.7.6-.9.3-.3.5-.6.8-.8.3-.3.6-.5.8-.8.3-.3.5-.6.6-.9.2-.3.3-.7.3-1.1 0-.3 0-.6-.1-.9 0-.3-.2-.5-.3-.7-.2-.2-.4-.4-.7-.5-.3-.1-.6-.2-1-.2-.3 0-.7.1-.9.2-.3.2-.5.4-.7.7-.2.3-.4.6-.5 1-.2.4.1 1-.2 1.3-.3.4-1.7.4-2 0-.5-.5.2-1.4.4-2 .2-.6.5-1.1.9-1.5.4-.4.9-.8 1.4-1 .5-.2 1.1-.4 1.7-.4.8 0 1.4.1 2 .3.5.2 1 .5 1.3.9.3.4.6.8.7 1.3.2.5.2 1 .2 1.4 0 .4-.1.8-.2 1.2-.2.4-.3.7-.6 1-.2.3-.5.6-.8.9-.3.3-.5.6-.8.9l-.6.9c-.2.3-.2.6-.2 1 0 0 .2.9 0 1.1-.3.5-1.9.4-2.4 0zm2.5 1.8c.4.4.4 1.9 0 2.2-.4.4-2 .4-2.4 0-.4-.4-.4-1.8 0-2.2.3-.5 1.9-.4 2.4 0z"/>
	</symbol>
	<symbol id="person-icon" viewBox="0 0 50 50">
		<path d="M46.6 50c-.6 0-1.1-.3-1.3-.9l-5-12.3c-2.7-6.7-5.9-9.9-10.4-10.5l-1.1 5.5 1.4 12.9c.1.5-.1 1-.5 1.3l-3.2 2.5c-.3.2-.6.3-.9.3h-1.1c-.3 0-.7-.1-.9-.3L20.4 46c-.4-.3-.6-.8-.5-1.3l1.4-12.9-1.1-5.5c-4.5.6-7.7 3.8-10.4 10.5l-5 12.3c-.3.7-1.1 1.1-1.9.8-.8-.3-1.2-1.2-.9-1.9l5-12.3c1.5-3.8 3.2-6.5 5.1-8.5 2.4-2.5 5.4-3.8 8.9-3.9h7.9c3.5.1 6.5 1.5 8.9 3.9 2 2 3.6 4.7 5.1 8.5L48 48c.3.7-.1 1.6-.8 1.9-.2.1-.4.1-.6.1zm-21.7-4.1h.1l2.2-1.7-1.2-11h-2l-1.2 11 2.1 1.7zm-1-15.7h2.2l.8-4.1H23l.9 4.1zM34 35.6c-.8 0-1.5-.6-1.5-1.5v-.2c0-.8.6-1.5 1.5-1.5.8 0 1.5.6 1.5 1.5v.2c-.1.9-.7 1.5-1.5 1.5zm-9-16.4c-5.3 0-9.6-4.3-9.6-9.6S19.7 0 25 0c.6 0 1.3.1 1.9.2h.1c4.4.9 7.6 4.8 7.6 9.4 0 5.3-4.3 9.6-9.6 9.6zM23.5 3.1c-3 .7-5.2 3.4-5.2 6.5 0 3.7 3 6.7 6.7 6.7s6.7-3 6.7-6.7c0-2.9-1.8-5.4-4.4-6.3-.8 1.1-1.9 2.1-3.1 2.8-.7.4-1.6.1-2-.6-.4-.7-.1-1.6.6-2 .2-.1.5-.2.7-.4z"/>
	</symbol>
	<symbol id="company-icon" viewBox="0 0 50 50">
		<path d="M48.9 47H1.1C.5 47 0 46.5 0 45.9c0-.6.5-1.1 1.1-1.1H49c.6 0 1.1.5 1.1 1.1-.1.6-.6 1.1-1.2 1.1zM47 42.1c-.6 0-1.1-.5-1.1-1.1V17.7H19.6c-.6 0-1.1-.5-1.1-1.1 0-.6.5-1.1 1.1-1.1H47c.6 0 1.1.5 1.1 1.1v24.5c0 .6-.5 1-1.1 1zm-36.8 0c-.6 0-1.1-.5-1.1-1.1V23.7c0-.6.5-1.1 1.1-1.1.6 0 1.1.5 1.1 1.1v17.4c0 .6-.5 1-1.1 1zM42.5 40h-4.3c-.6 0-1.1-.5-1.1-1.1v-6.2c0-.6.5-1.1 1.1-1.1h4.3c.6 0 1.1.5 1.1 1.1V39c0 .6-.5 1-1.1 1zm-3.3-2.1h2.2v-4h-2.2v4zM33.9 40h-4.3c-.6 0-1.1-.5-1.1-1.1v-6.2c0-.6.5-1.1 1.1-1.1h4.3c.6 0 1.1.5 1.1 1.1V39c-.1.6-.6 1-1.1 1zm-3.3-2.1h2.2v-4h-2.2v4zM25.2 40h-4.3c-.6 0-1.1-.5-1.1-1.1v-6.2c0-.6.5-1.1 1.1-1.1h4.3c.6 0 1.1.5 1.1 1.1V39c0 .6-.5 1-1.1 1zM22 37.9h2.2v-4H22v4zM5.5 35.7c-.3 0-.7-.2-.9-.5-.7-1-1-2.2-1.1-3.4C1.4 30.7 0 28.4 0 25.9c0-2.5 1.4-4.7 3.6-5.9.2-3.5 3.1-6.4 6.7-6.4s6.5 2.8 6.7 6.4c2.2 1.1 3.6 3.4 3.6 5.9 0 2.5-1.4 4.7-3.6 5.9-.1 1.2-.4 2.3-1.1 3.3-.3.5-1 .6-1.5.3s-.6-1-.3-1.5c.5-.7.7-1.6.7-2.5v-.3c0-.5.2-.9.7-1.1 1.7-.7 2.9-2.4 2.9-4.2 0-1.8-1.2-3.5-2.9-4.2-.4-.2-.7-.6-.7-1.1v-.3c0-2.5-2-4.5-4.5-4.5s-4.5 2-4.5 4.5v.3c0 .5-.2.9-.7 1.1-1.7.7-2.9 2.4-2.9 4.2 0 1.8 1.2 3.5 2.9 4.2.4.2.7.6.7 1.1v.3c0 .9.3 1.7.7 2.5.3.5.2 1.1-.3 1.5-.3.2-.5.3-.7.3zm37-6.7h-4.3c-.6 0-1.1-.5-1.1-1.1v-6.2c0-.6.5-1.1 1.1-1.1h4.3c.6 0 1.1.5 1.1 1.1v6.2c0 .6-.5 1.1-1.1 1.1zm-3.3-2.2h2.2v-4h-2.2v4zM33.9 29h-4.3c-.6 0-1.1-.5-1.1-1.1v-6.2c0-.6.5-1.1 1.1-1.1h4.3c.6 0 1.1.5 1.1 1.1v6.2c-.1.6-.6 1.1-1.1 1.1zm-3.3-2.2h2.2v-4h-2.2v4zM25.2 29h-2c-.6 0-1.1-.5-1.1-1.1 0-.6.5-1.1 1.1-1.1h.9v-4h-.9c-.6 0-1.1-.5-1.1-1.1s.5-1.1 1.1-1.1h2c.6 0 1.1.5 1.1 1.1v6.2c0 .6-.5 1.1-1.1 1.1zm18.7-15.4c-.6 0-1.1-.5-1.1-1.1V5.2h-15v7.4c0 .6-.5 1.1-1.1 1.1s-1.1-.5-1.1-1.1V4.1c0-.6.5-1.1 1.1-1.1h17.2c.6 0 1.1.5 1.1 1.1v8.5c-.1.6-.5 1-1.1 1zm-4.4-1.7c-.6 0-1.1-.5-1.1-1.1v-2c0-.6.5-1.1 1.1-1.1.6 0 1.1.5 1.1 1.1v2.1c-.1.5-.5 1-1.1 1zm-4.2 0c-.6 0-1.1-.5-1.1-1.1v-2c0-.6.5-1.1 1.1-1.1.6 0 1.1.5 1.1 1.1v2.1c0 .5-.5 1-1.1 1zm-4.2 0c-.6 0-1.1-.5-1.1-1.1v-2c0-.6.5-1.1 1.1-1.1.6 0 1.1.5 1.1 1.1v2.1c0 .5-.5 1-1.1 1z"/>
	</symbol>
	<symbol id="box-companies-icon" viewBox="0 0 50 50">
		<path d="M47.2 18.2L31.8 2.8C28-1 21.9-1 18.1 2.8L2.8 18.2C-1 22-1 28.1 2.8 31.9l15.3 15.3c3.8 3.8 9.9 3.8 13.7 0l15.3-15.3c3.8-3.8 3.8-10 .1-13.7zm-4.1 9.6L27.8 43.1c-1.5 1.6-4 1.6-5.6.1l-.1-.1L6.9 27.8c-1.6-1.5-1.6-4-.1-5.6l.1-.1L22.1 6.9c1.5-1.6 4-1.6 5.6-.1l.1.1 15.3 15.3c1.6 1.5 1.6 4 0 5.6.1 0 0 0 0 0zm-9.5-5.7h-5.7v-5.7c0-1.6-1.3-2.9-2.9-2.9s-2.9 1.3-2.9 2.9v5.7h-5.7c-1.6 0-2.9 1.3-2.9 2.9s1.3 2.9 2.9 2.9h5.7v5.7c0 1.6 1.3 2.9 2.9 2.9s2.9-1.3 2.9-2.9v-5.7h5.7c1.6 0 2.9-1.3 2.9-2.9s-1.4-2.9-2.9-2.9z"/>
	</symbol>
	<symbol id="arrow-icon" viewBox="0 0 10 10">
		<path d="M9.6 4.3L6.8 1.4c-.3-.3-.9-.3-1.3 0-.3.3-.3.9 0 1.3L7 4.1H.9c-.5 0-.9.4-.9.9s.4.9.9.9H7L5.5 7.3c-.3.3-.3.9 0 1.3.3.3.9.3 1.3 0l2.9-2.9c.2-.2.3-.5.3-.7 0-.3-.1-.5-.4-.7z"/>
	</symbol>
	<symbol id="paging-arrow" viewBox="0 0 30 60">
		<path  d="M30 57.8L28 60 0 29.9 27.9 0l2 2.2L4 29.9l26 27.9"/>
	</symbol>
	<symbol id="paging-double-arrow" viewBox="0 0 50 60">
		<path d="M29.4 57.8l-2 2.2L0 29.9 27.3 0l2 2.2L4 29.9l25.4 27.9m20.6 0L48 60 20.6 29.9 47.9 0l2 2.2-25.3 27.7L50 57.8"/>
	</symbol>
	<symbol id="search_icon" viewBox="0 0 15 15">
		<path d="M14.9 14.2l-3.6-3.6c1-1.1 1.6-2.6 1.6-4.2-.1-3.5-3-6.4-6.5-6.4S0 2.9 0 6.4s2.9 6.4 6.4 6.4c1.6 0 3.1-.6 4.2-1.6l3.6 3.6c.1.1.2.1.3.1.1 0 .2 0 .3-.1.2-.1.2-.4.1-.6zM.9 6.4C.9 3.4 3.4.9 6.4.9s5.5 2.5 5.5 5.5-2.5 5.5-5.5 5.5S.9 9.4.9 6.4z"/>
	</symbol>
	<symbol id="user_icon" viewBox="0 0 17 17">
		<path d="M14.5 11c-.9-.9-2-1.6-3.2-2 1.3-.9 2.1-2.4 2.1-4 0-2.7-2.2-4.9-4.9-4.9S3.6 2.2 3.6 4.9c0 1.7.8 3.2 2.1 4-1.2.4-2.3 1.1-3.2 2C.9 12.6 0 14.7 0 17h1.3c0-4 3.2-7.2 7.2-7.2s7.2 3.2 7.2 7.2H17c0-2.3-.9-4.4-2.5-6zm-6-2.5c-2 0-3.6-1.6-3.6-3.6s1.6-3.6 3.6-3.6 3.6 1.6 3.6 3.6-1.6 3.6-3.6 3.6z"/>
	</symbol>
	<symbol id="phone_icon" viewBox="0 0 17 17">
		<path class="st0" d="M13.4 10.5c-.3-.4-.8-.6-1.2-.6-.4 0-.9.2-1.2.6l-1.1 1.1c-.1-.1-.2-.1-.3-.1-.1-.1-.3-.1-.4-.2-1.1-.7-2-1.6-3-2.7-.4-.6-.8-1-1-1.5.3-.3.6-.5.8-.8.2-.1.3-.2.4-.3.8-.8.8-1.7 0-2.5l-1-1-.3-.3c-.2-.2-.4-.5-.7-.7-.3-.3-.7-.5-1.2-.5s-.8.2-1.2.5L.8 2.7C.3 3.2.1 3.8 0 4.4c-.1 1 .2 2 .5 2.7.6 1.6 1.5 3 2.7 4.6 1.6 1.9 3.5 3.4 5.6 4.4.8.4 1.9.9 3.2.9h.2c.8 0 1.5-.3 2.1-.9l.6-.6c.2-.1.3-.3.5-.5.4-.4.5-.8.5-1.2 0-.4-.2-.9-.6-1.2l-1.9-2.1zm1.3 3.8c-.1.2-.3.3-.4.4l-.7.7c-.4.4-.8.6-1.4.6H12c-1 0-2-.5-2.7-.8-2-1-3.8-2.4-5.3-4.1-1.2-1.5-2-2.8-2.6-4.3-.3-1-.5-1.6-.4-2.3 0-.4.2-.8.5-1.1l1.2-1.2c.2-.2.4-.2.6-.2.2 0 .4.1.5.3.2.1.4.3.6.6.1.1.3.2.4.3l1 1c.4.4.4.7 0 1.1-.1.1-.2.2-.4.3-.3.3-.5.6-.9.9-.3.3-.2.6-.2.8.3.7.7 1.2 1.2 1.9 1 1.2 2 2.2 3.2 2.9.1.1.3.2.4.2.1.1.3.1.4.2.1.1.2.1.4.1.3 0 .5-.2.5-.2l1.2-1.2c.1-.1.3-.3.5-.3s.4.1.5.3l2 2c.5.4.5.7.1 1.1z"/>
		<path id="XMLID_2_" class="st0" d="M9.2 4c.9.2 1.8.6 2.5 1.3s1.1 1.5 1.3 2.5c0 .2.2.4.5.4h.1c.3 0 .4-.3.4-.6-.2-1.1-.7-2.2-1.6-3-.8-.8-1.9-1.4-3-1.6-.3 0-.6.2-.6.5-.1.2.1.5.4.5z"/>
		<path id="XMLID_1_" class="st0" d="M17 7.5c-.3-1.9-1.2-3.6-2.6-4.9S11.4.3 9.5 0c-.3 0-.5.1-.6.4 0 .3.1.5.4.6 1.7.2 3.2 1 4.4 2.2C15 4.5 15.8 6 16 7.7c0 .2.2.4.5.4h.1c.3-.1.4-.3.4-.6z"/>
	</symbol>
	<symbol id="down_arrow_icon" viewBox="0 0 8 5">
		<path d="M4 5L0 .2.2 0 4 4.5 7.8 0l.2.2z"/>
	</symbol>
	<symbol id="shopping_bag_icon" viewBox="0 0 20 22">
		<path d="M20 21.5L18.3 6.1c0-.2-.2-.4-.5-.4h-3v-.9C14.8 2.1 12.7 0 10 0S5.3 2.1 5.3 4.8v.9H2.1c-.2 0-.5.2-.5.4L0 21.5c0 .1 0 .3.1.4.1 0 .2.1.4.1h19.1c.1 0 .3-.1.4-.2v-.3zm-5.7-13c.2 0 .4.2.4.4s-.2.4-.4.4-.4-.2-.4-.4.2-.4.4-.4zm-8-3.7C6.3 2.7 8 1 10 1s3.8 1.7 3.8 3.8v.9H6.3v-.9zm-.5 3.7c.2 0 .4.2.4.4s-.2.4-.4.4-.4-.2-.4-.4.1-.4.4-.4zM1 21L2.6 6.7h2.7v.9c-.6.2-1 .7-1 1.3 0 .8.6 1.4 1.4 1.4s1.4-.6 1.4-1.4c0-.6-.4-1.1-.9-1.3v-.9h7.6v.9c-.5.2-.9.7-.9 1.3 0 .8.6 1.4 1.4 1.4s1.4-.6 1.4-1.4c0-.6-.4-1.1-.9-1.3v-.9h2.8L19 21H1z"/>
	</symbol>
	<symbol id="shopping_cart_icon" viewBox="0 0 13 13">
		<path id="XMLID_3_" class="st0" d="M4.2 8.7h6.9c.2 0 .3-.1.4-.3L13 2.3c0-.1 0-.3-.1-.4-.1-.1-.2-.2-.3-.2H3.3L3.1.3C3 .1 2.9 0 2.7 0H.4C.2 0 0 .2 0 .4s.2.4.4.4h2l1.4 7c-.4.3-.7.8-.7 1.3 0 .7.5 1.3 1.1 1.3h6.9c.2 0 .4-.2.4-.4s-.2-.4-.4-.4H4.2c-.2-.1-.4-.3-.4-.5s.2-.4.4-.4z"/>
		<path id="XMLID_2_" class="st0" d="M3.8 11.7c0 .7.5 1.3 1.2 1.3.6 0 1.1-.6 1.1-1.3 0-.7-.5-1.3-1.1-1.3-.7 0-1.2.6-1.2 1.3z"/>
		<path id="XMLID_1_" class="st0" d="M9.2 11.7c0 .7.5 1.3 1.1 1.3.6 0 1.1-.6 1.1-1.3 0-.7-.5-1.3-1.1-1.3-.6 0-1.1.6-1.1 1.3z"/>
	</symbol>
	<symbol id="right_arrow_icon" viewBox="0 0 35 18">
		<path d="M23.6.3c-.5-.4-1.3-.4-1.8 0-.5.3-.5.9 0 1.3l8.9 6.5H1.2C.5 8.1 0 8.5 0 9s.5.9 1.2.9h29.5l-8.9 6.5c-.5.4-.5.9 0 1.3s1.3.4 1.8 0l11.1-8.1c.5-.3.5-.9 0-1.3L23.6.3z"/>
	</symbol>
	<symbol id="big_balloon_icon" viewBox="0 0 261 397">
		<path id="XMLID_13_" class="st0" d="M103.1 353.2l5.5-53.1h14.1l1.6 56.7" fill="none" stroke="#fff" stroke-width=".928" stroke-miterlimit="10"/>
		<path id="XMLID_12_" class="st0" d="M164.8 353.2l-8.7-53.1H142l1.6 56.7" fill="none" stroke="#fff" stroke-width=".928" stroke-miterlimit="10"/>
		<path id="XMLID_11_" class="st1" d="M227.3 43.1C196 8.5 156.6 1.1 136.8-.3v-.2s-2.3-.2-6.3-.1c-4-.1-6.3.1-6.3.1v.2C104.4 1.1 65 8.5 33.7 43.1-10.1 91.4-14 174.7 38.4 217.6c25.7 21 69.5 42.8 71.8 77.9h40.5c2.4-35 46.2-56.9 71.8-77.9 52.5-42.9 48.6-126.3 4.8-174.5z" fill="#fff"/>
		<path id="XMLID_10_" class="st2" d="M227.3 43.1C196 8.5 156.6 1.1 136.8-.3v-.2s-2.3-.2-6.3-.1c-4-.1 6.3 296 6.3 296h13.9c2.4-35 46.2-56.9 71.8-77.9 52.5-42.8 48.6-126.2 4.8-174.4z" fill="#c59eb5"/>
		<path id="XMLID_9_" class="st2" d="M70.9 231.6c-20.3-26.8-40.6-73.2-28.1-146.4C55.1 12.7 125.6-.4 127-.7c-1.9 0-2.9.1-2.9.1v.2C104.4 1 65 8.4 33.7 43-10.1 91.3-14 174.7 38.4 217.5c16 13 38.9 26.4 54.5 43-6.1-8.9-13.8-18.1-22-28.9z" fill="#c59eb5"/>
		<path id="XMLID_8_" class="st1" d="M190.1 231.6c20.3-26.8 40.6-73.2 28.1-146.4C205.9 12.7 135.4-.4 134-.7c1.9 0 2.9.1 2.9.1v.2C156.6 1 196 8.4 227.3 43c43.7 48.3 47.6 131.6-4.7 174.5-16 13-38.9 26.4-54.5 43 6.1-8.9 13.8-18.1 22-28.9z" fill="#fff"/>
		<path id="XMLID_7_" class="st3" d="M131.3-.7s-86.5 106.6-4.2 296h8.9c13-40 51.1-191.6-4.7-296z" fill="#986a87"/>
		<path id="XMLID_6_" class="st4" d="M160.8 300.1c0 2.6-2.1 4.7-4.7 4.7h-48.3c-2.6 0-4.7-2.1-4.7-4.7s2.1-4.7 4.7-4.7h48.3c2.6 0 4.7 2.1 4.7 4.7z" fill="#814068"/>
		<path id="XMLID_5_" class="st3" d="M98.4 348.6v28.3c0 10.7 8.7 19.4 19.5 19.4h32.2c10.7 0 19.5-8.7 19.5-19.4v-28.3H98.4z" fill="#986a87"/>
		<path id="XMLID_4_" class="st5" d="M114.5 355s-19.3 19.9 0 20.4c15.1.4 0-20.4 0-20.4z" opacity=".6" fill="#d5c4d0" enable-background="new"/>
		<path id="XMLID_3_" class="st5" d="M134.9 355s-19.3 19.9 0 20.4c15 .4 0-20.4 0-20.4z" opacity=".6" fill="#d5c4d0" enable-background="new"/>
		<path id="XMLID_2_" class="st5" d="M155.2 355s-19.3 19.9 0 20.4c15.1.4 0-20.4 0-20.4z" opacity=".6" fill="#d5c4d0" enable-background="new"/>
		<path id="XMLID_1_" class="st4" d="M176.2 352.7c0 2.3-1.9 4.1-4.1 4.1H95.6c-2.3 0-4.1-1.9-4.1-4.1 0-2.3 1.9-4.1 4.1-4.1H172c2.3 0 4.2 1.8 4.2 4.1z" fill="#814068"/>
	</symbol>
	<symbol id="small_balloon_icon" viewBox="0 0 167 251">
		<path id="XMLID_13_" class="st0" d="M66 223.9l3.5-33.6h9l1 35.9" fill="none" stroke="#fff" stroke-width=".6404" stroke-miterlimit="10"/>
		<path id="XMLID_12_" class="st0" d="M105.4 223.9l-5.5-33.6h-9.1l1.1 35.9" fill="none" stroke="#fff" stroke-width=".6404" stroke-miterlimit="10"/>
		<path id="XMLID_11_" class="st1" d="M145.4 27.8C125.4 6 100.2 1.3 87.6.4V.3s-1.5-.1-4-.1c-2.5-.1-4 .1-4 .1v.1C66.9 1.3 41.7 6 21.7 27.8c-28 30.5-30.5 83.2 3 110.3 16.4 13.3 44.5 27.1 46 49.2h25.9c1.5-22.1 29.6-35.9 46-49.2 33.3-27 30.8-79.7 2.8-110.3z" fill="#fff"/>
		<path id="XMLID_10_" class="st2" d="M145.4 27.8C125.4 6 100.2 1.3 87.6.4V.3s-1.5-.1-4-.1c-2.5-.1 4 187.1 4 187.1h8.9c1.5-22.1 29.6-35.9 46-49.2 33.4-27 30.9-79.7 2.9-110.3z" fill="#f69fb4"/>
		<path id="XMLID_9_" class="st2" d="M45.4 147c-13-17-26-46.3-18-92.6C35.3 8.6 80.4.3 81.3.2c-1.2 0-1.9.1-1.9.1v.1c-12.6.9-37.8 5.5-57.8 27.4-28 30.5-30.5 83.2 3 110.3 10.2 8.2 24.8 16.7 34.9 27.2-3.9-5.6-8.9-11.5-14.1-18.3z" fill="#f69fb4"/>
		<path id="XMLID_8_" class="st1" d="M121.6 147c13-17 26-46.3 18-92.6C131.7 8.6 86.6.3 85.7.2c1.2 0 1.9.1 1.9.1v.1c12.6.9 37.8 5.6 57.9 27.4 28 30.5 30.5 83.2-3 110.3-10.2 8.2-24.8 16.7-34.9 27.2 3.8-5.6 8.8-11.5 14-18.3z" fill="#fff"/>
		<path id="XMLID_7_" d="M84 .3s-55.4 67.3-2.7 187.1H87C95.4 162 119.6 66.2 84 .3z" fill="#f05268"/>
		<path id="XMLID_6_" class="st4" d="M102.9 190.3c0 1.6-1.4 2.9-3 2.9H69c-1.6 0-3-1.3-3-2.9 0-1.6 1.4-2.9 3-2.9h30.9c1.6 0 3 1.3 3 2.9z" fill="#e85a72"/>
		<path id="XMLID_5_" d="M62.9 221v17.9c0 6.8 5.6 12.3 12.5 12.3H96c6.9 0 12.5-5.5 12.5-12.3V221H62.9z" fill="#c64963"/>
		<path id="XMLID_4_" class="st6" d="M73.3 225.1s-12.4 12.6 0 12.9c9.6.2 0-12.9 0-12.9z" opacity=".6" fill="#d98293" enable-background="new"/>
		<path id="XMLID_3_" class="st6" d="M86.3 225.1s-12.4 12.6 0 12.9c9.6.2 0-12.9 0-12.9z" opacity=".6" fill="#d98293" enable-background="new"/>
		<path id="XMLID_2_" class="st6" d="M99.3 225.1s-12.4 12.6 0 12.9c9.6.2 0-12.9 0-12.9z" opacity=".6" fill="#d98293" enable-background="new"/>
		<path id="XMLID_1_" class="st4" d="M112.7 223.6c0 1.4-1.2 2.6-2.6 2.6H61.2c-1.5 0-2.6-1.2-2.6-2.6 0-1.4 1.2-2.6 2.6-2.6H110c1.5 0 2.7 1.2 2.7 2.6z" fill="#e85a72"/>
	</symbol>
	<symbol id="plane_icon" viewBox="0 0 1016 429">
		<path id="XMLID_31_" d="M851.4 303.4c1.8.7-6.1 58.8-56.6 89 0 0 361.6-137.7 115.4-252.2-48.2-22.5-270 4.8-334.6 2.6-158.5-5.4-278.2 4.1-336.6 4.6-58.4.7-235.3-15.3-238.9-20S79.9 78 79.9 78 23.1 9.5 26.1 0c0 0 141.4 22.8 206.7 21.4 65.3-1.5 92.1-5.9 146.2-6.7s142.6 3.4 193.4.8C602 14 886.1-8.7 953 64.7c186.7 205.2-101.1 249.7-101.6 238.7z" fill="#91c740"/>
		<path id="XMLID_30_" d="M851.4 303.4c1.8.7-6.1 58.8-56.6 89 0 0 174.8-60.3 198.8-146.7-28.9 34.7-141.7 68.7-142.2 57.7z" fill="#8ebf40"/>
		<path id="XMLID_29_" fill="#9c9b9b" d="M793.7 392.5l1.5-1.2-42.8-49.6 99-38.3-.5-1.6-101.6 39.1z"/>
		<path id="XMLID_28_" d="M794.5 393.8c.7 0 1.2-.3 1.5-.8l57.2-90.5c.5-.8.3-2-.5-2.5s-2-.3-2.5.5L793 391c-.5.8-.3 2 .5 2.5.4.1.7.3 1 .3z" fill="#a88164"/>
		<ellipse id="XMLID_27_" class="st4" cx="595.7" cy="335.3" rx="15.8" ry="24.6" fill="#d9dad8"/>
		<path d="M578.5 335.3c0-14.3 7.7-26.1 17.3-26.1s17.3 11.7 17.3 26.1c0 14.3-7.7 26.1-17.3 26.1-9.6 0-17.3-11.7-17.3-26.1zm2.9 0c0 12.6 6.4 23 14.3 23s14.3-10.3 14.3-23c0-12.6-6.4-23-14.3-23s-14.3 10.3-14.3 23z" fill="#ececec"/>
		<circle id="XMLID_24_" class="st4" cx="642.7" cy="382.4" r="7.2" fill="#d9dad8"/>
		<circle id="XMLID_23_" class="st4" cx="741.7" cy="362.2" r="5.4" fill="#d9dad8"/>
		<path class="st6" d="M735 362.2c0 3.8 3.1 6.9 6.9 6.9s6.9-3.1 6.9-6.9-3.1-6.9-6.9-6.9c-3.9 0-6.9 3.2-6.9 6.9zm2.6 0c0-2.3 1.8-4.1 4.1-4.1s4.1 1.8 4.1 4.1-1.8 4.1-4.1 4.1-4.1-1.8-4.1-4.1zM633.9 382.4c0 4.9 3.9 8.9 8.9 8.9 4.9 0 8.9-3.9 8.9-8.9s-3.9-8.9-8.9-8.9c-5 .1-8.9 4.2-8.9 8.9zm2.9 0c0-3.3 2.6-5.9 5.9-5.9 3.3 0 5.9 2.6 5.9 5.9 0 3.3-2.6 5.9-5.9 5.9-3.2.1-5.9-2.6-5.9-5.9z" fill="#1d1d1b"/>
		<path id="XMLID_18_" class="st4" d="M738.9 330s14.1-10.7 20.7-6.7c6.6 3.9-11.7 18.7-11.7 18.7l-9-12z" fill="#d9dad8"/>
		<path id="XMLID_17_" class="st7" d="M569.7 415.9c-6.2 5.4-7.1 12.3-1.3 12.3 0 0 23 1.6 24.8 0 1.6-1.6 7.9-7.1 13-12.8l110.2-112.7c5.9-6.6 17.3-14.9 11.5-14.9h-21c-5.8 0-13.3 3.6-20.1 10.3L569.7 415.9z" fill="#e6275e"/>
		<path id="XMLID_16_" class="st8" d="M569.7 415.9c-6.2 5.4-7.1 12.3-1.3 12.3 0 0 23 1.6 24.8 0 1.6-1.6 13-12.8 13-12.8-6.1-5.7 87.2-124 80.4-117.3L569.7 415.9z" fill="#ce245c"/>
		<path id="XMLID_15_" class="st9" d="M715.4 297.5h.2c.8-.2 1.3-.8 1.3-1.6l-5.8-36.6c-.2-.8-.8-1.3-1.6-1.3-.8.2-1.3.8-1.3 1.6l5.8 36.6c.1.8.8 1.3 1.4 1.3z" fill="#727272"/>
		<path id="XMLID_14_" class="st9" d="M698.8 297.5h.2c.8-.2 1.3-.8 1.3-1.6l-5.8-36.6c-.2-.8-.8-1.3-1.6-1.3-.8.2-1.3.8-1.3 1.6l5.8 36.6c-.1.8.6 1.3 1.4 1.3z" fill="#727272"/>
		<path id="XMLID_13_" class="st9" d="M591.4 422.5h.2c.8-.2 1.3-.8 1.3-1.6l-5.8-36.6c-.2-.8-.8-1.3-1.6-1.3-.8.2-1.3.8-1.3 1.6l5.8 36.6c.1.8.8 1.3 1.4 1.3z" fill="#727272"/>
		<path id="XMLID_12_" class="st9" d="M573.5 422.5h.2c.8-.2 1.3-.8 1.3-1.6l-5.8-36.6c-.2-.8-.8-1.3-1.6-1.3-.8.2-1.3.8-1.3 1.6l5.8 36.6c.1.8.8 1.3 1.4 1.3z" fill="#727272"/>
		<path id="XMLID_11_" class="st7" d="M654.9 330s21.2-.5 35.4 8.7l31.9.7s-9.5-27.9 8.7-26.9c18.3.8 37 39.9 0 49.4s-124.6-4.8-124.6-4.8-19.9-17.7-5.4-29.1c14.4-11.3 54 2 54 2z" fill="#e6275e"/>
		<path id="XMLID_10_" class="st8" d="M654.9 330s-14.1 28.3 75.8 31.9c-37 9.5-124.6-4.8-124.6-4.8s-19.9-17.7-5.4-29.1c14.6-11.3 54.2 2 54.2 2z" fill="#ce245c"/>
		<path id="XMLID_9_" class="st4" d="M743.4 344.3s-8.9-3.9-20.1-1.5c-11.2 2.5-12 17.4-7.9 17.4 4.3-.1 27.5-10.8 28-15.9z" fill="#d9dad8"/>
		<g>
		<path id="XMLID_8_" class="st7" d="M539.3 396.4c-7.2 6.2-8.2 14.3-1.6 14.3 0 0 26.6 1.8 28.6 0s9-8.2 15-14.8l126.9-129.8c6.9-7.6 19.7-17.2 13.2-17.2H697c-6.6 0-15.3 4.1-23.2 12L539.3 396.4z" fill="#e6275e"/>
		</g>
		<g>
		<path id="XMLID_7_" class="st10" d="M898.1 131.1c-2.6-1-5.8-2-9.5-2.8" fill="none" stroke="#fff" stroke-miterlimit="10"/>
		<path id="XMLID_6_" d="M869.3 125.7c-73.7-6.7-234.2 9.2-286.3 7.7-149.3-4.4-262.1 3.3-317 3.8S44.3 124.7 40.9 120.7C38.6 118.1 75.3 100 98.3 89" fill="none" stroke="#fff" stroke-miterlimit="10" stroke-dasharray="11.972 11.972"/>
		<path id="XMLID_5_" class="st10" d="M107 84.8c5.4-2.6 8.9-4.1 8.9-4.1s-2.6-2.8-6.7-7.2" fill="none" stroke="#fff" stroke-miterlimit="10"/>
		<path id="XMLID_4_" d="M95.2 58.2c-6.9-7.7-14.3-16.3-20.1-23.7" fill="none" stroke="#fff" stroke-miterlimit="10" stroke-dasharray="12.575 12.575"/>
		<path id="XMLID_3_" class="st10" d="M69 26.3c-2.8-4.3-4.3-7.4-3.8-8.9 0 0 3.6.5 9.7 1.3" fill="none" stroke="#fff" stroke-miterlimit="10"/>
		<path id="XMLID_2_" d="M94.8 21.2c42.9 5.4 121.7 14.3 165.1 13.5 61.5-1.1 86.7-4.8 137.6-5.6 51-.7 134.3 2.8 182.2.7 25.8-1.1 259.2-17.1 342.5 28.6" fill="none" stroke="#fff" stroke-miterlimit="10" stroke-dasharray="12.196 12.196"/>
		<path id="XMLID_1_" class="st10" d="M930.8 63.7c2.8 2 5.4 4.1 7.7 6.2" fill="none" stroke="#fff" stroke-miterlimit="10"/>
		</g>
	</symbol>
	<symbol id="cloud_club_left_big" viewBox="0 0 229 120">
		<path class="st0" d="M201.8 65.2c-4.2 0-8.1 1-11.7 2.7-1.4-22.5-20.2-40.4-43.2-40.4-5.5 0-10.8 1.1-15.7 2.9-7.2-18.2-24.9-31-45.6-31-26.5 0-48.1 20.9-49 47.1C16.4 46.6 0 62.9 0 83s16.4 36.4 36.6 36.4h165.2c15 0 27.2-12.1 27.2-27.1 0-15-12.2-27.1-27.2-27.1zm-92.2 27.1H107c.7-.3 1.3-.7 2-1 .2.3.4.7.6 1z" fill="#fff"/>
		<path id="XMLID_3_" class="st0" d="M201.8 65.7c-4.2 0-8.1 1-11.7 2.7-1.4-22.5-20.2-40.4-43.2-40.4-5.5 0-10.8 1.1-15.7 2.9C124 12.7 106.3 0 85.6 0c-26.5 0-48.1 20.9-49 47.1C16.4 47.1 0 63.4 0 83.6S16.4 120 36.6 120h165.2c15 0 27.2-12.1 27.2-27.1 0-15-12.2-27.2-27.2-27.2zm-92.2 27.1H107c.7-.3 1.3-.7 2-1 .2.3.4.7.6 1z" fill="#fff"/>
	</symbol>
	<symbol id="cloud_club_left_small" viewBox="0 0 102 53">
		<path class="st0" d="M89.8 29c-1.9 0-3.6.4-5.2 1.2-.6-9.9-9-17.9-19.2-17.9-2.4 0-4.8.5-7 1.3C55.1 5.6 47.2 0 38 0 26.2 0 16.6 9.2 16.2 20.8 7.2 20.8-.1 28-.1 36.9S7.2 53 16.2 53h73.6c6.7 0 12.1-5.4 12.1-12s-5.4-12-12.1-12zM48.7 41h-1.2c.3-.1.6-.3.9-.4.1.1.2.3.3.4z" fill="#fff"/>
		<path id="XMLID_3_" class="st0" d="M89.9 29c-1.9 0-3.6.4-5.2 1.2-.6-9.9-9-17.9-19.2-17.9-2.4 0-4.8.5-7 1.3C55.2 5.6 47.3 0 38.1 0 26.3 0 16.7 9.2 16.3 20.8 7.3 20.8 0 28 0 36.9S7.3 53 16.3 53h73.6c6.7 0 12.1-5.4 12.1-12s-5.4-12-12.1-12zM48.8 41h-1.2c.3-.1.6-.3.9-.4.1.1.2.3.3.4z" fill="#fff"/>
	</symbol>
	<symbol id="cloud_club_right" viewBox="0 0 238 101">
		<path id="XMLID_1_" class="st0" d="M202.1 31.4c-1.6 0-3.1.1-4.6.3C192 13.4 175 0 154.7 0c-18.4 0-34.1 11-41 26.8-4-1.6-8.4-2.5-13-2.5-14.1 0-26.3 8.2-31.9 20.2-3.7-1.7-7.8-2.7-12.2-2.7-12.2 0-22.6 7.5-26.7 18.3-2.7-1.3-5.8-2-9-2C9 58.1-.8 67.8-.8 79.6S9 101 20.9 101h181.2c19.4 0 35.1-15.6 35.1-34.8s-15.7-34.8-35.1-34.8z" fill="#fff"/>
		<path id="XMLID_2_" class="st0" d="M201.9 31.4c-1.6 0-3.1.1-4.6.3C191.7 13.4 174.7 0 154.5 0c-18.4 0-34.1 11-41 26.8-4-1.6-8.4-2.5-13-2.5-14.1 0-26.3 8.2-31.9 20.2-3.7-1.7-7.8-2.7-12.2-2.7-12.2 0-22.6 7.5-26.7 18.3-2.7-1.3-5.8-2-9-2C8.7 58.1-1 67.8-1 79.6S8.7 101 20.6 101h181.2c19.4 0 35.1-15.6 35.1-34.8s-15.6-34.8-35-34.8z" fill="#fff"/>
		<path id="XMLID_3_" class="st0" d="M202.9 31.4c-1.6 0-3.1.1-4.6.3C192.7 13.4 175.7 0 155.5 0c-18.4 0-34.1 11-41 26.8-4-1.6-8.4-2.5-13-2.5-14.1 0-26.3 8.2-31.9 20.2-3.7-1.7-7.8-2.7-12.2-2.7-12.2 0-22.6 7.5-26.7 18.3-2.7-1.3-5.8-2-9-2C9.7 58.1 0 67.8 0 79.6S9.7 101 21.6 101h181.2c19.4 0 35.1-15.6 35.1-34.8s-15.6-34.8-35-34.8z" fill="#fff"/>
	</symbol>
	<symbol id="cloud_left_icon" viewBox="0 0 1835 610">
		<path id="XMLID_1_" class="st0" d="M1835.4 387.4c0-123.1-91.1-222.8-203.5-222.8-100.7 0-184.3 80.2-200.6 185.4-16.2-13.3-36.4-21.1-58.2-21.1-9.2 0-18.1 1.4-26.5 4-11-45.7-49.1-79.4-94.3-79.4-17.5 0-34 5.1-48.2 14-20.2-42-60.4-70.6-106.7-70.6-55.2 0-101.6 40.6-115.9 95.9-25-24.5-58-39.4-94.2-39.4-33.6 0-64.5 12.9-88.8 34.3.1-2.8.2-5.5.2-8.3 0-85.6-63.4-155-141.6-155-27 0-52.3 8.3-73.8 22.7C546.6 60.3 466.4.1 373.3.1 250.2.1 149.5 105.4 142.4 238.3 61.8 253.4.4 330.3.4 422.9c0 103.4 76.6 187.3 171 187.3h1476.9v-.8c104.7-9.2 187.1-105 187.1-222z" fill="#fff"/>
	</symbol>
	<symbol id="cloud_right_icon" viewBox="0 0 1034 619">
		<path d="M955.6 239.8c-16.1 0-31.1 11.7-43.5 31.9-4.5-94.3-37.6-167.5-77.8-167.5-38.5 0-70.4 67-77.1 155.4-13.6-56.1-38.8-93.7-67.6-93.7-22.2 0-42.2 22.3-56.4 58.1C623.7 96.6 577.6 0 522.3 0c-56.9 0-103.9 102.1-111.6 234.6-13.8-29.5-32-47.5-51.9-47.5-12.9 0-25 7.5-35.7 20.8C308.3 99.5 266 21.3 216.2 21.3c-56.2 0-102.8 99.6-111.3 229.7-8.3-7.2-17.2-11.2-26.5-11.2C35.1 239.8 0 324.7 0 429.4c0 99.3 31.6 180.8 71.8 188.9v.7h883.8c43.3 0 78.4-84.9 78.4-189.6 0-104.7-35.1-189.6-78.4-189.6z" fill="#fff"/>
	</symbol>
	<symbol id="cloud_center_icon" viewBox="0 0 1920 533">
		<path d="M1854.9 352.5c6.6-13.2 10.4-28.3 10.4-44.5 0-50.2-36.4-90.9-81.2-90.9-7.2 0-14.1 1.1-20.7 3.1C1744.3 94.9 1646.8-.5 1529.4-.5c-94 0-175.3 61.1-213.8 149.8-14.3-7.3-30.3-11.4-47-11.4-28.4 0-54.3 11.6-74.2 30.9-14-52.6-57.5-91-109.1-91-37.6 0-70.9 20.4-91.6 51.8-40.1-42.2-95.9-68.5-157.7-68.5-75.8 0-142.7 39.5-182.5 99.6-18.4-14.3-40.8-22.8-64.9-22.8-61.4 0-111.4 54.4-113.7 122.5-20.6-22.9-49-37.1-80.3-37.1-32.3 0-61.4 15-82.1 39.2C296.8 206.6 250.1 166 195 166c-68 0-123.1 61.7-123.1 137.8 0 16.5 2.6 32.3 7.4 47-44 1.3-79.3 41.4-79.3 90.8 0 50.2 36.4 90.9 81.2 90.9h1757.5c44.9 0 81.2-40.7 81.2-90.9.1-44-27.8-80.7-65-89.1z" fill="#fff"/>
	</symbol>
	<symbol id="facebook_icon" viewBox="0 0 27 27">
		<path d="M13.5 27C6 27 0 21 0 13.5S6 0 13.5 0 27 6 27 13.5 21 27 13.5 27z" fill="#405e9c"/>
		<path d="M11.4 21.7h3.3v-8.2H17l.2-2.8h-2.5V9.1c0-.6.1-.9.8-.9h1.8V5.3H15c-2.4 0-3.6 1.1-3.6 3.1v2.2H9.7v2.8h1.7v8.3z" fill="#fff"/>
	</symbol>
	<symbol id="instagram_icon" viewBox="0 0 27 27">
		<g id="XMLID_1346_">
		<radialGradient id="XMLID_6_" cx="-141.5253" cy="-139.0852" r="545.8601" gradientTransform="matrix(.09146 0 0 -.09146 12.265 14.371)" gradientUnits="userSpaceOnUse">
			<stop offset="0" stop-color="#f2ec57"/>
			<stop offset="0.2412" stop-color="#e48240"/>
			<stop offset="0.3463" stop-color="#d66863"/>
			<stop offset="0.4422" stop-color="#cd5075"/>
			<stop offset="0.4888" stop-color="#ca447a"/>
			<stop offset="1" stop-color="#4157a6"/>
		</radialGradient>
		<path id="XMLID_1418_" d="M13.5 27C6 27 0 21 0 13.5S6 0 13.5 0 27 6 27 13.5 21 27 13.5 27z" fill="url(#XMLID_6_)"/>
		<g id="XMLID_1347_">
			<path id="XMLID_1352_" class="st1" d="M13.5 7.4h3c.7 0 1.1.2 1.4.3.3.1.6.3.9.6.3.3.4.5.6.9.1.3.2.6.3 1.4v6c0 .7-.2 1.1-.3 1.4-.1.3-.3.6-.6.9-.3.3-.5.4-.9.6-.3.1-.6.2-1.4.3h-6c-.7 0-1.1-.2-1.4-.3-.3-.1-.6-.3-.9-.6-.3-.3-.4-.5-.6-.9-.1-.3-.2-.6-.3-1.4v-3-3c0-.7.2-1.1.3-1.4.3-.4.4-.6.7-.9.2-.3.5-.4.8-.6.3-.1.6-.2 1.4-.3h3m0-1.3h-3.1c-.8 0-1.3.2-1.8.3-.4.3-.8.5-1.3.9s-.6.9-.8 1.4c-.2.5-.3 1-.3 1.8v6.2c0 .8.2 1.3.3 1.8.2.5.4.9.9 1.3.4.4.8.7 1.3.9.5.2 1 .3 1.8.3h6.2c.8 0 1.3-.2 1.8-.3.5-.2.9-.4 1.3-.9.4-.4.7-.8.9-1.3.2-.5.3-1 .3-1.8v-3.1-3.1c0-.8-.2-1.3-.3-1.8-.2-.5-.4-.9-.9-1.3-.4-.4-.8-.7-1.3-.9-.5-.2-1-.3-1.8-.3-.9-.1-1.2-.1-3.2-.1" fill="#fff"/>
			<path id="XMLID_1349_" class="st1" d="M13.5 9.7c-2.1 0-3.8 1.7-3.8 3.8s1.7 3.8 3.8 3.8 3.8-1.7 3.8-3.8c0-2.1-1.7-3.8-3.8-3.8m0 6.3c-1.4 0-2.5-1.1-2.5-2.5s1.1-2.5 2.5-2.5 2.5 1.1 2.5 2.5-1.1 2.5-2.5 2.5" fill="#fff"/>
			<path id="XMLID_1348_" class="st1" d="M18.3 9.5c0 .5-.4.9-.9.9s-.9-.4-.9-.9.4-.9.9-.9c.5.1.9.5.9.9" fill="#fff"/>
		</g>
		</g>
	</symbol>
	<symbol id="pytek_icon" viewBox="0 0 90 25">
        <path d="M23.1 12.5l-9.3 12.3-9.3-12.3L13.8.2l9.3 12.3z" style="opacity:0.6"></path>
        <path d="M17.1 10.3l-3.3 14.5L0 16.4 3.4 1.9l13.7 8.4z" style="opacity:0.6"></path>
        <path d="M27.6 16.6l-13.9 8.3-3.3-14.5L24.2 2l3.4 14.6z" style="opacity:0.6"></path>
        <path d="M37.6 16.5V5.1h5.9c.6 0 1.2.1 1.7.3.5.2 1 .5 1.3.8.4.3.7.7.9 1.1.2.4.3.9.3 1.3 0 .5-.1.9-.3 1.4-.2.4-.5.8-.8 1.1-.4.3-.8.6-1.3.8-.5.2-1.1.3-1.7.3H39v4.2h-1.4zm1.4-5.2h4.5c.4 0 .8-.1 1.1-.2.3-.1.6-.3.9-.6.2-.2.4-.5.6-.8.1-.3.2-.6.2-1s-.1-.7-.2-1c-.2-.3-.4-.6-.6-.8l-.9-.6c-.4-.1-.7-.2-1.1-.2H39v5.2zM51 19h.6c.2 0 .4 0 .6-.1.1-.1.3-.2.4-.4.1-.2.3-.4.4-.8.2-.3.4-.8.7-1.4L49.2 8h1.4l3.9 7.3L58 8.2h1.3l-5.4 10.7c-.1.3-.4.6-.7.8-.3.2-.8.3-1.4.3H51v-1zm15.8-2.9c-.1 0-.2.1-.3.1-.2.1-.3.1-.5.2s-.4.1-.7.1c-.3 0-.5.1-.8.1-.3 0-.6 0-.8-.1-.3-.1-.5-.2-.7-.3-.2-.1-.4-.3-.5-.5-.1-.2-.2-.4-.2-.7V9h-1.4v-.8h1.4V5.4h1.4v2.8H66V9h-2.4v5.7c0 .3.2.5.4.7.2.1.5.2.8.2.4 0 .7-.1 1-.2.3-.1.5-.2.6-.2l.4.9zm6.5.5c-.8 0-1.5-.1-2.1-.3-.6-.2-1.2-.5-1.6-.9-.5-.4-.8-.9-1.1-1.4-.3-.5-.4-1.1-.4-1.7 0-.6.1-1.1.4-1.7.3-.5.6-1 1.1-1.4.5-.4 1-.7 1.6-.9.6-.2 1.3-.3 2.1-.3s1.5.1 2.1.3c.6.3 1.1.6 1.6 1s.8.8 1.1 1.4c.3.5.4 1.1.4 1.6v.5h-8.9c0 .4.2.9.4 1.2.2.4.5.7.8 1 .3.3.7.5 1.2.6.4.2.9.2 1.4.2.3 0 .7 0 1-.1l.9-.3c.3-.1.5-.3.8-.5.2-.2.4-.4.5-.6l1.2.3c-.2.3-.4.6-.7.8-.3.3-.6.5-1 .7-.4.2-.8.3-1.3.4-.5.1-1 .1-1.5.1zm3.8-4.7c0-.4-.2-.9-.4-1.2-.2-.4-.5-.7-.8-1-.3-.3-.7-.5-1.2-.6-.4-.1-.9-.2-1.4-.2s-1 .1-1.4.2c-.5.1-.8.4-1.2.6-.3.3-.6.6-.8 1-.2.4-.3.8-.4 1.2h7.6zm11.5 4.6l-3.8-4.3-2.2 1.7v2.6h-1.4V4.8h1.4v7.9l5.9-4.6H90l-4.3 3.4 4.4 4.9h-1.5z"></path>
    </symbol>
	<symbol id="category_icon_1" viewBox="0 0 25 25">
		<path class="st0" d="M5.9 25c-2.1 0-3.8-1.6-3.8-3.6s1.7-3.6 3.8-3.6 3.8 1.6 3.8 3.6S8 25 5.9 25zm0-6.5c-1.8 0-3.2 1.3-3.2 3 0 1.6 1.4 3 3.2 3 1.8 0 3.2-1.3 3.2-3s-1.4-3-3.2-3z" fill="#8b8b8c"/>
		<path class="st0" d="M5.9 23.4c-1.1 0-2-.9-2-1.9 0-1.1.9-1.9 2-1.9s2 .9 2 1.9c.1 1-.9 1.9-2 1.9zm0-3.3c-.8 0-1.4.6-1.4 1.3s.6 1.3 1.4 1.3 1.4-.6 1.4-1.3-.6-1.3-1.4-1.3zM16.4 25c-2.1 0-3.8-1.6-3.8-3.6s1.7-3.6 3.8-3.6 3.8 1.6 3.8 3.6-1.7 3.6-3.8 3.6zm0-6.5c-1.8 0-3.2 1.3-3.2 3 0 1.6 1.4 3 3.2 3 1.8 0 3.2-1.3 3.2-3-.1-1.7-1.5-3-3.2-3z" fill="#8b8b8c"/>
		<path class="st0" d="M16.4 23.4c-1.1 0-2-.9-2-1.9 0-1.1.9-1.9 2-1.9s2 .9 2 1.9c0 1-.9 1.9-2 1.9zm0-3.3c-.8 0-1.4.6-1.4 1.3s.6 1.3 1.4 1.3c.8 0 1.4-.6 1.4-1.3s-.6-1.3-1.4-1.3z" fill="#8b8b8c"/>
		<path id="XMLID_9_" class="st0" d="M20.1 10.8c-.2 0-.3-.1-.3-.3 0-1.5.5-4.9 4.9-4.9.2 0 .3.1.3.3s-.1.3-.3.3c-3.7 0-4.3 2.7-4.3 4.3 0 .1-.1.3-.3.3z"/>
		<path class="st0" d="M11.1 10.8H1.3c-.2 0-.3-.1-.3-.3C1 5.2 5.5 1 11.1 1c.2 0 .3.1.3.3v9.2c0 .1-.1.3-.3.3zm-9.5-.6h9.2V1.5c-5 .2-9 4-9.2 8.7z" fill="#8b8b8c"/>
		<path id="XMLID_6_" class="st0" d="M11.1 10.8c-.2 0-.3-.1-.3-.3V.3c0-.2.2-.3.3-.3.2 0 .3.1.3.3v10.2c0 .1-.1.3-.3.3z"/>
		<path class="st0" d="M12.9 18H9c-4.4 0-8-3.4-8-7.5 0-.2.1-.3.3-.3h19.3c.2 0 .3.1.3.3 0 4.1-3.6 7.5-8 7.5zM1.6 10.8c.2 3.6 3.4 6.6 7.4 6.6h3.9c4 0 7.2-3 7.4-6.6H1.6z" fill="#8b8b8c"/>
		<path id="XMLID_3_" class="st0" d="M11.1 10.6c-.1 0-.1 0-.2-.1L3 3.8c-.1-.1-.1-.3 0-.4.1-.1.3-.1.4 0l7.9 6.7c.1.1.1.3 0 .4 0 0-.1.1-.2.1z"/>
		<path id="XMLID_2_" class="st0" d="M10.8 10.8H.3c-.2 0-.3-.1-.3-.3 0-.2.1-.3.3-.3h10.5c.2 0 .3.1.3.3 0 .1-.1.3-.3.3z"/>
		<path id="XMLID_1_" class="st0" d="M12.4 16.2c-.2 0-.3-.1-.3-.3 0-.2.1-.3.3-.3 2.5 0 4.7-1.6 5.4-3.8 0-.2.2-.2.4-.2s.3.2.2.4c-.7 2.5-3.2 4.2-6 4.2z"/>
	</symbol>
	<symbol id="category_icon_2" viewBox="0 0 25 25">
		<path class="st0" d="M12.5 25c-4.6 0-8.7-3.1-9.8-7.5-1.4 0-2.7-1.2-2.7-2.8s1.2-2.8 2.7-2.8H3C4.4 8 8.2 5.3 12.5 5.3S20.6 8 22 11.9h.2c1.5 0 2.7 1.2 2.7 2.8s-1.2 2.8-2.7 2.8c-1 4.3-5.1 7.5-9.7 7.5zM2.7 12.7c-1.1 0-2 .9-2 2s.9 2 2 2H3c.2 0 .3.2.4.3.9 4.2 4.8 7.2 9.2 7.2s8.3-3 9.2-7.2c.1-.2.2-.3.4-.3h.2c1.1 0 2-.9 2-2s-.9-2-2-2h-.5c-.2 0-.3-.1-.4-.2-1.2-3.8-4.8-6.3-8.9-6.3S5 8.7 3.7 12.5c-.1.2-.2.2-.4.2h-.6z"/>
		<circle id="XMLID_4_" class="st0" cx="15.7" cy="16.2" r="0.9"/>
		<circle id="XMLID_3_" class="st0" cx="9.7" cy="16.2" r="0.9"/>
		<path id="XMLID_2_" class="st0" d="M12.5 21.3c-.9 0-1.8-.2-2.7-.8l-.2-.1c-.2-.1-.2-.4-.2-.5.1-.2.4-.2.5-.2l.2.1c1.4.9 3.2.9 4.5 0l.2-.1c.2-.1.4-.1.5.2.2.2.1.4-.2.5l-.2.1c-.6.5-1.5.8-2.4.8z"/>
		<path id="XMLID_1_" d="M13.3 6.2c-1.8 0-3.3-1.5-3.3-3.4C10 1.2 11.2 0 12.7 0 14 0 15 1.1 15 2.3c0 1.1-.8 1.9-1.9 1.9-.9 0-1.6-.7-1.6-1.6 0-.2.2-.4.4-.4s.4.2.4.4c0 .5.4.9.8.9.6 0 1.1-.5 1.1-1.2 0-.9-.7-1.5-1.5-1.5-1.1 0-2 .9-2 2 0 1.5 1.1 2.6 2.6 2.6.2 0 .4.2.4.4s-.1.4-.4.4z" />
	</symbol>
	<symbol id="category_icon_3" viewBox="0 0 25 25">
		<path class="st0" d="M18.3 25h-4.8c-.1 0-.3-.2-.3-.4V23c-.1-.4-.5-3.8 1-5.9 1-1.4 1.9-1.9 2.5-2.3.4-.2.6-.4.8-.6l1.9-2.5c.5-.6 1.3-.7 1.8-.2l.9-1.8c0-.4 0-1.7.1-3.4.1-1 .4-1.6.8-2 .9-.6 1.8-.3 1.8-.3.1 0 .2.2.2.3v6.6l-1.5 5.2s0 .1-.1.1l-4.4 6c-.4.5-.4.8-.4.8v1.6c0 .2-.1.4-.3.4zm-4.5-.7h4.3v-1.2s0-.6.5-1.3L23 16l1.5-5.1V4.8c-.2 0-.7-.1-1 .2-.3.3-.5.8-.6 1.5-.2 2-.1 3.4-.1 3.4v.2l-1 2c.3.7.2 1.6-.2 2.2L19 17.8c-.1.1-.3.1-.4 0-.1-.1-.1-.4 0-.5l2.6-3.5c.2-.2.2-.5.2-.8 0-.3-.1-.6-.2-.8-.3-.4-.9-.4-1.2 0l-2 2.5c-.2.3-.6.5-1 .8-.6.4-1.4.9-2.3 2.1-1.4 1.9-.9 5.3-.9 5.3V24.3zM11.5 25H6.7c-.1 0-.3-.2-.3-.3v-1.6s0-.4-.4-.8l-4.4-5.9s0-.1-.1-.1L0 11V4.4c0-.2.1-.3.2-.4 0 0 .9-.3 1.6.3.5.4.7 1.1.8 2 .2 1.7.2 3 .1 3.4l.9 1.8c.6-.5 1.4-.4 1.9.2l1.9 2.5c.2.2.5.4.8.6.6.4 1.5.9 2.5 2.3 1.5 2.1 1.1 5.5 1 5.9v1.6c0 .2-.1.4-.2.4zm-4.6-.7h4.3V23v-.1s.5-3.4-.9-5.3c-.9-1.3-1.7-1.7-2.3-2.1-.4-.2-.7-.4-1-.8l-1.9-2.5c-.3-.4-.9-.4-1.2 0-.2.2-.2.5-.2.8 0 .3.1.6.2.8l2.6 3.5c.1.1.1.4 0 .5-.1.1-.3.1-.4 0l-2.6-3.5c-.5-.6-.5-1.5-.2-2.2l-1-2v-.2s.1-1.4-.1-3.4c-.1-.8-.3-1.3-.7-1.6-.3-.3-.8-.3-1-.2v6.1L2 15.9l4.4 5.8c.5.7.5 1.3.5 1.3v1.3z"/>
		<g>
		<path class="st0" d="M12.5 12.6s-.1 0-.1-.1c-.2-.1-3.8-3.2-4.9-6.5-.3-.5-.5-1.2-.5-1.9C7 1.8 8.3 0 9.9 0c1.1 0 2.1.9 2.6 2.2C13 .9 14 0 15.1 0 16.7 0 18 1.9 18 4.1c0 .7-.1 1.4-.4 2-1.2 3.3-4.8 6.3-5 6.4 0 .1-.1.1-.1.1zM9.9.7C8.6.7 7.6 2.2 7.6 4.1c0 .6.1 1.2.3 1.7 1 2.8 3.9 5.5 4.6 6 .7-.6 3.6-3.3 4.6-6 .2-.5.3-1.1.3-1.7 0-1.9-1-3.4-2.3-3.4-1.1 0-2.1 1.1-2.3 2.6 0 .2-.1.3-.3.3-.1 0-.2-.1-.3-.3C12 1.8 11 .7 9.9.7z"/>
		</g>
	</symbol>
	<symbol id="category_icon_4" viewBox="0 0 25 25">
		<path id="XMLID_9_" class="st0" d="M12.7 25h-2.4c-2.3 0-4.5-.9-6-2.6-1.5-1.7-2.3-3.8-2-6.1.2-1.9 1.2-3.8 2.8-5.1-.6-.5-1.1-1-1.6-1.7-.1-.1 0-.3.1-.4.1-.1.3 0 .4.1.4.7 1 1.3 1.7 1.7.2.2.3.3.3.4 0 .1 0 .2-.1.3-1.6 1.2-2.7 3-2.9 4.9-.2 2.1.4 4.1 1.8 5.6s3.4 2.4 5.5 2.4h2.4c7.9 0 11.1-3.2 11.7-11.5 0-.2-.1-.4-.3-.5-.2-.1-.4-.1-.6.1-1.1.8-2.4 1.3-3.8 1.3-1.6 0-3.2-.7-4.4-1.8h-.1c-.5-.5-1.2-.9-1.8-1.2-.1 0-.2-.1-.2-.2s0-.2.1-.3C14.4 9.2 15 7.8 15 6.3 15 3.2 12.4.6 9.1.6c-3 0-5.5 2.2-5.8 5.1 0 .2-.2.3-.3.3-.2 0-.3-.2-.3-.3C3 2.4 5.8 0 9.1 0c3.6 0 6.5 2.8 6.5 6.3 0 1.5-.5 2.9-1.5 4.1.6.3 1.1.6 1.6 1.1h.1c1 1.1 2.4 1.7 3.9 1.7 1.2 0 2.4-.4 3.4-1.1.4-.3.9-.3 1.3-.1.4.2.7.6.6 1.1-.6 8.4-4.1 11.9-12.3 11.9z"/>
		<path class="st0" d="M4 9.8H1.9c-.3 0-.6-.3-.6-.7 0-.3.1-.5.2-.7C.6 8 0 7 0 5.9c0-.4 0-.7.3-.9.3-.2.6 0 1 .1.3.1.7.3 1 .3.4 0 .7-.2 1-.3.3-.1.5-.2.7-.2h.2c.9.1 1.6 1.2 1.6 2.5S5 9.8 4 9.8zM.7 5.5v.3C.6 7 1.4 8 2.3 8c.1 0 .3.1.3.2s0 .3-.2.3l-.4.3s-.1.2-.1.3v.1H4c.6 0 1.1-.9 1.1-1.8S4.6 5.6 4 5.6h-.1c.1-.1-.1 0-.3.1-.3.1-.8.3-1.3.3s-.9-.2-1.2-.3c-.2-.1-.3-.1-.4-.2zM8 6.3c-.8 0-1.5-.6-1.5-1.4S7.1 3.4 8 3.4c.8 0 1.5.6 1.5 1.4S8.8 6.3 8 6.3zM8 4c-.5 0-.9.4-.9.9s.4.8.9.8.9-.4.9-.8C8.8 4.4 8.4 4 8 4zM12 21.8c-2.4 0-4.4-1.9-4.4-4.2s2-4.2 4.4-4.2c2.3 0 6.8 3.8 7 4 .1.1.1.1.1.2s0 .2-.1.2c-.2.1-4.6 4-7 4zm0-7.9c-2.1 0-3.7 1.6-3.7 3.6s1.7 3.6 3.7 3.6c1.6 0 4.9-2.4 6.3-3.6-1.4-1.1-4.7-3.6-6.3-3.6z"/>
		<path id="XMLID_2_" class="st0" d="M17.3 19c-.1 0-.1 0-.2-.1-.9-.7-2.2-1.7-3.5-2.4-.2-.1-.2-.3-.1-.4.1-.1.3-.2.4-.1 1.3.7 2.7 1.7 3.6 2.5.1.1.2.3 0 .4 0 .1-.1.1-.2.1z"/>
		<g>
		<path id="XMLID_1_" class="st0" d="M2.3 8.6c-.1 0-.3-.1-.3-.2 0-.2.1-.4.3-.4l1.3-.2c.2 0 .3.1.4.3 0 .2-.1.3-.3.3l-1.4.2c.1 0 0 0 0 0z"/>
		</g>
	</symbol>
	<symbol id="category_icon_5" viewBox="0 0 25 25">
		<path d="M25 12.5C25 6 20 .7 13.7.1h-.1c-.4-.1-.7-.1-1.1-.1-4.1 0-7.7 2-10 5 0 0 0 .1-.1.1C.9 7.2 0 9.7 0 12.5s.9 5.4 2.5 7.4c0 0 0 .1.1.1 2.3 3 5.9 5 10 5 1.1 0 2.2-.2 3.3-.4 5.2-1.5 9.1-6.3 9.1-12.1zm-8.9 11.4c1.8-7.2 1.4-12-1.2-15.1 5.3.2 9.6 2.7 9.6 3.7 0 5.4-3.6 9.9-8.4 11.4zM14.3 2.7c-.1-1-.2-1.7-.3-2.1 1.9.2 3.7.9 5.2 2-2 1.5-2.2 1.7-4.5 4.8l-.3.4c.1-2 0-3.7-.1-5.1zm10.2 8.8c-1.4-1.4-5.2-3.1-9.7-3.2l.4-.6c2.3-3.1 2.4-3.2 4.4-4.7 2.8 1.9 4.5 5 4.9 8.5zm-12-11c.3 0 .7 0 1 .1.2.4.5 3.1.5 7.2-1.8-2-5-2.8-10.8-2.9C5.4 2.2 8.8.5 12.5.5zM2.8 5.4c6.1 0 9.2.8 10.9 2.8-6 .3-10.8 5-11.2 10.8C1.3 17.1.6 14.9.6 12.5c-.1-2.6.8-5.1 2.2-7.1zm.1 14.3C3 13.7 8 8.8 14.1 8.8c2.9 3 3.3 7.9 1.4 15.3-1 .2-2 .4-3 .4-3.9 0-7.4-1.9-9.6-4.8z" />
	</symbol>
	<symbol id="category_icon_6" viewBox="0 0 25 25">
		<path id="XMLID_13_" class="st0" d="M2.5 9c-.2 0-.4-.1-.4-.3V1.6C2.1.7 3 0 4.2 0c1.1 0 2.1.7 2.1 1.6v3c-.1.3-.3.4-.5.4s-.4-.1-.4-.3v-3c0-.6-.6-1-1.3-1-.7 0-1.3.5-1.3 1v7.1c.1.1-.1.2-.3.2z"/>
		<path class="st0" d="M12.5 25C5.8 25 0 25 0 17.8 0 10.1 3.9 2.3 12.5 2.3S25 10.1 25 17.8C25 25 19.2 25 12.5 25zm0-22.1C4.4 2.9.8 10.4.8 17.8c0 6.6 4.9 6.6 11.7 6.6 6.8 0 11.7 0 11.7-6.6 0-7.4-3.6-14.9-11.7-14.9z"/>
		<path class="st0" d="M12.5 17.3c-4.3 0-7.8-2.8-7.8-6.2 0-3.4 3.5-6.2 7.8-6.2s7.8 2.8 7.8 6.2c0 3.4-3.5 6.2-7.8 6.2zm0-11.8c-3.9 0-7 2.5-7 5.6 0 3.1 3.2 5.6 7 5.6s7-2.5 7-5.6c0-3.1-3.1-5.6-7-5.6zM12.5 22.1c-1 0-1.8-.6-1.8-1.4 0-.8.8-1.4 1.8-1.4s1.8.6 1.8 1.4c0 .7-.8 1.4-1.8 1.4zm0-2.2c-.6 0-1 .4-1 .8s.5.8 1 .8c.6 0 1-.4 1-.8 0-.5-.4-.8-1-.8zM17 21c-.7 0-1.3-.5-1.3-1 0-.6.6-1 1.3-1 .7 0 1.3.5 1.3 1s-.6 1-1.3 1zm0-1.4c-.3 0-.5.2-.5.4s.2.4.5.4.5-.2.5-.4c0-.3-.2-.4-.5-.4zM8 21c-.7 0-1.3-.5-1.3-1 0-.6.6-1 1.3-1 .7 0 1.3.5 1.3 1s-.6 1-1.3 1zm0-1.4c-.3 0-.5.2-.5.4s.2.4.5.4.5-.2.5-.4c0-.3-.2-.4-.5-.4z"/>
		<g>
		<path class="st0" d="M12.5 15.4c-3 0-5.4-1.9-5.4-4.3s2.4-4.3 5.4-4.3 5.4 1.9 5.4 4.3c0 2.3-2.4 4.3-5.4 4.3zm0-8C10 7.4 7.9 9 7.9 11.1c0 2 2.1 3.7 4.6 3.7s4.6-1.6 4.6-3.7c0-2-2.1-3.7-4.6-3.7z"/>
		</g>
	</symbol>
	<symbol id="category_icon_7" viewBox="0 0 25 25">
		<path id="XMLID_5_" class="st0" d="M20.4 25H8.7c-3.5 0-6.4-2.2-6.8-5.1L0 5.5c-.2-1.7 1.1-3.4 3-4.1.2-.1.4 0 .4.2.1.2 0 .3-.2.4C1.6 2.5.5 4 .7 5.4l1.9 14.4c.4 2.6 3 4.6 6.1 4.6h11.7c.9 0 1.7-.5 1.8-1.3l.2-.8c0-.2.2-.3.4-.2.2 0 .3.2.3.3l-.2.8c-.2 1.1-1.3 1.8-2.5 1.8z"/>
		<path id="XMLID_4_" class="st0" d="M11 23.5c-3.5 0-6.4-2.2-6.8-5.1L2.4 5.2c0-.2.1-.3.3-.3.2 0 .4.1.4.3l1.8 13.2C5.3 21 7.9 23 11 23c.2 0 .3.1.3.3 0 .1-.1.2-.3.2z"/>
		<path class="st0" d="M23 22.9c-.1 0-.2-.1-.3-.1 0 0-2.9-4.1-10.2-4.2-1.6 0-2.7-.3-3.3-.9-.9-.8-.9-2.2-.8-3.9.1-2.5.3-5.8-2.4-9.6-1.8-1.8-3-2.6-3-2.6-.1-.1-.2-.2-.1-.4.3-.5 1.3-1.5 3-1.2 1 .2 4.3 1 6.1 3.7 1.4 2.1 1.6 4.7.5 7.8-.5 1.5-.6 2.5-.1 3 .5.6 2 .6 3.8.6 3.5 0 7.9 1.5 8.8 5.8.1.5 0 1-.4 1.3-.6.6-1.6.7-1.6.7zM3.6 1.3c.4.3 1.5 1.2 2.8 2.6 2.9 4 2.7 7.5 2.6 10-.1 1.6-.2 2.8.6 3.5.5.5 1.4.7 2.8.7 7 0 10 3.4 10.7 4.3.2-.1.7-.2.9-.5.2-.2.3-.5.2-.9-.8-3.9-4.9-5.3-8.2-5.3-2 0-3.6 0-4.3-.9-.6-.7-.6-1.7 0-3.4 1-3 .9-5.4-.4-7.3C9.6 1.6 6.3.8 5.6.7c-1.1-.3-1.7.3-2 .6z"/>
		<path id="XMLID_1_" class="st0" d="M2.3 20.2c-.1 0-.2 0-.3-.1-.1-.1-.1-.3.1-.4l6.4-3.6c.2-.1.4-.1.5 0 .1.1.1.3-.1.4l-6.4 3.6c-.1 0-.1.1-.2.1z"/>
	</symbol>
	<symbol id="category_icon_8" viewBox="0 0 25 25">
		<path id="XMLID_12_" class="st0" d="M7.6 25H7c-.6 0-1.1-.5-1.1-1.2v-1.3c0-.2.1-.3.3-.3.2 0 .3.1.3.3v1.3c0 .3.2.5.5.5h.6c.3 0 .5-.2.5-.5v-1c0-.2.1-.3.3-.3.2 0 .3.1.3.3v1c0 .7-.5 1.2-1.1 1.2z"/>
		<path id="XMLID_11_" class="st0" d="M18 25h-.6c-.6 0-1.1-.5-1.1-1.2v-1c0-.2.1-.3.3-.3.2 0 .3.1.3.3v1c0 .3.2.5.5.5h.6c.3 0 .5-.2.5-.5v-1.2c0-.2.1-.3.3-.3.2 0 .3.1.3.3v1.2c0 .7-.5 1.2-1.1 1.2z"/>
		<path id="XMLID_10_" class="st0" d="M17.3 23.2H7.9c-2.7 0-5-2.1-5.4-4.9l-1.1-6.6c0-.2.1-.3.2-.4.2 0 .3.1.3.3L3 18.3c.3 2.5 2.4 4.4 4.8 4.4h9.4c2.4 0 4.5-1.9 4.8-4.4l.8-5.2c0-.2.2-.3.3-.3.2 0 .3.2.2.4l-.8 5.2c-.2 2.7-2.5 4.8-5.2 4.8z"/>
		<path class="st0" d="M23.7 13.3H12.1c-1.5 0-3-.3-4.4-.8-1.1-.4-2.3-.6-3.5-.6H1.3c-.7 0-1.3-.6-1.3-1.4C0 9.7.6 9 1.3 9h2.8c1.5 0 3 .3 4.4.8 1.1.4 2.3.6 3.5.6h11.6c.7 0 1.3.6 1.3 1.4.1.9-.5 1.5-1.2 1.5zM1.3 9.6c-.4 0-.8.4-.8.8s.3.8.8.8h2.8c1.3 0 2.5.2 3.7.7 1.4.5 2.8.8 4.2.8h11.6c.4 0 .8-.4.8-.8s-.3-.8-.8-.8H12.1c-1.3 0-2.5-.2-3.7-.7-1.4-.5-2.8-.8-4.2-.8H1.3zM18.3 9.1c-1.9 0-3.5-1.7-3.5-3.7 0-2.1 1.6-3.7 3.5-3.7s3.5 1.7 3.5 3.7-1.6 3.7-3.5 3.7zm0-6.8c-1.6 0-2.9 1.4-2.9 3.1 0 1.7 1.3 3.1 2.9 3.1s2.9-1.4 2.9-3.1c0-1.7-1.3-3.1-2.9-3.1zM9.5 7.6c-.4 0-.7-.1-1.1-.3-.6-.3-1-.8-1.2-1.5-.2-.6-.2-1.3.1-1.9.3-.6.8-1.1 1.4-1.3 1.3-.5 2.6.3 3.1 1.6.4 1.3-.2 2.8-1.5 3.2-.3.1-.6.2-.8.2zm0-4.5c-.2 0-.4 0-.6.1-.5.2-.9.5-1.1 1-.2.5-.2 1-.1 1.5.2.5.5.9.9 1.1.5.2 1 .2 1.5.1 1-.3 1.5-1.5 1.1-2.5-.3-.8-1-1.3-1.7-1.3z"/>
		<g>
		<path class="st0" d="M3.4 2.7c-.5 0-1-.4-1.2-.9-.1-.3-.1-.7.1-1 .1-.4.4-.6.7-.7.7-.2 1.4.1 1.6.8.2.7-.1 1.5-.8 1.7-.1 0-.2.1-.4.1zm0-2.1h-.2c-.2.1-.3.2-.4.4-.1.2-.1.4 0 .6 0 .1.2.3.3.4.2.1.3.1.5 0 .4-.1.6-.5.5-.9C4 .9 3.9.8 3.7.7 3.6.6 3.5.6 3.4.6z"/>
		</g>
		<g>
		<path id="XMLID_1_" class="st0" d="M16.4 21.5h-4.8c-.2 0-.3-.1-.3-.3 0-.2.1-.3.3-.3h4.8c1.9 0 3.6-1.5 3.9-3.6l.4-2.3c0-.2.2-.3.3-.3.2 0 .3.2.2.4l-.4 2.3c-.2 2.4-2.1 4.1-4.4 4.1z"/>
		</g>
	</symbol>
	<symbol id="category_icon_9" viewBox="0 0 25 25">
		<path class="st0" d="M8.9 16.1h-.8c-2.4-.2-4.5-1.2-6-2.9C-1.1 9.8-.6 4.7 3.2 1.9 5 .5 7.4-.2 9.7 0c2.4.2 4.5 1.2 6 2.9s2.2 3.7 2 5.9c-.2 2.1-1.3 4.1-3.2 5.5-1.5 1.2-3.5 1.8-5.6 1.8zM8.9.6c-1.9 0-3.8.6-5.2 1.8C.2 5-.3 9.7 2.6 12.8 4 14.3 6 15.3 8.2 15.5c2.2.2 4.3-.4 6-1.7 1.7-1.3 2.7-3.1 2.9-5 .2-2-.5-3.9-1.9-5.4C13.8 1.9 11.8.9 9.6.8 9.4.6 9.2.6 8.9.6z"/>
		<path id="XMLID_7_" class="st0" d="M12.9 12.7c-.1 0-.2 0-.3-.1-.1-.1-.1-.3 0-.4 1.2-.9 2-2.2 2.1-3.6.1-1.4-.3-2.8-1.3-3.9-.9-.9-2-1.6-3.3-1.8-.2 0-.3-.2-.3-.4s.2-.3.4-.2c1.5.3 2.8 1 3.7 2 1.1 1.2 1.7 2.8 1.5 4.4-.2 1.6-1 3-2.4 4h-.1z"/>
		<path class="st0" d="M8.9 16.1h-.8c-2.4-.2-4.5-1.2-6-2.9-.1-.1-.1-.3 0-.4l13.2-9.9c.1-.1.2-.1.3-.1.1 0 .2 0 .2.1 1.5 1.7 2.2 3.7 2 5.9-.2 2.1-1.3 4.1-3.2 5.5-1.6 1.2-3.6 1.8-5.7 1.8zm-6.1-3c1.4 1.4 3.3 2.2 5.3 2.4 2.2.2 4.3-.4 6-1.7 1.7-1.3 2.7-3.1 2.9-5 .2-1.9-.4-3.7-1.7-5.2L2.8 13.1z"/>
		<path id="XMLID_4_" class="st0" d="M22.2 25h-.3c-.7-.1-1.4-.4-1.9-.9l-4.4-4.8c-.1-.1-.1-.3 0-.4.1-.1.4-.1.5 0l4.4 4.8c.4.4.9.6 1.4.7.6 0 1.1-.1 1.5-.4.4-.3.7-.8.7-1.3.1-.5-.1-1-.5-1.4l-4.4-4.8c-.1-.1-.1-.3 0-.4.1-.1.4-.1.5 0l4.4 4.8c.5.5.7 1.2.6 1.8-.1.7-.4 1.3-1 1.7-.2.4-.8.6-1.5.6z"/>
		<path class="st0" d="M13.9 21.5c-.6 0-1.1-.2-1.5-.6l-2.1-2.3c-.4-.5-.6-1.1-.3-1.7.2-.6.8-1 1.5-1.1l4-.6 1.4-3.4c.2-.6.8-1 1.5-1.1.7-.1 1.4.1 1.8.6l2.1 2.3c.4.5.6 1.1.3 1.7-.2.6-.8 1-1.5 1.1l-4 .6-1.4 3.4c-.2.6-.8 1-1.5 1.1h-.3zm4.7-10.3h-.2c-.4.1-.8.3-.9.7L16 15.5c0 .1-.1.2-.3.2l-4.2.6c-.4.1-.8.3-.9.7-.2.4-.1.8.2 1.1l2.1 2.3c.3.3.7.5 1.2.4.4-.1.8-.3.9-.7l1.5-3.6c0-.1.1-.2.3-.2l4.2-.6c.4-.1.8-.3.9-.7.2-.4.1-.8-.2-1.1l-2.1-2.3c-.3-.3-.6-.4-1-.4z"/>
		<g>
		<path id="XMLID_1_" class="st0" d="M16.9 17c-.1 0-.2 0-.3-.1l-1.2-1.3c-.1-.1-.1-.3 0-.4.1-.1.4-.1.5 0l1.2 1.3c.1.1.1.3 0 .4-.1.1-.2.1-.2.1z"/>
		</g>
	</symbol>
	<symbol id="category_icon_10" viewBox="0 0 25 25">
		<path id="XMLID_11_" class="st0" d="M18.5 7.6c-.3 0-.6-.1-.6-.3 0-.9-.9-1.8-2.4-2.4-.7-.2-1.1-.6-1.1-1V2.6c0-.2 0-.4.1-.6.1-.2.1-.4-.1-.6-.3-.4-1.1-.8-2-.8-.6 0-1.1.1-1.5.3-.4.2-.6.5-.6.8 0 .1 0 .2.1.3.1.2.1.4.1.6V4c0 .4-.4.8-1.1 1-1.4.5-2.3 1.4-2.3 2.3 0 .2-.3.3-.6.3S6 7.5 6 7.3c0-1.1 1-2.2 2.8-2.8.4-.1.6-.3.6-.5V2.6c0-.1 0-.3-.1-.4 0-.2-.1-.3-.1-.5 0-.5.3-.9 1-1.2.6-.3 1.5-.5 2.3-.5 1.3 0 2.5.5 3 1.1.2.3.3.6.2 1-.1.1-.1.3-.1.5V4c0 .2.2.4.6.5C18 5.1 19 6.2 19 7.3c0 .2-.2.3-.5.3z"/>
		<path class="st0" d="M20 9.6H4.6c-.3 0-.6-.1-.6-.3V8.2C4 7.5 5 7 6.1 7h12.3c1.2 0 2.1.5 2.1 1.1v1.2c.1.2-.2.3-.5.3zM5.2 9h14.3v-.8c0-.3-.4-.5-1-.5H6.1c-.5 0-1 .2-1 .5V9z"/>
		<path id="XMLID_8_" class="st0" d="M21.2 11.1c-.3 0-.6-.1-.6-.3V10c0-.2-.3-.3-.7-.3H4.6c-.4 0-.7.2-.7.3v.9c0 .2-.3.3-.6.3s-.6-.1-.6-.3V10c.1-.6.9-1 1.9-1H20c1 0 1.8.4 1.8.9v.9c0 .2-.2.3-.6.3z"/>
		<path id="XMLID_7_" class="st0" d="M5.1 14.7H.7c-.3 0-.6-.1-.6-.3s.3-.3.6-.3h4.4c.3 0 .6.1.6.3s-.3.3-.6.3z"/>
		<path id="XMLID_6_" class="st0" d="M5.1 21.4H.7c-.3 0-.6-.1-.6-.3 0-.2.3-.3.6-.3h4.4c.3 0 .6.1.6.3 0 .1-.3.3-.6.3z"/>
		<path id="XMLID_5_" class="st0" d="M5.1 19.1H.7c-.3 0-.6-.1-.6-.3 0-.2.3-.3.6-.3h4.4c.3 0 .6.1.6.3 0 .2-.3.3-.6.3z"/>
		<path id="XMLID_4_" class="st0" d="M5.1 16.9H.7c-.3 0-.6-.1-.6-.3 0-.2.3-.3.6-.3h4.4c.3 0 .6.1.6.3 0 .2-.3.3-.6.3z"/>
		<path class="st0" d="M19.8 25H5.2C2.4 25 0 23.8 0 22.2v-9c0-1.5 2.4-2.8 5.2-2.8h14.5c2.9 0 5.2 1.2 5.2 2.8v9c.1 1.6-2.3 2.8-5.1 2.8zM5.2 11c-2.3 0-4.1 1-4.1 2.2v9c0 1.2 1.8 2.2 4.1 2.2h14.5c2.3 0 4.1-1 4.1-2.2v-9c0-1.2-1.8-2.2-4.1-2.2H5.2z"/>
		<g>
		<path id="XMLID_1_" class="st0" d="M18.6 23.3h-3c-.3 0-.6-.1-.6-.3 0-.2.3-.3.6-.3h3c1.2 0 2.1-.5 2.1-1.1v-7.5c0-.2.3-.3.6-.3s.6.1.6.3v7.5c-.1 1-1.5 1.7-3.3 1.7z"/>
		</g>
	</symbol>
	<symbol id="category_icon_11" viewBox="0 0 25 25">
		<path id="XMLID_10_" class="st0" d="M16.4 10.3c-2 0-3.6-1-3.6-2.1v-1c0-.2.2-.3.4-.3s.4.1.4.3v1c0 .8 1.2 1.5 2.7 1.5 1.5 0 2.7-.7 2.7-1.5v-1c0-.2.2-.3.4-.3.4 0 .6.1.6.3v1c0 1.2-1.6 2.1-3.6 2.1z"/>
		<path id="XMLID_9_" class="st0" d="M8.6 10.3c-2 0-3.5-1-3.5-2.1v-1c-.1-.2.1-.3.3-.3s.4.1.4.3v1C5.8 9 7 9.7 8.5 9.7c1.5 0 2.7-.7 2.7-1.5v-1c0-.2.2-.3.4-.3s.4.1.4.3v1c.1 1.2-1.5 2.1-3.4 2.1z"/>
		<path id="XMLID_8_" class="st0" d="M20 7.3H5c-.2 0-.4-.1-.4-.3s.2-.3.4-.3h15c.2 0 .4.1.4.3s-.2.3-.4.3z"/>
		<path id="XMLID_7_" class="st0" d="M12.5 14.4c-4 0-7.3-2.5-7.3-5.5 0-.2.2-.3.4-.3.2-.1.4.1.4.2 0 2.7 2.9 4.9 6.5 4.9S19 11.5 19 8.8c0-.2.2-.3.4-.3s.4.1.4.3c0 3.1-3.3 5.6-7.3 5.6z"/>
		<path id="XMLID_6_" class="st0" d="M24.2 13.5h-7.6c-.2 0-.4-.1-.4-.3s.2-.3.4-.3h7.2v-2.3c0-5.5-5.1-10-11.3-10-6.2 0-11.3 4.5-11.3 10v2.3h7.3c.2 0 .4.1.4.3s-.2.3-.4.3H.8c-.2 0-.4-.1-.4-.3v-2.6C.4 4.8 5.8 0 12.5 0c6.7 0 12.1 4.8 12.1 10.6v2.6c0 .2-.2.3-.4.3z"/>
		<g>
		<path class="st0" d="M24.6 25H.4c-.2 0-.4-.1-.4-.3v-4.9c0-2.4 2.6-4.4 5.7-4.4h13.5c3.2 0 5.7 2 5.7 4.4v4.9c.1.2-.1.3-.3.3zM.8 24.4h23.4v-4.6c0-2.1-2.2-3.8-4.9-3.8H5.7C3 16 .8 17.7.8 19.8v4.6z"/>
		<path id="XMLID_3_" class="st0" d="M19.6 25c-.2 0-.4-.1-.4-.3v-2.9c0-.2.2-.3.4-.3s.4.1.4.3v2.9c0 .2-.2.3-.4.3z"/>
		<path id="XMLID_2_" class="st0" d="M5.4 25c-.2 0-.4-.1-.4-.3v-2.9c0-.2.2-.3.4-.3s.4.1.4.3v2.9c0 .2-.2.3-.4.3z"/>
		</g>
		<g>
		<path id="XMLID_1_" class="st0" d="M22.8 23.7c-.2 0-.4-.1-.4-.3V20c0-.9-.7-1.8-1.7-2.2-.2-.1-.3-.3-.1-.4.1-.1.4-.2.5-.1 1.3.6 2.1 1.6 2.1 2.8v3.4c0 .1-.2.2-.4.2z"/>
		</g>
	</symbol>
	<symbol id="category_icon_12" viewBox="0 0 25 25">
		<path id="XMLID_14_" class="st0" d="M21.9 18.4H3.1c-.2 0-.4-.1-.4-.3s.2-.3.4-.3h18.8c.2 0 .4.1.4.3s-.2.3-.4.3z"/>
		<path id="XMLID_13_" class="st0" d="M21.9 21.9H3.1c-.2 0-.4-.1-.4-.3 0-.2.2-.3.4-.3h18.8c.2 0 .4.1.4.3-.1.1-.2.3-.4.3z"/>
		<path class="st0" d="M21.9 11.3H3.1c-.2 0-.4-.1-.4-.3V9.7c0-.2.2-.3.4-.3h18.8c.2 0 .4.1.4.3V11c-.1.1-.2.3-.4.3zm-18.4-.6h18.1V10H3.5v.7z"/>
		<path class="st0" d="M3.1 25H.4c-.2 0-.4-.1-.4-.3V6.1c0-.8.8-1.5 1.7-1.5s1.7.7 1.7 1.5v18.6c.1.2-.1.3-.3.3zm-2.4-.6h2V6.1c0-.5-.5-.9-1-.9-.6 0-1 .4-1 .9v18.3zM24.6 25h-2.8c-.2 0-.4-.1-.4-.3V6.1c0-.8.8-1.5 1.7-1.5 1 0 1.7.7 1.7 1.5v18.6c.2.2 0 .3-.2.3zm-2.4-.6h2V6.1c0-.5-.5-.9-1-.9-.6 0-1 .4-1 .9v18.3zM10.7 6.9c-2.2 0-4.1-1.6-4.1-3.5C6.7 1.6 8.5 0 10.7 0h.6c.1 0 .2.1.3.2 0 .1 0 .2-.1.3-.6.5-.9 1.1-.9 1.8 0 1.3 1.3 2.4 2.8 2.4h.5c.1 0 .3 0 .4.1.1.1.1.2 0 .3-.8 1.2-2.1 1.8-3.6 1.8zM10.5.6C8.7.7 7.4 2 7.4 3.5c0 1.6 1.5 2.9 3.4 2.9 1 0 1.9-.4 2.5-1-1.9-.1-3.4-1.4-3.4-3-.1-.7.1-1.3.6-1.8z"/>
		<path id="XMLID_4_" class="st0" d="M6.8 21.9c-.2 0-.4-.1-.4-.3V11c0-.2.2-.3.4-.3s.4.1.4.3v10.5c0 .2-.2.4-.4.4z"/>
		<path id="XMLID_3_" class="st0" d="M10.6 21.9c-.2 0-.4-.1-.4-.3V11c0-.2.2-.3.4-.3s.4.1.4.3v10.5c-.1.2-.2.4-.4.4z"/>
		<path id="XMLID_2_" class="st0" d="M14.4 21.9c-.2 0-.4-.1-.4-.3V11c0-.2.2-.3.4-.3s.4.1.4.3v10.5c-.1.2-.2.4-.4.4z"/>
		<path id="XMLID_1_" class="st0" d="M18.1 21.9c-.2 0-.4-.1-.4-.3V11c0-.2.2-.3.4-.3s.4.1.4.3v10.5c0 .2-.2.4-.4.4z"/>
	</symbol>
	<symbol id="category_icon_13" viewBox="0 0 25 25">
		<path class="st0" d="M14.5 25h-4c-.2 0-.3-.1-.3-.3 0-3.2-4.9-5-4.9-5-.1 0-.2-.2-.2-.3V7.9L3.6 9.2c-.1.1-.3.1-.4 0L.1 5.4C0 5.3 0 5.1.1 5L5.2.1c0-.1.1-.1.2-.1h3.5c.1 0 .3.1.3.3 0 1.8 1.5 3.3 3.3 3.3 1.8 0 3.3-1.5 3.3-3.3 0-.2.2-.3.3-.3h3.5c.1 0 .1 0 .2.1L24.9 5c.1.1.1.3 0 .4l-3.1 3.7c-.1.1-.3.1-.4 0l-1.5-1.3v11.5c0 .1-.1.2-.2.3 0 0-4.9 1.8-4.9 5 0 .3-.1.4-.3.4zm-3.7-.6h3.4c.2-3.1 4.2-4.8 5.1-5.2V7.3c0-.1.1-.2.2-.3.1-.1.2 0 .3 0l1.7 1.5 2.8-3.3L19.5.6h-3.1c-.2 2-1.8 3.6-3.9 3.6-2.1 0-3.8-1.6-3.9-3.6H5.5L.7 5.2l2.8 3.3L5.2 7c.1 0 .2-.1.3 0 .1 0 .2.1.2.3v11.9c.9.4 4.8 2.1 5.1 5.2z"/>
		<path class="st0" d="M12.4 16.6h-.2c-.1-.1-3.4-2.3-4.4-4.7-.2-.4-.3-.9-.3-1.5 0-1.6 1.2-2.9 2.6-2.9 1 0 1.9.6 2.3 1.5.5-.9 1.4-1.5 2.4-1.5 1.5 0 2.6 1.4 2.6 3 0 .5-.1 1-.4 1.5-1.1 2.3-4.4 4.5-4.6 4.6.1 0 .1 0 0 0zm-2.2-8.5c-1.1 0-2 1-2.1 2.3 0 .4.1.8.3 1.2.8 1.9 3.4 3.9 4.1 4.3.7-.4 3.3-2.3 4.2-4.2.2-.4.3-.8.3-1.2 0-1.3-.9-2.4-2-2.4-1 0-1.8.7-2.1 1.8 0 .1-.1.2-.3.2-.1 0-.3-.1-.3-.2-.3-1-1.2-1.8-2.1-1.8z"/>
		<path id="XMLID_3_" class="st0" d="M14.7 23.9h-4.3c-.2 0-.3-.1-.3-.3 0-.2.1-.3.3-.3h4.3c.2 0 .3.1.3.3-.1.1-.2.3-.3.3z"/>
		<path id="XMLID_2_" class="st0" d="M5.4 7.6c-.2 0-.3-.1-.3-.3v-7c0-.2.1-.3.3-.3s.3.1.3.3v7c0 .1-.2.3-.3.3z"/>
		<path id="XMLID_1_" class="st0" d="M19.6 7.6c-.2 0-.3-.1-.3-.3v-7c0-.2.1-.3.3-.3s.3.1.3.3v7c0 .1-.1.3-.3.3z"/>
	</symbol>
	<symbol id="email_icon" viewBox="0 0 34 34">
		<path d="M17 0C7.6 0 0 7.6 0 17s7.6 17 17 17 17-7.6 17-17S26.4 0 17 0zm0 6l10.1 6.3H6.9L17 6zm10.2 16.3c0 1-.8 1.8-1.8 1.8H8.6c-1 0-1.8-.8-1.8-1.8v-9.6-.3l9.6 6c.1 0 .1.1.2.1h.4c.1 0 .1 0 .2-.1l9.6-6v.3l.4 9.6z" fill="#e63c25"/>
	</symbol>
	<symbol id="viber_icon" viewBox="0 0 34 34">
		<path id="XMLID_7_" d="M34 17c0 9.4-7.6 17-17 17S0 26.4 0 17 7.6 0 17 0s17 7.6 17 17z" fill="#88449a"/>
		<path class="st1" d="M19.3 5.8h-4.5c-4.6 0-8.3 3.7-8.3 8.3v3.2c0 2.2.9 4.3 2.4 5.8v4.2c0 .4.2.8.6 1 .2.1.4.2.6.2s.4-.1.6-.2l4.7-2.7h4c4.6 0 8.3-3.7 8.3-8.3v-3.2c-.2-4.6-3.9-8.3-8.4-8.3zm6.5 11.6c0 3.5-2.8 6.3-6.3 6.3h-3.7L10 27.2v-5.5c-1.1-1.1-1.7-2.7-1.7-4.3V14c0-3.5 2.8-6.3 6.3-6.3h4.9c3.5 0 6.3 2.8 6.3 6.3v3.4z" fill="#fff"/>
		<path id="XMLID_4_" class="st1" d="M15.8 10.9c-.1-.2-.1-.4.1-.5 1.6-.8 3.7-.4 5.1 1.1 1.4 1.4 1.9 3.5 1.1 5.1-.1.1-.3.2-.4.1-.1-.1-.2-.3-.1-.4.7-1.4.3-3.2-1-4.4-1.2-1.2-3.1-1.6-4.4-1-.2.1-.3.1-.4 0z" fill="#fff"/>
		<path id="XMLID_3_" class="st1" d="M16.5 12.2s-.1 0 0 0c-.1-.2-.1-.4.1-.5 1.1-.5 2.5-.2 3.5.8s1.3 2.4.8 3.4c-.1.2-.3.2-.4.1-.2-.1-.2-.3-.1-.4.4-.9.2-2-.6-2.8-.8-.8-1.9-1-2.8-.6-.3.2-.4.1-.5 0z" fill="#fff"/>
		<path id="XMLID_2_" class="st1" d="M17.2 13.6l-.1-.1c-.1-.2 0-.3.2-.4.6-.2 1.3 0 1.8.4.5.5.7 1.2.4 1.8-.1.2-.2.2-.4.2-.2-.1-.2-.2-.2-.4.1-.4 0-.8-.3-1.1s-.8-.4-1.1-.3c-.1 0-.3-.1-.3-.1z" fill="#fff"/>
		<path id="XMLID_1_" class="st1" d="M15 13l-2.1-2.1c-.3-.3-.6-.3-.8-.1l-.2.2c-1 1-1.2 2.4-.4 3.4 1 1.2 2.1 2.4 3.2 3.5 1 1.1 2.3 2.2 3.5 3.2 1 .8 2.4.6 3.4-.4l.2-.2c.2-.2.1-.6-.1-.8l-2.1-2.1c-.5-.5-.8-.4-1-.2l-.3.3c-.2.2-.7.2-1.1 0-.4-.2-.8-.6-1.2-1-.4-.4-.7-.8-1-1.2-.3-.4-.2-.9 0-1.1.1 0 .3-.3.3-.3.1-.2.2-.6-.3-1.1z" fill="#fff"/>
	</symbol>
	<symbol id="paperclip_icon" viewBox="0 0 50 50">
		<path d="M25 0C11.2 0 0 11.2 0 25s11.2 25 25 25 25-11.2 25-25S38.8 0 25 0zm5.1 23v3c0 2-1.6 3.7-3.7 3.7s-3.7-1.6-3.7-3.7v-5.8c0-.5.4-.9.9-.9s.9.4.9.9V26c0 1.1.9 1.9 1.9 1.9 1.1 0 1.9-.9 1.9-1.9v-7.2c0-1.9-1.5-3.3-3.3-3.3-1.9 0-3.3 1.5-3.3 3.3v12.4c0 1.9 1.5 3.3 3.3 3.3 1.9 0 3.3-1.5 3.3-3.3 0-.5.4-.9.9-.9s.9.4.9.9c0 2.8-2.3 5.1-5.1 5.1s-5-2.3-5-5.2V18.8c0-2.8 2.3-5.1 5.1-5.1s5.1 2.3 5.1 5.1V23h-.1z" fill="#9b69ac"/>
		<circle cx="25" cy="25" r="21.8" fill="none" stroke="#fff" stroke-width=".75" stroke-miterlimit="10" stroke-dasharray="5.054 5.054"/>
	</symbol>
	<symbol id="teddy_bear_icon" viewBox="0 0 35 50">
		<g id="XMLID_54_">
		<path id="XMLID_2950_" class="st0" d="M26.2 27c-.2 1.6-.3 3.2-.6 4.7-.4 1.6-.9 3.3-2.2 4.5-.2.2-.4.7-.4 1 .1 1.5.3 3 .5 4.5.2 1.1.4 1.2 1.6 1.1.6 0 1.1 0 1.7.1 1.7.4 2.4 2.2 1.5 3.8-1 1.8-4.1 3.9-6.7 3.4-.8-.2-1.6-.4-2.3-.6-2-.7-2.5-2.3-2.5-4.1.1-2.3.1-4.6.1-6.9 0-.3-.1-.5-.1-.9-.4 0-.8-.1-1.1-.2-.9 1.9-1.8 3.8-2.8 5.6-.7 1.2-1.6 2.3-2.5 3.4-.7.9-1.7 1.1-2.8 1-2 0-3.7-.7-5.5-1.5-1-.5-1.7-1.4-2-2.6-.3-1.4.3-2.4 1.4-3.2.6-.4 1.1-.5 1.7-.2.8.1 1.6.3 2.3.6.3-.4.6-.6.8-.9.9-1.7 1.8-3.4 2.6-5.1.3-.5.3-1-.1-1.5-.6-.9-.7-1.9-.6-3 .1-2.1.7-4.2 1.6-6.3-1.2.4-2.2.8-3.1 1.1-1 .4-2 .8-3.1 1-1.7.4-3.1-.2-3.6-1.9-.3-1 .6-3.2 1.5-3.8 1.6-.9 3.3-1.5 5.1-1.9 1.3-.2 2.5-.3 4-.4-1.1-2.8-1.1-5.6.4-8.4-.4-.4-.8-.8-1.2-1.1-.7-.7-1-1.6-.9-2.6.2-1.9.8-3.7 2.4-4.9 1.5-1.2 3.4-1.1 4.8.4.6.6 1 1.3 1.5 2 2.6 0 5.4-.1 7.9.9.6-.8 1.1-1.5 1.8-2.1C28.6.8 30.2.7 31.8 1c2.1.5 3.9 3.4 3 5.9-.5 1.4-2 3.1-3.4 3.8.2 1.9-.1 3.8-.9 5.6-.7 1.8-1.7 3.4-3.3 4.6 1.1.7 2.2 1.4 3.2 2 1.1.8 2 1.8 2.8 2.9.8 1 1 2.1.7 3.4-.3 1.2-.9 1.7-2.2 1.5-.7-.2-1.4-.5-2-.9-1-.7-2-1.6-2.9-2.3-.2-.4-.4-.4-.6-.5zm-13.6-8.6c.1-.5.1-.8.3-1.1.5-1.4.9-2.9 2.3-3.6 2.9-1.6 6-1.9 9.1-.5 2.3 1 3.2 3 2.6 5.4l-.3 1.2c.6-.2 1.1-.5 1.4-.9 1.6-1.9 2.3-4.1 2.6-6.5.1-1-.1-2-.7-2.9-.3-.4-.4-.8-.6-1.2-.6-1.1-1.4-2.1-2.5-2.6-1.6-.7-3.2-1.5-5-1.5-.6 0-1.2.1-1.8 0-1.8-.4-3.3.3-4.5 1.4-1.1 1-2.1 2.1-2.9 3.4-1.4 2.1-2 4.5-1.3 7.1 0 .7.4 1.5 1.3 2.3zm9.7 4.3c.2 1 .5 1.9.6 2.7.2 1.8.2 3.5-.5 5.2-.7 1.8-1.9 3.2-4 3.4-2.1.2-4-.4-5.6-1.7-.7-.6-1.1-1.5-1-2.6.1-2 .8-3.8 1.6-5.7.4-.9.7-1.9 1.1-2.9-.7-.4-1.4-.7-2.1-1.1-.5.9-.8 1.7-1.2 2.5-1.1 2.4-2 4.9-2 7.6 0 .8.2 1.5.5 2.3.6 1.5 1.8 2.4 3.3 3 .6.2 1.3.4 1.9.6 2 .5 4 .8 6 .3 1.1-.3 2.2-.7 2.8-1.7.8-1.4 1.5-2.8 1.6-4.5.1-1.6.1-3.3-.1-4.9-.1-.9-.5-1.8-.8-2.8-.7 0-1.3.1-2.1.3zm-7.1-1.3c-.7 1.7-1.4 3.3-1.9 4.9-.3 1-.6 2-.7 3.1-.1 1.2.3 2.2 1.5 2.7.8.4 1.7.8 2.6.9 2.8.4 4.5-.8 5.1-3.7.3-1.3.2-2.7.1-4 0-.8-.3-1.7-.5-2.5-2.1.1-4.2-.3-6.2-1.4zM9.7 34.7l-3 5.7c-.5.9-.7 1-1.7.7-.5-.1-.9-.3-1.4-.5-1.4-.6-2.6.3-2.7 1.9 0 1.3.8 2.1 1.8 2.5 1.3.5 2.6.9 4 1.2 1.6.3 2.9-.2 4-1.5 1-1.2 1.7-2.5 2.4-3.8.6-1.2 1.1-2.6 1.6-3.7-1.7-1-3.3-1.7-5-2.5zm8 2.9V46c.1 1.1.7 1.9 1.7 2.4 1.2.5 2.5.7 3.8.5 1.7-.2 3.1-1.1 4.1-2.5 1.1-1.4.5-2.7-1.3-2.9-.5 0-1.1.1-1.6.1-.9 0-1.3-.2-1.6-1.1l-.3-1.2c-.2-1.5-.3-2.9-.6-4.3-1.3.2-2.7.4-4.2.6zm.3-24.1c-2.1.3-3.5 1.4-4.2 3.4-.5 1.4-.4 2.3 1.2 3.3 2.4 1.4 5 1.8 7.7 1.3 1.6-.3 2.6-1.1 3.3-2.8 1-2.7-1.3-5.2-3.4-5-.4 1.5-1.1 2.1-2.2 2.2-1 .1-1.7-.6-2.4-2.4zm-6.1 5.4c-.4-.1-.6-.2-.8-.2-2.9-.1-5.7.4-8.4 1.7-.9.4-1.4 1.2-1.7 2.2-.3 1.1.2 1.9 1.4 2.2.8.2 1.4-.2 2-.4 2-.5 4-1.3 5.8-2.3.2-.1.4-.2.5-.4.4-.9.7-1.8 1.2-2.8zm13.3 3c.3.9.5 1.7.6 2.4.1.8.5 1.4 1 1.9 1.1.9 2.2 1.9 3.3 2.7.4.3.9.6 1.4.7 1 .3 1.7-.2 1.7-1.3 0-.7-.2-1.5-.6-2-1.8-2.3-4-4-6.8-4.6-.2 0-.4.1-.6.2zM28 5.2c.2-.2.3-.4.6-.6.3-.2.5-.4.8-.5.6-.4 1.6-.2 2.2.4.6.6.7 1.3.3 2.1-.4.7-.9 1.2-1.4 1.9.2.3.5.8.7 1.1 1.5-.4 3-2.4 3.1-4 .1-1-.2-1.9-.9-2.7-1.1-1.2-3.2-1.7-4.7-.8-.9.5-1.9 1-1.9 2.4.3.2.8.5 1.2.7zM16.6 3.5c-.1-1.3-.9-2-1.9-2.4-1-.4-2-.3-2.9.4-1.2 1-1.8 2.3-2.1 3.8-.2.9 0 1.5.7 2.1l1.2.9c.4-.6.8-1.1 1.1-1.6-1.1-1.2-1.2-2.1-.5-2.9.9-1 1.7-1 3.1.4.4-.2.8-.4 1.3-.7zm13.2 3.7c.9-.3 1.6-.9 1.4-1.5-.1-.3-.4-.7-.8-.8-.5-.2-1.1-.1-1.4.5-.4.8.3 1.3.8 1.8zm-8 6.9c-.6-.7-1.3-1-2-.8-.2 0-.6.2-.6.4 0 .3 0 .7.2.9.6.8 1.5.7 2.4-.5zm-7.3-9.2c-.5-1-.9-1.1-1.5-.7-.5.4-.6.9-.3 1.3s.8.4 1.2-.1c.3-.1.4-.3.6-.5z" fill="#9b68b1"/>
		<path id="XMLID_2229_" class="st0" d="M22.7 11.4c-.3-.3-.7-.7-.3-1.2.4-.6 1.4-.8 1.9-.4s.6 1.2.2 1.7c-.4.5-1.1.5-1.8-.1z" fill="#9b68b1"/>
		<path id="XMLID_2228_" class="st0" d="M16.7 10.9c-.5-.4-.6-1-.2-1.5.3-.4.8-.5 1.3-.2.4.3.5.8.2 1.3-.4.6-.9.7-1.3.4z" fill="#9b68b1"/>
		<path id="XMLID_2227_" class="st0" d="M16.2 16.5c.3.4.6.7 1 1 1.1 1.2 3.1 1.6 4.5.8.5-.3.9-.8 1.5-1.4.1.4.3.8.2.9-.5.5-.9 1.1-1.5 1.5-2 1-4.6.2-5.8-1.8-.1-.2-.1-.5-.1-.8 0-.1.2-.2.2-.2z" fill="#9b68b1"/>
		</g>
	</symbol>
	<symbol id="eye_icon" viewBox="0 0 19 11">
		<path class="st0" d="M9.5 10c-2.2 0-4-2-4-4.5S7.3 1 9.5 1s4 2 4 4.5-1.8 4.5-4 4.5zm0-8.3c-1.8 0-3.3 1.7-3.3 3.8 0 2.1 1.5 3.8 3.3 3.8 1.8 0 3.3-1.7 3.3-3.8 0-2.1-1.5-3.8-3.3-3.8zm0 6.2c-1.1 0-2-1.1-2-2.4 0-1.3.9-2.4 2-2.4s2 1.1 2 2.4c0 1.3-.9 2.4-2 2.4zm0-4.2c-.8 0-1.4.8-1.4 1.8s.6 1.8 1.4 1.8c.8 0 1.4-.8 1.4-1.8s-.6-1.8-1.4-1.8z" fill="#ffffff"/>
		<path class="st0" d="M9.5 11c-4 0-7.6-2-9.4-5.2L0 5.7v-.4l.1-.1C1.9 2 5.5 0 9.5 0s7.6 2 9.4 5.2l.1.1v.4l-.1.1C17.1 9 13.5 11 9.5 11zM.7 5.5c1.7 3 5.1 4.8 8.8 4.8 3.8 0 7.1-1.9 8.8-4.8-1.7-3-5.1-4.8-8.8-4.8C5.7.7 2.4 2.5.7 5.5z" fill="#ffffff"/>
	</symbol>
	<symbol id="map_pin_icon" viewBox="0 0 48 66">
		<path d="M24 0C10.8 0 0 10.7 0 23.9c0 16.4 21.5 40.4 22.4 41.4.9 1 2.4 1 3.2 0 .9-1 22.4-25 22.4-41.4C48 10.7 37.2 0 24 0zm0 35.9c-6.7 0-12.1-5.4-12.1-12s5.4-12 12.1-12 12.1 5.4 12.1 12-5.4 12-12.1 12z" />
	</symbol>
	<symbol id="sun_cloud_icon" viewBox="0 0 490 240">
		<path d="M490 110.6c-33.3 10.8-35.6 21.2-9 43.1-34.8-3.1-40.7 5.3-24.6 35.1-30.9-15.6-39.6-9.8-36.4 23.7-22.7-25.6-33.4-23.4-44.6 8.7-11.2-32.2-21.9-34.3-44.6-8.7 3.3-33.6-5.5-39.3-36.4-23.7 16.2-29.8 10.2-38.3-24.6-35.1 26.5-21.9 24.3-32.2-9-43.1 33.3-10.8 35.6-21.2 9-43.1 34.8 3.1 40.7-5.3 24.6-35.1C325.3 48 334 42.3 330.8 8.7c22.7 25.6 33.4 23.4 44.6-8.7 11.2 32.2 21.9 34.3 44.6 8.7-3.3 33.6 5.5 39.3 36.4 23.7-16.2 29.8-10.2 38.3 24.6 35.1-26.6 21.9-24.3 32.3 9 43.1z" fill="#faef57"/>
		<ellipse cx="375.4" cy="107.1" rx="79.2" ry="76.4" fill="#faef57" stroke="#fff" stroke-width="6.1269" stroke-miterlimit="10"/>
		<path d="M68.6 107.7c3.1 0 6.1.2 9 .6 10.7-34.7 43.9-60 83.4-60 35.9 0 66.6 21 79.9 50.9 7.9-3.1 16.3-4.7 25.4-4.7 27.5 0 51.4 15.7 62.2 38.3 7.2-3.3 15.3-5.1 23.8-5.1 23.8 0 44.2 14.4 52.2 34.7 5.3-2.4 11.3-3.7 17.5-3.7 23.3 0 42.2 18.2 42.2 40.7S445.3 240 422 240H68.6C30.7 240 0 210.4 0 173.8c.1-36.5 30.8-66.1 68.6-66.1z" fill="#fafafa"/>
	</symbol>
	<symbol id="phone_icon" viewBox="0 0 17 17">
		<path id="XMLID_3_" class="st0" d="M12.9 11.2c-.6-.5-1.2-.5-1.8 0l-1.3 1.3c-.1.1-.2.1-.3.1-.3-.1-.6-.3-.8-.4-1.2-.8-2.2-1.8-3.1-2.9-.5-.6-.9-1.2-1.2-1.8-.1-.1 0-.2.1-.3L5.7 6c.6-.6.6-1.3 0-1.8l-1-1-1-1c-.5-.7-1.2-.7-1.8-.2-.4.5-.8.9-1.2 1.3-.4.4-.6.8-.7 1.4-.1.9.1 1.7.5 2.5.6 1.7 1.6 3.2 2.7 4.5 1.6 1.8 3.4 3.3 5.6 4.4 1 .5 2 .8 3.1.9.8 0 1.4-.1 1.9-.7.4-.4.8-.8 1.1-1.2.6-.6.6-1.3 0-1.8-.6-.7-1.3-1.4-2-2.1z"/>
		<path id="XMLID_2_" class="st0" d="M12.2 8.4l1.3-.2c-.2-1.2-.8-2.3-1.6-3.1-.9-1-2-1.5-3.3-1.7l-.2 1.3c1 .1 1.9.6 2.6 1.3.7.7 1.1 1.5 1.2 2.4z"/>
		<path id="XMLID_1_" class="st0" d="M14.3 2.8C12.8 1.2 10.9.3 8.8 0l-.2 1.3c1.8.3 3.5 1.1 4.8 2.4 1.2 1.2 2 2.8 2.3 4.5L17 8c-.3-2-1.3-3.8-2.7-5.2z"/>
	</symbol>
	<symbol id="contact_email_icon" viewBox="0 0 16 12">
		<path id="XMLID_4_" class="st0" d="M14.6 12c.4 0 .7-.1.9-.3L11 7.3c-.1.1-.2.1-.3.2-.4.3-.7.5-.9.6-.2.1-.5.3-.8.4-.4.2-.7.2-1 .2-.3 0-.6-.1-1-.2-.3-.1-.6-.3-.8-.4-.2-.1-.5-.3-.9-.5L5 7.3.5 11.6c.3.3.6.4.9.4h13.2z"/>
		<path id="XMLID_3_" class="st0" d="M.9 4.6c-.3-.2-.6-.5-.9-.7v6.6l4-3.8C3.2 6.1 2.2 5.4.9 4.6z"/>
		<path id="XMLID_2_" class="st0" d="M15.1 4.6c-1.2.8-2.2 1.5-3.1 2l4 3.8V3.9c-.3.2-.6.5-.9.7z"/>
		<path id="XMLID_1_" class="st0" d="M14.6 0H1.4C1 0 .6.1.4.4.1.7 0 1.1 0 1.6c0 .4.2.7.5 1.2.3.4.7.7 1 1 .2.1.8.5 1.8 1.2.5.4 1 .7 1.4 1 .4.2.7.4.9.6 0 0 .1 0 .1.1.1 0 .1.1.2.2.4 0 .5.1.7.2.1 0 .2.1.4.2s.4.2.5.2c.2.1.4.1.5.1.1 0 .3 0 .4-.1.2 0 .4-.1.6-.2.2-.1.3-.2.5-.3.1 0 .2-.1.4-.3.1-.1.2-.1.2-.2.1 0 .1-.1.1-.1.2-.1.5-.3.9-.6.7-.5 1.8-1.2 3.3-2.2.4-.3.8-.6 1.1-1 .4-.4.5-.8.5-1.2 0-.4-.1-.7-.4-1-.3-.3-.6-.4-1-.4z"/>
	</symbol>
	<symbol id="monster_icon" viewBox="0 0 165 350">
		<g id="Objects">
		<path id="XMLID_16_" class="st0" d="M24.4 162.4c3.6 2.8 1.8-2.8 1.8-2.8s2.6 4.9 4.8 6.2l-.3.3c-.4 7-.7 13.6-1 20-2.5 74.3 8.6 118.6 8.6 118.6s5 4.1 4.4 5.9c-.4 1.7-3.1-.1-3.4-.3.3.4 6.1 8.7 4.8 9.7s-7-5.9-7-5.9 2.8 8.4 1.5 9.4c-1.2 1-5-7.5-5.4-8.4.3.9 3.2 10.2 1.2 10-2-.3-7.9-13.9-11.4-39.2-4.4-31.1-3.4-82.4-2.5-110.4.3-7.5.4-13.5.6-16.8l.6-.1c.7 1.7 1.5 3 2.7 3.8z" fill="#4e375b"/>
		<path id="XMLID_15_" class="st0" d="M126.9 310.9c-.3.1-2.9 2-3.4.3-.4-1.7 4.4-5.9 4.4-5.9s11.5-45 9.2-120.3c-.1-5.9-.4-12-.7-18.3h-1c2.2-.4 5.5-6.5 5.5-6.5s-1.9 5.5 1.8 2.8c1.3-.9 2-2.3 2.5-3.6l.6.3c.1 2.9.3 7.7.4 13.9.7 27.3 1.6 81.1-3.1 113.2-3.6 25.4-9.5 38.9-11.5 39.2-2 .3 1-9 1.3-10-.4.9-4.2 9.4-5.4 8.4-1.3-1 1.6-9.4 1.6-9.4s-5.7 7-7 5.9c-1.3-1.3 4.5-9.6 4.8-10z" fill="#4e375b"/>
		<path id="XMLID_14_" class="st0" d="M118.2 348.8c.1 2.6-14.9.4-15.9-3.6-1-3.9 6.7-75.3-2.8-143.4 3.6-.4 7.1-1.2 10.4-2 1.8 12.6 7.1 60.9 1.3 142.2 0 .1 6.8 4.2 7 6.8z" fill="#4e375b"/>
		<path id="XMLID_13_" class="st0" d="M68 201.6c-6.4 68.4 4.7 139.2 3.8 143.1-.9 4.1-15.8 6.8-15.8 4.4.1-2.6 6.7-7 6.7-7-9.6-81.1-6.3-129.7-5.1-142.2 3.3.7 6.8 1.3 10.4 1.7z" fill="#4e375b"/>
		<path id="XMLID_12_" d="M26.2 159.8s1.9 5.5-1.8 2.8c-1.2-1-2-2.3-2.5-3.6l-.6.1c-.1 3.3-.3 9.1-.6 16.8-8.2-13.4-10.8-26.8-10.5-29.3-.3 1.6-1.8 7.4-6.1 1.6-5-6.5 3.2-27.1 3.6-28.2-.3.4-2.3 2.9-5.7 1.5-3.6-1.6-3.8-19.4 10.2-48.6S50.4 30 79 31c75.8 2.8 87.5 89.7 85.9 96.8s-8.8 1.5-8.8 1.5c.1 10.4-.7 28.6-9.9 44.3-.1-6.2-.3-11.2-.4-13.9l-.6-.3c-.4 1.3-1.3 2.8-2.5 3.6-3.6 2.8-1.8-2.8-1.8-2.8s-3.2 6.1-5.5 6.5h1c.3 6.2.6 12.3.7 18.3-6.6 6.5-15.5 11.8-27.4 14.9-3.2.9-6.6 1.5-10.4 2-7 .9-14.9 1.2-23.6.6-2.8-.1-5.4-.4-7.9-.7-3.6-.4-7.1-1-10.4-1.9-12.5-2.9-21.6-7.8-28-13.5.1-6.5.6-13.2 1-20l.3-.3c-1.9-1.3-4.5-6.3-4.5-6.3z" fill="#9b69ac"/>
		<path id="XMLID_11_" class="st0" d="M56.6 77.4C54.3 81.3 53 86 53 90.9c0 14.7 11.8 26.6 26.4 26.7 14.6 0 26.4-11.8 26.5-26.4 0-4.9-1.3-9.6-3.6-13.5l-45.7-.3z" fill="#4e375b"/>
		<path id="XMLID_10_" class="st2" d="M58 78.6c-2.2 3.6-3.5 7.8-3.5 12.3 0 13.5 11.1 24.4 24.9 24.4 13.7 0 24.9-10.7 25.1-24.2 0-4.5-1.3-8.7-3.5-12.3l-43-.2z" fill="#fff"/>
		<path id="XMLID_9_" class="st3" d="M74 79.4s-1.3 23.9 6.1 23.9c7.4 0 4.5-23.8 4.5-23.8L74 79.4z" fill="#1f140f"/>
		<path id="XMLID_8_" d="M73.7 67.5c-6.9-.6-21.1-.7-24.1 3.6-2.9 4.2-1.2 8.7 15.3 9.4 16.5.7 39.1 1.3 43.2-1.5 4.1-2.8.6-13.2-1.9-13.6-2.5-.6-5.7 2.9-5.7 2.9s-1.9-2.8-5.1-2.9-4.1 2.6-4.1 2.6-10.3.1-17.6-.5z" fill="#ababab"/>
		<path id="XMLID_7_" class="st2" d="M61.2 126.6s-4.4-7.7-6.1-7.7c-1.8 0-4.2 13.6-4.2 13.6l10.3-5.9z" fill="#fff"/>
		<path id="XMLID_6_" class="st2" d="M115.4 130.7s-4.4-11.9-6.1-11.6c-1.8.1-5.4 7.5-5.4 7.5l11.5 4.1z" fill="#fff"/>
		<path id="XMLID_5_" class="st3" d="M43.2 136.5l.1-.1.6-.6c.4-.4 1.2-1.2 2-1.9.9-.7 2-1.6 3.5-2.6 1.3-1 2.9-1.9 4.8-2.9.9-.4 1.9-.9 2.9-1.5 1-.4 2-.9 3.2-1.3 2.2-.9 4.7-1.6 7.1-2.2 1.3-.3 2.5-.6 3.8-.7 1.3-.3 2.6-.4 3.9-.6.7 0 1.3-.1 2-.1s1.3 0 2-.1h4c1.3 0 2.6 0 3.9.1 1.3.1 2.8.3 4.1.3 1.3.1 2.6.4 3.9.6 1.3.3 2.6.4 3.8.7 5 1 9.5 2.5 13.4 3.9 3.8 1.5 6.9 3 8.9 4.2 1 .6 1.9 1 2.3 1.5l.9.6c.6.3.7 1 .3 1.6-.3.4-1 .6-1.5.4 0 0-.3-.1-.9-.4-.6-.3-1.3-.6-2.3-1.2-2-1-5.1-2.2-8.9-3.3-1.9-.6-3.9-1.2-6.1-1.7s-4.5-1-6.9-1.5c-1.2-.1-2.5-.4-3.6-.6-1.3-.1-2.5-.3-3.8-.4-1.3-.1-2.5-.1-3.8-.3-1.3-.1-2.6-.1-3.9-.1H77.2l-1.9.1c-1.3.1-2.5.3-3.8.4-1.2.1-2.5.3-3.6.6-1.2.3-2.3.4-3.5.9-1.2.3-2.2.6-3.2.9-1 .3-2 .7-3.1 1-1 .4-1.9.7-2.8 1.2-.9.4-1.8.7-2.5 1.2-.7.4-1.6.7-2.2 1.2-1.3.7-2.5 1.5-3.5 2.2-.9.6-1.6 1.2-2 1.6-.3.1-.4.3-.4.4l-.1.1c-.4.4-1.2.4-1.6-.1-.1-.4-.1-1.1.2-1.5z" fill="#1f140f"/>
		<path id="XMLID_4_" d="M67.6 34.9c-4.5 0-9.6 3-8.2 5.7 1.5 2.6 35.3 3.9 38.7-1.5 3.2-5.7-15.8-4.1-30.5-4.2z" opacity=".1" fill="#642a7e"/>
		<path id="XMLID_3_" d="M76.5.1c-3.1.9-16 34.8-14 38.5 2 3.6 29.2 4.2 31.4-2 2-6.2-11.7-38.1-17.4-36.5z" fill="#de6680"/>
		<path id="XMLID_2_" class="st7" d="M72 9.1h6c.7 0 1.5 0 2.2-.1.7-.1 1.3-.1 1.9-.1.3 0 .4-.1.7-.1.1 0 .4-.1.6-.1.3 0 .4-.1.4-.1h.1c.1 0 .4.1.4.3 0 .1 0 .3-.1.4 0 0-.1.1-.4.3-.1.1-.3.1-.6.3-.3.1-.4.3-.7.3-.3 0-.6.1-.9.3-.3 0-.7.1-1 .3-.7 0-1.5.1-2.3.1-.7 0-1.6 0-2.3-.1-.7 0-1.5-.1-2-.3-1.3-.4-2-.7-2-.7-.1 0-.3-.3-.3-.4 0-.2.1-.3.3-.3z" fill="#a8445d"/>
		<path id="XMLID_1_" class="st7" d="M68 22.1s1.5.1 3.5.4c1 .1 2.3.3 3.5.3 1.3.1 2.8.1 4.1.1h2c.7 0 1.3 0 2-.1.6 0 1.3-.1 1.9-.1.6 0 1.2-.1 1.6-.3.4-.1.9-.3 1.3-.3.4-.1.7-.3 1-.3.6-.3.9-.3.9-.3.1-.1.4 0 .4.1s0 .4-.1.4c0 0-.3.1-.9.4-.3.1-.6.3-1 .4-.4.1-.9.4-1.5.4-.6.1-1.2.3-1.8.4-.6.1-1.3.3-1.9.3-.7 0-1.3.1-2 .1h-2.2c-1.5 0-2.9-.1-4.2-.3-1.3-.1-2.6-.4-3.6-.6-2-.4-3.5-.9-3.5-.9-.1 0-.3-.3-.3-.4.4.3.5.2.8.3z" fill="#a8445d"/>
		</g>
	</symbol>
	<symbol id="cross_icon" viewBox="0 0 12 12">
		<path fill="#040305" d="M12 .4l-.4-.4L6 5.6.4 0 0 .4 5.6 6 0 11.6l.4.4L6 6.4l5.6 5.6.4-.4L6.4 6z"/>
	</symbol>
	<symbol id="history_icon" viewBox="0 0 19 19">
		<path id="XMLID_3_" class="st0" d="M18.4 9.4c-.3 0-.6.3-.6.6v6.2c0 .9-.8 1.7-1.7 1.7H2.8c-.9 0-1.7-.8-1.7-1.7V2.8c0-.9.8-1.7 1.7-1.7H9c.3 0 .6-.3.6-.6S9.4 0 9.1 0H2.8C1.3 0 0 1.3 0 2.8v13.3C0 17.7 1.3 19 2.8 19h13.3c1.6 0 2.8-1.3 2.8-2.8V9.9c.1-.3-.2-.5-.5-.5z"/>
		<path id="XMLID_2_" class="st0" d="M14.1 5.7L9.7 9.4 6.4 7.1c-.2-.2-.6-.1-.8.1-.2.3-.1.6.2.8l3.7 2.5c.2.1.5.1.7 0l4.7-4c.1-.1.2-.3.2-.5s-.2-.4-.4-.4c-.2-.1-.4-.1-.6.1z"/>
		<path id="XMLID_1_" class="st0" d="M11.6 9.3l4.7-4c.2-.1.2-.3.2-.5s-.2-.4-.4-.4c-.2-.1-.4 0-.6.1l-4.4 3.7"/>
	</symbol>
	<symbol id="edit_icon" viewBox="0 0 19 19">
		<path id="XMLID_5_" class="st0" d="M17.6 11.9c-.3 0-.5.2-.5.5v4.2c0 .8-.6 1.4-1.4 1.4H2.3c-.8 0-1.4-.6-1.4-1.4V4.2c0-.8.6-1.4 1.4-1.4h4.2c.3 0 .5-.2.5-.5s-.2-.5-.5-.5H2.3C1 1.9 0 2.9 0 4.2v12.4C0 17.9 1 19 2.3 19h13.3c1.3 0 2.4-1.1 2.4-2.4v-4.2c.1-.3-.2-.5-.4-.5z"/>
		<path class="st0" d="M17.9.6c-.8-.8-2.2-.8-3 0L6.4 9.1l-.2.2-1.1 4c0 .2 0 .3.1.5.1.1.3.2.5.1l4-1.1c.1 0 .2-.1.2-.1l8.5-8.5c.8-.8.8-2.2 0-3l-.5-.6zM7.4 9.4l6.9-6.9 2.2 2.2-6.9 6.9-2.2-2.2zm-.5.9l1.8 1.8-2.5.7.7-2.5zm10.8-6.8l-.5.5L15 1.8l.5-.5c.5-.5 1.2-.5 1.7 0l.6.6c.4.4.4 1.2-.1 1.6z"/>
	</symbol>
	<symbol id="logout_icon" viewBox="0 0 19 19">
		<path id="XMLID_2_" class="st0" d="M9.2 17.9H3.8c-1.5 0-2.6-1.1-2.6-2.4v-12c0-1.3 1.2-2.4 2.6-2.4h5.4c.3 0 .6-.2.6-.5S9.6 0 9.2 0H3.8C1.7 0 0 1.6 0 3.5v11.9c0 2 1.7 3.6 3.8 3.6h5.3c.3 0 .6-.2.6-.5s-.2-.6-.5-.6z"/>
		<path id="XMLID_1_" class="st0" d="M18.8 9.1l-3.7-3.5c-.2-.2-.6-.2-.8 0-.2.2-.2.6 0 .8L17 9H5.1c-.3 0-.6.2-.6.5s.3.5.6.5H17l-2.7 2.5c-.2.2-.2.6 0 .8.1.1.3.2.4.2s.3-.1.4-.2l3.7-3.5c.3-.1.3-.5 0-.7z"/>
	</symbol>
</svg>